<svg version="1.1" id="Layer_1" xmlns="http://www.w3.org/2000/svg" xmlns:xlink="http://www.w3.org/1999/xlink" x="0px" y="0px"
	 viewBox="0 0 1121.4 1045.8" style="enable-background:new 0 0 1121.4 1045.8;" xml:space="preserve">
<style type="text/css">
	.st0{fill:#FFFFFF;}
</style>
<g id="Layer_1_1_">
	<rect x="827.5" y="305.1" class="st0" width="42.1" height="196.1"/>
	<rect x="848.5" y="305.1" class="st0" width="162" height="40.6"/>
	<rect x="861.4" y="382.9" class="st0" width="173.7" height="40.6"/>
	<rect x="577.8" y="304" class="st0" width="42.9" height="197.2"/>
	<rect x="545.6" y="802.4" class="st0" width="42.9" height="197.2"/>
	<rect x="233.7" y="146.6" class="st0" width="283.5" height="42.9"/>
	<rect x="476.2" y="95.3" class="st0" width="42.9" height="94.1"/>
	<rect x="616.8" y="146.6" class="st0" width="283.5" height="42.9"/>
	<rect x="614.8" y="95.4" class="st0" width="42.9" height="94.1"/>
	<polygon class="st0" points="519.1,131.3 363.3,131.3 443.3,95.3 519.1,95.3 	"/>
	<polygon class="st0" points="615,131.3 770.8,131.3 690.8,95.3 615,95.3 	"/>
</g>
<g id="Layer_2_1_">
	<rect x="549.4" y="33.5" class="st0" width="41.5" height="223.4"/>
	<rect x="173.4" y="210.9" class="st0" width="795.8" height="46"/>
	<polygon class="st0" points="708.8,590.3 708.8,547.4 426.9,547.4 426.9,568.8 426.9,590.3 426.9,666.9 469.8,666.9 663.6,666.9 
		663.6,700.6 426.9,700.6 426.9,744.5 708.8,744.5 708.8,727.9 708.8,700.6 708.8,666.9 708.8,645.5 708.8,624 469.8,624 
		469.8,590.3 	"/>
	<rect x="96.8" y="458.3" class="st0" width="210.6" height="42.9"/>
	<rect x="264.5" y="305.1" class="st0" width="42.9" height="157.8"/>
	<rect x="608.4" y="458.3" class="st0" width="196.1" height="42.5"/>
	<rect x="75.3" y="547.4" class="st0" width="318.6" height="42.9"/>
	<rect x="740.9" y="547.4" class="st0" width="318.6" height="42.9"/>
	<rect x="605.4" y="304" class="st0" width="196.1" height="42.9"/>
	<rect x="328.1" y="304" class="st0" width="42.9" height="197.2"/>
	<rect x="511.1" y="304" class="st0" width="42.9" height="197.2"/>
	<rect x="120.3" y="701.6" class="st0" width="273.6" height="42.9"/>
	<rect x="740.9" y="624.5" class="st0" width="294.1" height="42.9"/>
	<rect x="740.9" y="547.3" class="st0" width="42.9" height="197.2"/>
	<rect x="172" y="791.2" class="st0" width="787.2" height="42.9"/>
	
		<rect x="384.1" y="298.4" transform="matrix(0.7071 -0.7071 0.7071 0.7071 -142.6715 395.0211)" class="st0" width="42.9" height="142.7"/>
	
		<rect x="405.8" y="348.1" transform="matrix(0.7071 -0.7071 0.7071 0.7071 -121.5711 445.675)" class="st0" width="142.7" height="42.9"/>
	<rect x="234.6" y="859" class="st0" width="283.5" height="42.9"/>
	<rect x="616.8" y="859" class="st0" width="283.5" height="42.9"/>
	<rect x="477.2" y="859" class="st0" width="42.9" height="94.1"/>
	<rect x="616.8" y="859" class="st0" width="42.9" height="94.1"/>
	<polygon class="st0" points="518.1,917.2 362.3,917.2 442.4,953.2 518.1,953.2 	"/>
	<polygon class="st0" points="616.8,917.2 772.6,917.2 692.5,953.2 616.8,953.2 	"/>
</g>
<g id="Layer_3">
	<path class="st0" d="M956.9,791.2c-14.4,20.7-30.3,40.3-47.8,58.5c-86.9,90.8-204,142.2-329.6,144.9c-3.5,0.1-6.9,0.1-10.4,0.1
		c-121.8,0-236.9-46.2-325.2-130.7c-23.1-22.1-43.9-46.5-62.1-72.8H133c92.8,151.9,258,244.5,436.1,244.5c3.8,0,7.5,0,11.3-0.1
		c174.1-3.9,334.3-95.9,425.4-244.4H956.9z"/>
	<path class="st0" d="M182.4,256.9C265.4,137,402.7,57.2,559.3,53.8c3.5-0.1,6.9-0.1,10.4-0.1c121.8,0,236.9,46.2,325.2,130.7
		c23,22,43.7,46.3,61.9,72.4h48.9C857.6,15.9,542.4-59.4,301.5,88.5c-68.5,42.1-126.2,99.8-168.3,168.3L182.4,256.9z"/>
	<path class="st0" d="M1039.3,547.4c-3.2,68.9-21.7,136.2-54,197.1h45.8c4.9-10.3,9.5-20.8,13.7-31.4
		c21.1-52.8,33.1-108.9,35.5-165.7H1039.3z"/>
	<path class="st0" d="M99.5,500.8c3.3-68.4,21.6-135.2,53.6-195.7H107c-4.7,9.9-9,19.9-13.1,30.1c-21,52.8-33,108.8-35.5,165.5H99.5
		z"/>
	<path class="st0" d="M99.5,547.3h-41c2.8,64.2,17.7,127.3,44.1,186c1.7,3.8,3.4,7.5,5.2,11.2h45.8
		C121.1,683.6,102.7,616.2,99.5,547.3z"/>
	<path class="st0" d="M1071,423.5c-7.5-37.3-19.1-73.7-34.7-108.5c-1.5-3.3-3-6.6-4.6-9.9H986c19.7,37.3,34.1,77.1,43.1,118.3
		L1071,423.5z"/>
</g>
</svg>