<?xml version="1.0" encoding="utf-8"?>
<!-- Generator: Adobe Illustrator 24.3.0, SVG Export Plug-In . SVG Version: 6.00 Build 0)  -->
<svg version="1.1" xmlns="http://www.w3.org/2000/svg" xmlns:xlink="http://www.w3.org/1999/xlink" x="0px" y="0px"
	 viewBox="0 0 750 500" style="enable-background:new 0 0 750 500;" xml:space="preserve">
<style type="text/css">
	.st0{fill:none;}
	.st1{stroke:#FFFFFF;stroke-miterlimit:10;}
	.st2{fill:url(#SVGID_1_);}
	.st3{opacity:0.1;fill:url(#SVGID_2_);}
</style>
<pattern  x="125" width="60" height="40" patternUnits="userSpaceOnUse" id="New_Pattern_2" viewBox="28 -78 60 40" style="overflow:visible;">
	<g>
		<rect x="28" y="-78" class="st0" width="60" height="40"/>
		<g>
			<ellipse transform="matrix(0.7071 -0.7071 0.7071 0.7071 87.9847 36.4445)" class="st1" cx="88" cy="-88" rx="27.5" ry="27.5"/>
			<ellipse transform="matrix(0.7071 -0.7071 0.7071 0.7071 87.9847 36.4445)" class="st1" cx="88" cy="-88" rx="23.2" ry="23.2"/>
			<ellipse transform="matrix(0.7071 -0.7071 0.7071 0.7071 87.9847 36.4445)" class="st1" cx="88" cy="-88" rx="19.4" ry="19.4"/>
			<ellipse transform="matrix(1 -4.335874e-03 4.335874e-03 1 0.3823 0.3807)" class="st1" cx="88" cy="-88" rx="15" ry="15"/>
		</g>
		<g>
			<ellipse transform="matrix(0.7071 -0.7071 0.7071 0.7071 70.4111 -5.9819)" class="st1" cx="28" cy="-88" rx="27.5" ry="27.5"/>
			<ellipse transform="matrix(0.5969 -0.8023 0.8023 0.5969 81.8693 -13.012)" class="st1" cx="28" cy="-88" rx="23.2" ry="23.2"/>
			<ellipse transform="matrix(0.7071 -0.7071 0.7071 0.7071 70.4111 -5.9819)" class="st1" cx="28" cy="-88" rx="19.4" ry="19.4"/>
			<ellipse transform="matrix(1 -4.373801e-03 4.373801e-03 1 0.3851 0.1216)" class="st1" cx="28" cy="-88" rx="15" ry="15"/>
		</g>
		<g>
			<ellipse transform="matrix(0.7071 -0.7071 0.7071 0.7071 65.0558 21.0891)" class="st1" cx="58" cy="-68" rx="27.5" ry="27.5"/>
			<ellipse transform="matrix(0.7071 -0.7071 0.7071 0.7071 65.0558 21.0891)" class="st1" cx="58" cy="-68" rx="23.2" ry="23.2"/>
			<ellipse transform="matrix(0.7071 -0.7071 0.7071 0.7071 65.0558 21.0891)" class="st1" cx="58" cy="-68" rx="19.4" ry="19.4"/>
			<circle class="st1" cx="58" cy="-68" r="15"/>
		</g>
		<g>
			<ellipse transform="matrix(0.7071 -0.7071 0.7071 0.7071 59.7005 48.1602)" class="st1" cx="88" cy="-48" rx="27.5" ry="27.5"/>
			<ellipse transform="matrix(0.7071 -0.7071 0.7071 0.7071 59.7005 48.1602)" class="st1" cx="88" cy="-48" rx="23.2" ry="23.2"/>
			<ellipse transform="matrix(0.7071 -0.7071 0.7071 0.7071 59.7005 48.1602)" class="st1" cx="88" cy="-48" rx="19.4" ry="19.4"/>
			<circle class="st1" cx="88" cy="-48" r="15"/>
		</g>
		<g>
			<ellipse transform="matrix(0.7071 -0.7071 0.7071 0.7071 42.1269 5.7338)" class="st1" cx="28" cy="-48" rx="27.5" ry="27.5"/>
			<ellipse transform="matrix(0.5969 -0.8023 0.8023 0.5969 49.7776 3.1108)" class="st1" cx="28" cy="-48" rx="23.2" ry="23.2"/>
			<ellipse transform="matrix(0.7071 -0.7071 0.7071 0.7071 42.1269 5.7338)" class="st1" cx="28" cy="-48" rx="19.4" ry="19.4"/>
			<circle class="st1" cx="28" cy="-48" r="15"/>
		</g>
		<g>
			<ellipse transform="matrix(0.7071 -0.7071 0.7071 0.7071 36.7715 32.8049)" class="st1" cx="58" cy="-28" rx="27.5" ry="27.5"/>
			<ellipse transform="matrix(0.7071 -0.7071 0.7071 0.7071 36.7715 32.8049)" class="st1" cx="58" cy="-28" rx="23.2" ry="23.2"/>
			<ellipse transform="matrix(0.5847 -0.8112 0.8112 0.5847 46.7829 35.4179)" class="st1" cx="58" cy="-28" rx="19.4" ry="19.4"/>
			<circle class="st1" cx="58" cy="-28" r="15"/>
		</g>
	</g>
</pattern>
<g id="BACKGROUND">
	<g>
		<linearGradient id="SVGID_1_" gradientUnits="userSpaceOnUse" x1="375" y1="-21.722" x2="375" y2="505.593">
			<stop  offset="0" style="stop-color:#C24A4A"/>
			<stop  offset="1" style="stop-color:#7A1212"/>
		</linearGradient>
		<rect class="st2" width="750" height="500"/>
		<pattern  id="SVGID_2_" xlink:href="#New_Pattern_2" patternTransform="matrix(0.7 0 0 0.7 -2390.1045 -2234.3955)">
		</pattern>
		<rect class="st3" width="750" height="500"/>
	</g>
</g>
<g id="OBJECTS">
</g>
</svg>
