<svg xmlns="http://www.w3.org/2000/svg" xmlns:xlink="http://www.w3.org/1999/xlink" viewBox="0 0 199.58 88.47"><defs><style>.cls-1{fill:url(#Nueva_muestra_de_degradado_2);}</style><linearGradient id="Nueva_muestra_de_degradado_2" x1="167.53" y1="-231.19" x2="367.11" y2="-231.19" gradientTransform="matrix(-1, 0, 0, 1, 367.11, 275.42)" gradientUnits="userSpaceOnUse"><stop offset="0" stop-color="#a06d25"/><stop offset="0.14" stop-color="#dfa843"/><stop offset="0.27" stop-color="#f2d65a"/><stop offset="0.41" stop-color="#dfa843"/><stop offset="0.53" stop-color="#ce8b23"/><stop offset="0.65" stop-color="#f2d65a"/><stop offset="0.77" stop-color="#dfa843"/><stop offset="0.87" stop-color="#a06d25"/><stop offset="1" stop-color="#dfa843"/></linearGradient></defs><g id="Layer_2" data-name="Layer 2"><g id="BACKGROUND"><path class="cls-1" d="M2.92,60.11A40.41,40.41,0,0,0,34.78,81.27,24.89,24.89,0,0,0,49,78.4a13.17,13.17,0,0,0,4.76-4.5A8.92,8.92,0,0,0,55,67.57a6.65,6.65,0,0,0-3.71-4.69,4.74,4.74,0,0,0-5.48,1,4,4,0,0,0,3.14,7A3.38,3.38,0,0,0,51,70c.39-.41,1,.2.62.61a5.29,5.29,0,0,1-1,1,3.49,3.49,0,0,1-1.25.46,5,5,0,0,1-2.77-.27,4.67,4.67,0,0,1-3.18-4.48,6.31,6.31,0,0,1,3.12-5.16A6.66,6.66,0,0,1,53,62.2,7.9,7.9,0,0,1,57,68a10.7,10.7,0,0,1-1.86,7.68,15,15,0,0,1-2.73,2.94c.2.2.38.42.59.63a13.35,13.35,0,0,0,1,1,15.07,15.07,0,0,0,2,1.54A17.15,17.15,0,0,0,60.9,84a18.32,18.32,0,0,0,10.77-.43,15,15,0,0,0,5-3A25.1,25.1,0,0,1,73,74.78a23.4,23.4,0,0,1-2.1-9.35A24.49,24.49,0,0,1,72.66,56,22.19,22.19,0,0,1,85.87,43.19a20.6,20.6,0,0,1,17.9,1.66A16.62,16.62,0,0,1,110,51.69a16.14,16.14,0,0,1,1.49,9.12A13.5,13.5,0,0,1,99.37,72.32,12,12,0,0,1,87,62.15,8.85,8.85,0,0,1,90.33,54a5.81,5.81,0,0,1,4-1.1A6.4,6.4,0,0,1,98,54.69a4.82,4.82,0,0,1,1.54,3.41c0,1-1.6,1-1.64,0a2.69,2.69,0,0,0-.5-1.38,3,3,0,0,0-.41-.48L96.7,56s-.16-.13-.14-.13a5.06,5.06,0,0,0-1.65-.58l-.29-.05-.3,0h-.45l-.22,0h-.08a4.49,4.49,0,0,0-.8.21l-.07,0-.15.07c-.17.09-.33.17-.49.27a5.19,5.19,0,0,0-1.27,1.16h0l0,0-.11.15-.27.43a7.82,7.82,0,0,0-.46.86s-.11.28-.12.32a3.45,3.45,0,0,0-.14.42,8.56,8.56,0,0,0-.24,1s0,.1,0,.15,0,.14,0,.15l0,.45a8.39,8.39,0,0,0,0,1c0,.15,0,.3,0,.45s0,.31.06.34c.06.32.14.64.23,1a9.62,9.62,0,0,0,1.65,3.09,9.88,9.88,0,0,0,6.34,3.65c5.32.69,10.56-3.23,12-8.28a14.3,14.3,0,0,0-5.33-15.19,18.67,18.67,0,0,0-16.29-2.86A21,21,0,0,0,75.23,54.62,22.59,22.59,0,0,0,74,71.57a24.12,24.12,0,0,0,9.89,12.66c5.38,3.43,11.86,4.44,18.14,4.21,5.78-.22,12-1.23,16.87-4.47a19.42,19.42,0,0,0,2.21-1.71A11.73,11.73,0,0,1,118.22,73a10,10,0,0,1,5.18-7.58,8.67,8.67,0,0,1,8.75.45,7.9,7.9,0,0,1,3,7.69,6.25,6.25,0,0,1-6.75,5.08,4.69,4.69,0,0,1-3.76-2.58,4.9,4.9,0,0,1,0-4.43,4.05,4.05,0,0,1,1.55-1.47,1,1,0,0,1,1,1.77l-.08.06-.12.09-.18.21a3,3,0,0,0-.18.3.08.08,0,0,0,0,0c-.05.11-.1.24-.15.36l-.06.22a2.74,2.74,0,0,0-.09.39v0c0,.07,0,.14,0,.21s0,.31,0,.47v0a1.29,1.29,0,0,0,0,.19,3.11,3.11,0,0,0,.11.41,1.15,1.15,0,0,0,.06.17l0,.06c.08.15.16.3.25.45l.06.08a.27.27,0,0,0,.07.08,4,4,0,0,0,.29.29l0,0h0l.21.14a3.13,3.13,0,0,0,.48.25,4.16,4.16,0,0,0,3.41-.31,4.84,4.84,0,0,0,2.26-2.69,6.32,6.32,0,0,0-1.82-6.8,7.33,7.33,0,0,0-8-.53,7.72,7.72,0,0,0-3,2.92,8.82,8.82,0,0,0-1.09,4,10.74,10.74,0,0,0,2.85,7.71c.09.09.19.18.28.28a.82.82,0,0,1,.43.43,14.58,14.58,0,0,0,7.16,3.66,21.1,21.1,0,0,0,9.61-.43A25.87,25.87,0,0,0,148,81.14a31,31,0,0,0,6.35-6c.39-.48.77-1,1.15-1.45a16.58,16.58,0,0,1-4.92-4.13A11.39,11.39,0,0,1,151.1,55a10.44,10.44,0,0,1,7-3.39,9.22,9.22,0,0,1,7,2.67,8.27,8.27,0,0,1,2.31,7.07,7.3,7.3,0,0,1-4.18,5.54,6.51,6.51,0,0,1-6.56-.53,6.16,6.16,0,0,1-2.42-5.9,3.55,3.55,0,0,1,3.39-3.26,1.87,1.87,0,0,1,1.48.66,2.14,2.14,0,0,1-.12,3c-.74.63-1.82-.44-1.08-1.07s.06-1.54-.63-1.77c-1.24-.41-2.21,1-2.39,2.08a5.46,5.46,0,0,0,8,5.54,5.65,5.65,0,0,0,3.06-5.1,6.39,6.39,0,0,0-2.8-5.4A7.57,7.57,0,0,0,157.46,54a8.49,8.49,0,0,0-3,1.3,9.14,9.14,0,0,0-2.16,2,9.5,9.5,0,0,0-1.78,6,9.15,9.15,0,0,0,2.24,5.6,17.06,17.06,0,0,0,5.39,4A29.78,29.78,0,0,0,172.65,76a29.28,29.28,0,0,0,23.53-13.61,20.28,20.28,0,0,0,3.12-14.24,14.32,14.32,0,0,0-3-6.6,12.91,12.91,0,0,0-2.49-2.29A10.08,10.08,0,0,0,191.1,38a7.16,7.16,0,0,0-2.1-.26,8.13,8.13,0,0,1,2.3,1.82,7.09,7.09,0,0,1,1.76,4.62,8.34,8.34,0,0,1-6,7.88c-3.64,1.12-7.38-.12-10.45-2.15-3.25-2.15-5.84-5.14-9.06-7.32s-7.43-3.51-11-1.74l-.33.34A12.57,12.57,0,0,1,148,45a10.65,10.65,0,0,1-8.81-3.91,9.13,9.13,0,0,1-1.06-9.17,7.72,7.72,0,0,1,7.1-4.32,6,6,0,0,1,4,1.86,4.87,4.87,0,0,1,1.18,4,4.37,4.37,0,0,1-.87,1.92c-.26.32-.82-.11-.57-.44a3.83,3.83,0,0,0,.35-3.93,4.67,4.67,0,0,0-3.19-2.4,6.12,6.12,0,0,0-6.62,3.22,7,7,0,0,0,.78,7.64,9.16,9.16,0,0,0,7.15,3.44A10.72,10.72,0,0,0,157.8,33.5a12.82,12.82,0,0,0-8-13.15,14.48,14.48,0,0,0-8.31-.67,16,16,0,0,0-7.64,4.13c-.13.11-.25.23-.37.35a15.21,15.21,0,0,1-4.65,5.09,12.32,12.32,0,0,1-12.47,1,10.3,10.3,0,0,1-5.69-9.68,9.1,9.1,0,0,1,2.15-5.31,7.86,7.86,0,0,1,5-2.55,7.53,7.53,0,0,1,5.26,1.22,5.76,5.76,0,0,1,2.62,5,4.16,4.16,0,0,1-3.33,3.93,3.17,3.17,0,0,1-3.77-2.65,2.78,2.78,0,0,1,.68-2.24c.24-.31.68.13.43.43a2.51,2.51,0,0,0-.23,2.29,2.42,2.42,0,0,0,1.87,1.54,3.25,3.25,0,0,0,3.72-3.16,5.1,5.1,0,0,0-2.72-4.51,6.62,6.62,0,0,0-4.74-.62,6.93,6.93,0,0,0-4,2.55,7.83,7.83,0,0,0-1.48,4.72,7.72,7.72,0,0,0,1.56,4.65,9.42,9.42,0,0,0,4,2.88,11.09,11.09,0,0,0,10.3-1.62,14.8,14.8,0,0,0,5.59-9.28,15.91,15.91,0,0,0-1.4-10.14A13.67,13.67,0,0,0,124.36,1,19.42,19.42,0,0,0,113.57.56a37.18,37.18,0,0,0-11,4.89.18.18,0,0,0-.07,0c-.29.27-.51.61-.77.9s-.62.55-.91.84a11.9,11.9,0,0,0-.79.94.61.61,0,0,1-.6.16A6.18,6.18,0,0,1,98,7.43c-.46-.32-.94-.63-1.41-.93-1-.61-1.93-1.18-2.94-1.71a32.91,32.91,0,0,0-6.2-2.56,21.64,21.64,0,0,0-12.07-.17,15.85,15.85,0,0,0-9,6.34,14.65,14.65,0,0,0-1.76,11,18,18,0,0,0,6,9.9,15,15,0,0,0,11,3.62,12.53,12.53,0,0,0,1.28-.21q.7-.16,1.41-.39a11.64,11.64,0,0,0,2.47-1.19,9.79,9.79,0,0,0,3.6-3.94c.11-.23.2-.42.24-.53a5.31,5.31,0,0,0,.22-.6,10.43,10.43,0,0,0,.35-1.36c0-.11,0-.21,0-.32s0-.25,0-.25c0-.21,0-.42,0-.63a10.87,10.87,0,0,0,0-1.4,7.63,7.63,0,0,0-.19-1.19,10.13,10.13,0,0,0-.42-1.32,8.54,8.54,0,0,0-1.28-2.07,7.76,7.76,0,0,0-8.92-2,5.65,5.65,0,0,0-3.27,4.23,3.3,3.3,0,0,0,2.52,3.82,2.59,2.59,0,0,0,2.11-.41c.61-.46,1.2.57.6,1a4,4,0,0,1-5-.56,5,5,0,0,1-.85-5.74c1.69-3.87,6.19-5.31,10.1-4.34a9,9,0,0,1,5.06,3.32,10.6,10.6,0,0,1,2,6,11.51,11.51,0,0,1-1.61,6.22,12.51,12.51,0,0,1-4.82,4.48,14.81,14.81,0,0,1-6.45,1.69,15.47,15.47,0,0,1-6.73-1.48,18.51,18.51,0,0,1-4.87-3.25c-.3-.09-.59-.16-.89-.22a11.24,11.24,0,0,0-4.4.07,14.69,14.69,0,0,0-7.8,4.81C51.44,40.4,49.31,47.4,44.49,52.53a25.27,25.27,0,0,1-28.85,5.59c-3.15-1.44-6.2-3.61-7.58-6.9a7.15,7.15,0,0,1,2.24-8.74,5,5,0,0,1,4.34-.7,4.89,4.89,0,0,1,1.68,1,8.27,8.27,0,0,0-.87-1.54,6.85,6.85,0,0,0-5-2.81,9.13,9.13,0,0,0-6.07,1.85A11,11,0,0,0,.62,45.72C-.93,50.55.63,55.77,2.92,60.11Z"/></g></g></svg>