<?xml version="1.0" encoding="utf-8"?>
<!-- Generator: Adobe Illustrator 24.3.0, SVG Export Plug-In . SVG Version: 6.00 Build 0)  -->
<svg version="1.1" id="Layer_1" xmlns="http://www.w3.org/2000/svg" xmlns:xlink="http://www.w3.org/1999/xlink" x="0px" y="0px"
	 viewBox="0 0 315 254" style="enable-background:new 0 0 315 254;" xml:space="preserve">
<style type="text/css">
	.st0{fill:url(#SVGID_1_);}
	.st1{fill:url(#SVGID_2_);}
</style>
<g>
	<g id="Layer_2_1_">
		<g id="BACKGROUND">
			
				<linearGradient id="SVGID_1_" gradientUnits="userSpaceOnUse" x1="28.0894" y1="130.2101" x2="302.4055" y2="130.2101" gradientTransform="matrix(1 0 0 -1 0 256)">
				<stop  offset="0" style="stop-color:#D59E38"/>
				<stop  offset="0.14" style="stop-color:#D7A33E"/>
				<stop  offset="0.33" style="stop-color:#DDAF50"/>
				<stop  offset="0.55" style="stop-color:#E6C46C"/>
				<stop  offset="0.79" style="stop-color:#F4E294"/>
				<stop  offset="0.9" style="stop-color:#FAF0A7"/>
				<stop  offset="1" style="stop-color:#EFCE6E"/>
			</linearGradient>
			<path class="st0" d="M127.4,125.7c-0.2,0.1-0.4,0.1-0.5,0c-0.9,3.1-4.1,5.7-7.4,4.6c-1.6-0.5-2.9-1.7-3.5-3.3
				c-0.5-1.6,0.3-3.3,1.7-4.1c1.2-0.8,2.9-0.5,3.8,0.7c0.8,0.8,0.7,2.1-0.1,2.8c-0.2,0.2-0.5,0.4-0.8,0.5c-0.5,0.2-1-0.5-0.5-0.8
				s1.2-0.7,1-1.4c-0.2-0.6-0.6-1.1-1.1-1.3c-1.5-0.8-3.4,0.7-3.5,2.3c0.1,1.3,0.8,2.6,2,3.2c1.2,0.7,2.7,0.8,4,0.3
				c2.6-1.2,4-4,3.4-6.8c-0.7-3.1-3.6-4.5-6.6-4.3c-2.9,0.2-5.7,1.6-7.6,3.8l0,0c0.1,0.4-0.5,0.5-0.6,0.2c-0.9-1.8-2.6-3.1-4.6-3.4
				c-3-0.7-8,0.3-8.3,4.1c-0.1,1,0.2,2,0.9,2.8c0.6,0.8,1.6,1.3,2.7,1.3c0.8-0.2,1.4-1,1.2-1.9c0-0.2-0.1-0.3-0.2-0.4
				c-0.2-0.4-0.6-0.6-1-0.7c-0.5-0.1-0.7,0.3-0.9,0.7c-0.2,0.3-0.5,0.3-0.8,0.2c-0.2-0.1-0.3-0.4-0.2-0.6c0.4-1.7,2.3-1.8,3.4-0.7
				c1.1,1,1.1,2.7,0.1,3.8c-0.1,0.1-0.2,0.2-0.3,0.2c-1.3,1.1-3,0.4-4.2-0.8c-1,0-2,0.3-2.9,0.8c-2,1-3.8,2.5-6,3.2
				c-1,0.3-2,0.3-2.9,0c-0.7-0.3-1.3-0.7-1.8-1.2c0.4,1.6,1,3.1,1.9,4.4c1.1,1.4,2.4,2.6,3.9,3.5c2.7,1.7,5.8,2.6,9,2.6
				c1.5,0,2.9-0.3,4.3-0.9c1.2-0.6,2.7-1.6,2.9-3c0.3-2.4-3.4-5.1-5.3-3c-0.5,0.5-0.6,1.4-0.2,2c0.6,0.8,1.9,0.8,2.8,0.7
				c0.5-0.1,0.8,0.7,0.2,0.8c-1.3,0.3-3,0.2-3.8-1c-0.6-1-0.5-2.2,0.3-3c2.1-2.5,6.5-0.3,7,2.5c0.3,1.5-0.3,3.1-1.6,4
				c0.9,1.3,2.3,2.2,3.8,2.4c1.7,0.3,3.5,0.2,5.2-0.4c1.4-0.5,3-1.6,3.3-3.2c0.3-1.9-1.1-3.7-3.1-4c-0.3,0-0.6,0-0.9,0
				c-0.7,0.1-1.4,0.7-1.2,1.4s1.1,1.2,1.9,1.3c0.5,0.1,0.4,0.9-0.1,0.9c-1.3,0-2.4-0.8-2.7-2c-0.2-1.1,0.4-2.2,1.4-2.5
				c2.6-1.1,5.4,1.2,5.8,3.8c0.1,0.4,0,0.9-0.1,1.3c1.3,0.8,2.8,0.2,4.1-0.7c2.7-1.9,4.5-4.8,7.4-6.5c1.6-1,3.3-1.5,5.2-1.6
				c0.9,0,1.7,0.2,2.4,0.6C137.1,125.8,131.5,123.2,127.4,125.7z M127.4,125.7c-0.2,0.1-0.4,0.1-0.5,0c-0.9,3.1-4.1,5.7-7.4,4.6
				c-1.6-0.5-2.9-1.7-3.5-3.3c-0.5-1.6,0.3-3.3,1.7-4.1c1.2-0.8,2.9-0.5,3.8,0.7c0.8,0.8,0.7,2.1-0.1,2.8c-0.2,0.2-0.5,0.4-0.8,0.5
				c-0.5,0.2-1-0.5-0.5-0.8s1.2-0.7,1-1.4c-0.2-0.6-0.6-1.1-1.1-1.3c-1.5-0.8-3.4,0.7-3.5,2.3c0.1,1.3,0.8,2.6,2,3.2
				c1.2,0.7,2.7,0.8,4,0.3c2.6-1.2,4-4,3.4-6.8c-0.7-3.1-3.6-4.5-6.6-4.3c-2.9,0.2-5.7,1.6-7.6,3.8l0,0c0.1,0.4-0.5,0.5-0.6,0.2
				c-0.9-1.8-2.6-3.1-4.6-3.4c-3-0.7-8,0.3-8.3,4.1c-0.1,1,0.2,2,0.9,2.8c0.6,0.8,1.6,1.3,2.7,1.3c0.8-0.2,1.4-1,1.2-1.9
				c0-0.2-0.1-0.3-0.2-0.4c-0.2-0.4-0.6-0.6-1-0.7c-0.5-0.1-0.7,0.3-0.9,0.7c-0.2,0.3-0.5,0.3-0.8,0.2c-0.2-0.1-0.3-0.4-0.2-0.6
				c0.4-1.7,2.3-1.8,3.4-0.7c1.1,1,1.1,2.7,0.1,3.8c-0.1,0.1-0.2,0.2-0.3,0.2c-1.3,1.1-3,0.4-4.2-0.8c-1,0-2,0.3-2.9,0.8
				c-2,1-3.8,2.5-6,3.2c-1,0.3-2,0.3-2.9,0c-0.7-0.3-1.3-0.7-1.8-1.2c0.4,1.6,1,3.1,1.9,4.4c1.1,1.4,2.4,2.6,3.9,3.5
				c2.7,1.7,5.8,2.6,9,2.6c1.5,0,2.9-0.3,4.3-0.9c1.2-0.6,2.7-1.6,2.9-3c0.3-2.4-3.4-5.1-5.3-3c-0.5,0.5-0.6,1.4-0.2,2
				c0.6,0.8,1.9,0.8,2.8,0.7c0.5-0.1,0.8,0.7,0.2,0.8c-1.3,0.3-3,0.2-3.8-1c-0.6-1-0.5-2.2,0.3-3c2.1-2.5,6.5-0.3,7,2.5
				c0.3,1.5-0.3,3.1-1.6,4c0.9,1.3,2.3,2.2,3.8,2.4c1.7,0.3,3.5,0.2,5.2-0.4c1.4-0.5,3-1.6,3.3-3.2c0.3-1.9-1.1-3.7-3.1-4
				c-0.3,0-0.6,0-0.9,0c-0.7,0.1-1.4,0.7-1.2,1.4s1.1,1.2,1.9,1.3c0.5,0.1,0.4,0.9-0.1,0.9c-1.3,0-2.4-0.8-2.7-2
				c-0.2-1.1,0.4-2.2,1.4-2.5c2.6-1.1,5.4,1.2,5.8,3.8c0.1,0.4,0,0.9-0.1,1.3c1.3,0.8,2.8,0.2,4.1-0.7c2.7-1.9,4.5-4.8,7.4-6.5
				c1.6-1,3.3-1.5,5.2-1.6c0.9,0,1.7,0.2,2.4,0.6C137.1,125.8,131.5,123.2,127.4,125.7z M127.4,125.7c-0.2,0.1-0.4,0.1-0.5,0
				c-0.9,3.1-4.1,5.7-7.4,4.6c-1.6-0.5-2.9-1.7-3.5-3.3c-0.5-1.6,0.3-3.3,1.7-4.1c1.2-0.8,2.9-0.5,3.8,0.7c0.8,0.8,0.7,2.1-0.1,2.8
				c-0.2,0.2-0.5,0.4-0.8,0.5c-0.5,0.2-1-0.5-0.5-0.8s1.2-0.7,1-1.4c-0.2-0.6-0.6-1.1-1.1-1.3c-1.5-0.8-3.4,0.7-3.5,2.3
				c0.1,1.3,0.8,2.6,2,3.2c1.2,0.7,2.7,0.8,4,0.3c2.6-1.2,4-4,3.4-6.8c-0.7-3.1-3.6-4.5-6.6-4.3c-2.9,0.2-5.7,1.6-7.6,3.8l0,0
				c0.1,0.4-0.5,0.5-0.6,0.2c-0.9-1.8-2.6-3.1-4.6-3.4c-3-0.7-8,0.3-8.3,4.1c-0.1,1,0.2,2,0.9,2.8c0.6,0.8,1.6,1.3,2.7,1.3
				c0.8-0.2,1.4-1,1.2-1.9c0-0.2-0.1-0.3-0.2-0.4c-0.2-0.4-0.6-0.6-1-0.7c-0.5-0.1-0.7,0.3-0.9,0.7c-0.2,0.3-0.5,0.3-0.8,0.2
				c-0.2-0.1-0.3-0.4-0.2-0.6c0.4-1.7,2.3-1.8,3.4-0.7c1.1,1,1.1,2.7,0.1,3.8c-0.1,0.1-0.2,0.2-0.3,0.2c-1.3,1.1-3,0.4-4.2-0.8
				c-1,0-2,0.3-2.9,0.8c-2,1-3.8,2.5-6,3.2c-1,0.3-2,0.3-2.9,0c-0.7-0.3-1.3-0.7-1.8-1.2c0.4,1.6,1,3.1,1.9,4.4
				c1.1,1.4,2.4,2.6,3.9,3.5c2.7,1.7,5.8,2.6,9,2.6c1.5,0,2.9-0.3,4.3-0.9c1.2-0.6,2.7-1.6,2.9-3c0.3-2.4-3.4-5.1-5.3-3
				c-0.5,0.5-0.6,1.4-0.2,2c0.6,0.8,1.9,0.8,2.8,0.7c0.5-0.1,0.8,0.7,0.2,0.8c-1.3,0.3-3,0.2-3.8-1c-0.6-1-0.5-2.2,0.3-3
				c2.1-2.5,6.5-0.3,7,2.5c0.3,1.5-0.3,3.1-1.6,4c0.9,1.3,2.3,2.2,3.8,2.4c1.7,0.3,3.5,0.2,5.2-0.4c1.4-0.5,3-1.6,3.3-3.2
				c0.3-1.9-1.1-3.7-3.1-4c-0.3,0-0.6,0-0.9,0c-0.7,0.1-1.4,0.7-1.2,1.4s1.1,1.2,1.9,1.3c0.5,0.1,0.4,0.9-0.1,0.9
				c-1.3,0-2.4-0.8-2.7-2c-0.2-1.1,0.4-2.2,1.4-2.5c2.6-1.1,5.4,1.2,5.8,3.8c0.1,0.4,0,0.9-0.1,1.3c1.3,0.8,2.8,0.2,4.1-0.7
				c2.7-1.9,4.5-4.8,7.4-6.5c1.6-1,3.3-1.5,5.2-1.6c0.9,0,1.7,0.2,2.4,0.6C137.1,125.8,131.5,123.2,127.4,125.7z M127.4,125.7
				c-0.2,0.1-0.4,0.1-0.5,0c-0.9,3.1-4.1,5.7-7.4,4.6c-1.6-0.5-2.9-1.7-3.5-3.3c-0.5-1.6,0.3-3.3,1.7-4.1c1.2-0.8,2.9-0.5,3.8,0.7
				c0.8,0.8,0.7,2.1-0.1,2.8c-0.2,0.2-0.5,0.4-0.8,0.5c-0.5,0.2-1-0.5-0.5-0.8s1.2-0.7,1-1.4c-0.2-0.6-0.6-1.1-1.1-1.3
				c-1.5-0.8-3.4,0.7-3.5,2.3c0.1,1.3,0.8,2.6,2,3.2c1.2,0.7,2.7,0.8,4,0.3c2.6-1.2,4-4,3.4-6.8c-0.7-3.1-3.6-4.5-6.6-4.3
				c-2.9,0.2-5.7,1.6-7.6,3.8l0,0c0.1,0.4-0.5,0.5-0.6,0.2c-0.9-1.8-2.6-3.1-4.6-3.4c-3-0.7-8,0.3-8.3,4.1c-0.1,1,0.2,2,0.9,2.8
				c0.6,0.8,1.6,1.3,2.7,1.3c0.8-0.2,1.4-1,1.2-1.9c0-0.2-0.1-0.3-0.2-0.4c-0.2-0.4-0.6-0.6-1-0.7c-0.5-0.1-0.7,0.3-0.9,0.7
				c-0.2,0.3-0.5,0.3-0.8,0.2c-0.2-0.1-0.3-0.4-0.2-0.6c0.4-1.7,2.3-1.8,3.4-0.7c1.1,1,1.1,2.7,0.1,3.8c-0.1,0.1-0.2,0.2-0.3,0.2
				c-1.3,1.1-3,0.4-4.2-0.8c-1,0-2,0.3-2.9,0.8c-2,1-3.8,2.5-6,3.2c-1,0.3-2,0.3-2.9,0c-0.7-0.3-1.3-0.7-1.8-1.2
				c0.4,1.6,1,3.1,1.9,4.4c1.1,1.4,2.4,2.6,3.9,3.5c2.7,1.7,5.8,2.6,9,2.6c1.5,0,2.9-0.3,4.3-0.9c1.2-0.6,2.7-1.6,2.9-3
				c0.3-2.4-3.4-5.1-5.3-3c-0.5,0.5-0.6,1.4-0.2,2c0.6,0.8,1.9,0.8,2.8,0.7c0.5-0.1,0.8,0.7,0.2,0.8c-1.3,0.3-3,0.2-3.8-1
				c-0.6-1-0.5-2.2,0.3-3c2.1-2.5,6.5-0.3,7,2.5c0.3,1.5-0.3,3.1-1.6,4c0.9,1.3,2.3,2.2,3.8,2.4c1.7,0.3,3.5,0.2,5.2-0.4
				c1.4-0.5,3-1.6,3.3-3.2c0.3-1.9-1.1-3.7-3.1-4c-0.3,0-0.6,0-0.9,0c-0.7,0.1-1.4,0.7-1.2,1.4s1.1,1.2,1.9,1.3
				c0.5,0.1,0.4,0.9-0.1,0.9c-1.3,0-2.4-0.8-2.7-2c-0.2-1.1,0.4-2.2,1.4-2.5c2.6-1.1,5.4,1.2,5.8,3.8c0.1,0.4,0,0.9-0.1,1.3
				c1.3,0.8,2.8,0.2,4.1-0.7c2.7-1.9,4.5-4.8,7.4-6.5c1.6-1,3.3-1.5,5.2-1.6c0.9,0,1.7,0.2,2.4,0.6
				C137.1,125.8,131.5,123.2,127.4,125.7z M127.4,125.7c-0.2,0.1-0.4,0.1-0.5,0c-0.9,3.1-4.1,5.7-7.4,4.6c-1.6-0.5-2.9-1.7-3.5-3.3
				c-0.5-1.6,0.3-3.3,1.7-4.1c1.2-0.8,2.9-0.5,3.8,0.7c0.8,0.8,0.7,2.1-0.1,2.8c-0.2,0.2-0.5,0.4-0.8,0.5c-0.5,0.2-1-0.5-0.5-0.8
				s1.2-0.7,1-1.4c-0.2-0.6-0.6-1.1-1.1-1.3c-1.5-0.8-3.4,0.7-3.5,2.3c0.1,1.3,0.8,2.6,2,3.2c1.2,0.7,2.7,0.8,4,0.3
				c2.6-1.2,4-4,3.4-6.8c-0.7-3.1-3.6-4.5-6.6-4.3c-2.9,0.2-5.7,1.6-7.6,3.8l0,0c0.1,0.4-0.5,0.5-0.6,0.2c-0.9-1.8-2.6-3.1-4.6-3.4
				c-3-0.7-8,0.3-8.3,4.1c-0.1,1,0.2,2,0.9,2.8c0.6,0.8,1.6,1.3,2.7,1.3c0.8-0.2,1.4-1,1.2-1.9c0-0.2-0.1-0.3-0.2-0.4
				c-0.2-0.4-0.6-0.6-1-0.7c-0.5-0.1-0.7,0.3-0.9,0.7c-0.2,0.3-0.5,0.3-0.8,0.2c-0.2-0.1-0.3-0.4-0.2-0.6c0.4-1.7,2.3-1.8,3.4-0.7
				c1.1,1,1.1,2.7,0.1,3.8c-0.1,0.1-0.2,0.2-0.3,0.2c-1.3,1.1-3,0.4-4.2-0.8c-1,0-2,0.3-2.9,0.8c-2,1-3.8,2.5-6,3.2
				c-1,0.3-2,0.3-2.9,0c-0.7-0.3-1.3-0.7-1.8-1.2c0.4,1.6,1,3.1,1.9,4.4c1.1,1.4,2.4,2.6,3.9,3.5c2.7,1.7,5.8,2.6,9,2.6
				c1.5,0,2.9-0.3,4.3-0.9c1.2-0.6,2.7-1.6,2.9-3c0.3-2.4-3.4-5.1-5.3-3c-0.5,0.5-0.6,1.4-0.2,2c0.6,0.8,1.9,0.8,2.8,0.7
				c0.5-0.1,0.8,0.7,0.2,0.8c-1.3,0.3-3,0.2-3.8-1c-0.6-1-0.5-2.2,0.3-3c2.1-2.5,6.5-0.3,7,2.5c0.3,1.5-0.3,3.1-1.6,4
				c0.9,1.3,2.3,2.2,3.8,2.4c1.7,0.3,3.5,0.2,5.2-0.4c1.4-0.5,3-1.6,3.3-3.2c0.3-1.9-1.1-3.7-3.1-4c-0.3,0-0.6,0-0.9,0
				c-0.7,0.1-1.4,0.7-1.2,1.4s1.1,1.2,1.9,1.3c0.5,0.1,0.4,0.9-0.1,0.9c-1.3,0-2.4-0.8-2.7-2c-0.2-1.1,0.4-2.2,1.4-2.5
				c2.6-1.1,5.4,1.2,5.8,3.8c0.1,0.4,0,0.9-0.1,1.3c1.3,0.8,2.8,0.2,4.1-0.7c2.7-1.9,4.5-4.8,7.4-6.5c1.6-1,3.3-1.5,5.2-1.6
				c0.9,0,1.7,0.2,2.4,0.6C137.1,125.8,131.5,123.2,127.4,125.7z M127.4,125.7c-0.2,0.1-0.4,0.1-0.5,0c-0.9,3.1-4.1,5.7-7.4,4.6
				c-1.6-0.5-2.9-1.7-3.5-3.3c-0.5-1.6,0.3-3.3,1.7-4.1c1.2-0.8,2.9-0.5,3.8,0.7c0.8,0.8,0.7,2.1-0.1,2.8c-0.2,0.2-0.5,0.4-0.8,0.5
				c-0.5,0.2-1-0.5-0.5-0.8s1.2-0.7,1-1.4c-0.2-0.6-0.6-1.1-1.1-1.3c-1.5-0.8-3.4,0.7-3.5,2.3c0.1,1.3,0.8,2.6,2,3.2
				c1.2,0.7,2.7,0.8,4,0.3c2.6-1.2,4-4,3.4-6.8c-0.7-3.1-3.6-4.5-6.6-4.3c-2.9,0.2-5.7,1.6-7.6,3.8l0,0c0.1,0.4-0.5,0.5-0.6,0.2
				c-0.9-1.8-2.6-3.1-4.6-3.4c-3-0.7-8,0.3-8.3,4.1c-0.1,1,0.2,2,0.9,2.8c0.6,0.8,1.6,1.3,2.7,1.3c0.8-0.2,1.4-1,1.2-1.9
				c0-0.2-0.1-0.3-0.2-0.4c-0.2-0.4-0.6-0.6-1-0.7c-0.5-0.1-0.7,0.3-0.9,0.7c-0.2,0.3-0.5,0.3-0.8,0.2c-0.2-0.1-0.3-0.4-0.2-0.6
				c0.4-1.7,2.3-1.8,3.4-0.7c1.1,1,1.1,2.7,0.1,3.8c-0.1,0.1-0.2,0.2-0.3,0.2c-1.3,1.1-3,0.4-4.2-0.8c-1,0-2,0.3-2.9,0.8
				c-2,1-3.8,2.5-6,3.2c-1,0.3-2,0.3-2.9,0c-0.7-0.3-1.3-0.7-1.8-1.2c0.4,1.6,1,3.1,1.9,4.4c1.1,1.4,2.4,2.6,3.9,3.5
				c2.7,1.7,5.8,2.6,9,2.6c1.5,0,2.9-0.3,4.3-0.9c1.2-0.6,2.7-1.6,2.9-3c0.3-2.4-3.4-5.1-5.3-3c-0.5,0.5-0.6,1.4-0.2,2
				c0.6,0.8,1.9,0.8,2.8,0.7c0.5-0.1,0.8,0.7,0.2,0.8c-1.3,0.3-3,0.2-3.8-1c-0.6-1-0.5-2.2,0.3-3c2.1-2.5,6.5-0.3,7,2.5
				c0.3,1.5-0.3,3.1-1.6,4c0.9,1.3,2.3,2.2,3.8,2.4c1.7,0.3,3.5,0.2,5.2-0.4c1.4-0.5,3-1.6,3.3-3.2c0.3-1.9-1.1-3.7-3.1-4
				c-0.3,0-0.6,0-0.9,0c-0.7,0.1-1.4,0.7-1.2,1.4s1.1,1.2,1.9,1.3c0.5,0.1,0.4,0.9-0.1,0.9c-1.3,0-2.4-0.8-2.7-2
				c-0.2-1.1,0.4-2.2,1.4-2.5c2.6-1.1,5.4,1.2,5.8,3.8c0.1,0.4,0,0.9-0.1,1.3c1.3,0.8,2.8,0.2,4.1-0.7c2.7-1.9,4.5-4.8,7.4-6.5
				c1.6-1,3.3-1.5,5.2-1.6c0.9,0,1.7,0.2,2.4,0.6C137.1,125.8,131.5,123.2,127.4,125.7z M296.1,56.5c-3.9-23.9-12.4-18.2-20-35
				c-1.1,6-3.9,11.4-3,17.5c-4.5-3.9-1.2-10.3-3.9-14.7c-1.3,3.1-4,5.1-6,7.8c-4.6,8-0.5,19.1,8.6,21.3c14.2,3.1,27.1,4.1,24.2,22.7
				c-3.9,23.2-33.4,28.3-53.1,25.6c-15.8-1.2-28.9-13.5-45.1-11.6c-17,3.1-32,13.6-49.6,14.2c-9.5,0.3-17.8-3-26-7.6
				c-2.9-1.6-5.8-3.3-8-5.7c-2.5-2.7-4.9-5.6-7.1-8.5c2.3,2,4.8,4.1,7.7,5c1.6,0.4,3.2,0.7,4.9,0.7c1.6,0.1,3.2,0.1,4.8,0
				c3.5-0.3,6.9-1.4,10.3-2.1c1.8-0.4,3.5-0.6,5.3-0.6c1.9,0,3.6,0.6,5.4,0.8c8.8,1,5.4,5.9,17.2,7.1c3.6,0.5,5.6-3.5,8.4-5.2
				c2.9-2.5,0.6-6.7,3.1-9.5c7.3-11-1-16.8-10.5-21.3c-4.8-4-8.8-8.7-11.9-14.1c1.1-0.5,2.3-0.8,3.4-1c-0.1-1-0.2-2-0.5-3
				c-0.6-2.6-2.2-4.9-4.5-6.2c0,0,0-0.1,0-0.2c0,0,0.1,0,0.1,0c2.4,1.2,4.1,3.3,4.8,5.9c0.3,1.1,0.5,2.3,0.6,3.4
				c0.8-0.1,1.5-0.2,2.3-0.3c0-0.7,0-1.4,0-2.1c-0.2-2.5-1.3-4.9-3.1-6.6c0,0,0-0.1,0-0.1c1.9,1.6,3.1,3.8,3.6,6.3
				c0.1,0.8,0.2,1.7,0.3,2.5c1.3,0,2.6,0,3.9,0.2c0-0.4,0-0.8,0-1.2c-0.1-2.8-1.3-5.5-3.3-7.5c-0.1-0.1,0-0.2,0.1-0.1
				c2.1,1.8,3.5,4.4,3.8,7.2c0.1,0.6,0.1,1.2,0.1,1.8c1.4,0.2,2.7,0.4,4.1,0.6c0.2-2.9-0.8-5.8-2.7-8c-0.1-0.2,0.1-0.4,0.2-0.2
				c1.8,1.9,2.9,4.4,3.1,7c0,0.5,0.1,0.9,0.1,1.3c1.3,0.2,2.5,0.4,3.8,0.6c0.3-2.4-0.1-4.8-1.3-6.9c-0.1-0.1,0.1-0.2,0.1-0.1
				c1.3,2,1.9,4.3,1.9,6.6c0,0.2,0,0.3,0,0.5c0.6,0.1,1.1,0.2,1.7,0.2c0.8,0.1,1.6,0.1,2.4,0.1c0.2-1.6-0.1-3.2-0.9-4.6
				c-0.1-0.2,0.2-0.3,0.3-0.2c0.8,1.5,1.2,3.1,1.2,4.8c1.3,0,2.6,0,3.9-0.2c-0.1-1.1-0.4-2.3-0.9-3.3c-0.1-0.2,0.2-0.4,0.3-0.2
				c0.6,1.1,1,2.2,1.2,3.4c1.2-0.1,2.4-0.3,3.6-0.5c-0.1-0.6-0.3-1.2-0.6-1.8c0-0.1,0-0.2,0.1-0.3c0.1,0,0.2,0,0.2,0.1
				c0.3,0.6,0.6,1.2,0.8,1.9c1.1-0.2,2.2-0.4,3.3-0.7c-0.2-0.9-0.4-1.9-0.8-2.7c-0.2-0.4,0.4-0.7,0.6-0.3c0.5,0.9,0.8,1.9,1,2.9
				c0.9-0.2,1.8-0.4,2.6-0.7c0-0.5-0.1-1-0.2-1.5c-0.1-0.4,0.5-0.5,0.6-0.2c0.1,0.5,0.2,1,0.3,1.5c1.3-0.4,2.7-0.8,4-1.2
				c0-0.6-0.1-1.3-0.2-1.9c-0.1-0.5,0.6-0.7,0.7-0.2c0.1,0.6,0.2,1.2,0.2,1.8c3.3-1,6.6-2.2,9.8-3.3c-12.2-0.4-25.3,2.6-37-1.9
				c-8.3-5.1-18.1-7.1-27.1-2.5c-0.9,0.5-1.7-0.6-2.6-1c0.9-0.6,1.9-1.2,2.9-1.7c-0.3-0.9-0.4-1.8-0.7-2.7c-0.4-1-0.9-2-1.4-3
				c-1.1-2-2.7-3.5-4.7-4.6c-0.1,0,0-0.2,0.1-0.2c2.1,0.9,3.9,2.4,5.2,4.3c0.7,1,1.3,2.1,1.8,3.2c0.4,0.8,0.6,1.6,0.8,2.5
				c1.3-0.6,2.6-1.1,4-1.5c-0.1-1.7-0.4-3.3-1-4.9c-0.8-2-2.3-3.7-4.2-4.8c-0.1,0,0-0.1,0-0.1c3.5,1.9,5.8,5.5,6.1,9.6
				c1.4-0.3,2.8-0.6,4.2-0.8c0.3-1.9-0.3-3.9-1.5-5.4c-1.3-1.8-3.1-3.1-5.2-4c-0.1,0,0-0.1,0-0.1c3.8,1.4,8.2,4.9,7.6,9.4
				c1.4-0.2,2.9-0.2,4.4-0.3c0-1.5-0.3-3-1-4.3c-1.2-2.1-2.8-3.9-4.9-5.3c0,0,0-0.1,0-0.1c0,0,0.1,0,0.1,0l0,0
				c2.2,1.2,4.1,3,5.4,5.2c0.8,1.4,1.2,2.9,1.2,4.5c1.2,0,2.4,0,3.7,0c0.1-1,0-2-0.2-3c-0.4-1.8-1.5-3.4-3-4.4c-0.1,0,0-0.2,0.1-0.1
				c1.6,1,2.8,2.5,3.4,4.2c0.4,1.1,0.5,2.2,0.5,3.4c1.4,0,2.8,0.1,4.2,0.2c0-0.8-0.1-1.5-0.2-2.3c-0.3-1.6-1.1-3.2-2.3-4.3
				c-0.1-0.1,0-0.2,0.1-0.1c1.4,1,2.4,2.5,2.8,4.2c0.2,0.8,0.4,1.7,0.4,2.6l4,0.2c0-0.7-0.1-1.3-0.3-2c-0.4-1.7-1.4-3.2-2.7-4.3
				c-0.1-0.1,0-0.2,0.1-0.1c1.4,1.1,2.5,2.6,3.1,4.3c0.2,0.7,0.4,1.5,0.5,2.2c1.3,0,2.6,0.1,3.9,0.1c0-0.7-0.1-1.3-0.3-2
				c-0.4-1.7-1.3-3.2-2.6-4.3c-0.1-0.1,0-0.2,0.1-0.1c1.4,1.1,2.4,2.6,3,4.3c0.2,0.7,0.4,1.4,0.5,2.1c1.2,0,2.4,0,3.7-0.1
				c0-2.1-0.9-4.1-2.5-5.5c-0.1-0.1,0-0.3,0.2-0.2c1.8,1.4,2.9,3.5,3.1,5.7c1.3-0.1,2.5-0.2,3.8-0.4c0-0.6-0.1-1.2-0.3-1.7
				c-0.3-1.4-1.1-2.6-2.3-3.5c-0.2-0.1,0-0.4,0.2-0.3c1.2,0.8,2.2,2,2.7,3.5c0.2,0.6,0.4,1.3,0.5,1.9c1.1-0.1,2.2-0.4,3.4-0.6
				c-0.1-1.6-0.5-3.2-1.4-4.6c-0.1-0.2,0.2-0.4,0.3-0.2c0.9,1.4,1.5,3,1.7,4.6c1.4-0.3,2.7-0.7,4.1-1.1c0-0.1,0-0.2,0-0.4
				c-0.2-1.2-0.7-2.4-1.4-3.4c-0.1-0.2,0.2-0.4,0.4-0.2c0.8,1,1.4,2.2,1.7,3.5c0,0.1,0,0.1,0,0.2c1.3-0.5,2.6-1,3.8-1.6
				c-0.4-1.1-1.1-2-2-2.6c-0.1-0.1-0.1-0.2,0-0.3c0,0,0.1-0.1,0.2,0c1,0.6,1.8,1.5,2.4,2.6c0.8-0.4,1.5-0.8,2.3-1.3
				c-0.3-0.8-0.8-1.6-1.3-2.3c-0.1-0.2,0.2-0.4,0.4-0.2c0.5,0.7,1,1.5,1.4,2.3c3.2-1.9,6.2-4.3,8.8-6.9c-14.4,5.6-30.1,6.6-45.1,2.9
				c-10-1.4-19.7-6.5-29.9-3.4c-8.1,1.2-15,7.2-19.5,13.8c-1.4,1.7-4.3,0.1-6.2,0.8c-4,0.2-7.3-2.6-11.4-2.1c-9.2-0.5-17,5-25.9,5.8
				c-8.2,0.5-10.7,1.8-1.4,4.9c9.3,4.6,19.3,8.2,29.8,7.1c3.3-0.9,6.5-2.2,9.4-4.1c0.3-0.2,0.6,0.3,0.3,0.5c-2,1.6-4.2,2.8-6.7,3.6
				c-1.3,0.4-2.7,0.7-4.1,0.8c-6,2.7-12.5,0.3-18.3-1.3c-0.6-0.2-2.7,1.4-3.2,1.8C72,50,64.6,56.9,59,65.1
				c-5.5,8.1-9.4,17.2-11.5,26.8c-2.2,9.7-2.7,19.7-1.5,29.5c0.6,4.9,1.6,9.8,3,14.5c0.7,2.4,1.5,4.7,2.5,7s2.3,4.6,2.9,6.9
				c0,0.1,0,0.3,0,0.4c0,0.2-0.1,0.3-0.3,0.4c-3.2,3.5-6.7,6.8-10.5,9.7c-3.7,3.1-7.6,6.1-11.4,9.2c-1.7,1.4-3.6,2.6-4.1,5
				c-0.8,14,20.9,13.1,21.1,27.4c0,1.6,2,1.5,2.8,0.6s1.5-1.5,2.3-2.3c-0.3-0.4-0.7-0.8-1-1.3c-1.5-2.2-2.6-4.6-3.5-7.1
				c-0.1-0.1,0.2-0.2,0.2-0.1c1.2,2.9,2.8,5.5,4.9,7.9c2-2,3.5-4.3,4.6-6.9c0.5-1.5,0.5-3.2,0.9-4.7s0.7-4.2-1.4-5
				c-0.8-0.2-1.6-0.3-2.4-0.4c-1.5-0.4-2.4-1.7-3.3-3c-0.6-0.9-1.1-1.8-1.5-2.8c-1.3-3.8,2.1-5.5,4.9-6.8c2.4-1.1,4.9-1.9,7.3-3.1
				c0.1,0,0.1-0.1,0.2-0.1c0-0.1,0-0.2,0-0.3c-1-2.4-1.9-4.9-2.7-7.5c0.6,1.2,1.3,2.4,2.2,3.4c0.8,1.2,1.6,2.3,2.5,3.4
				c1.6,2,3.5,3.9,5.5,5.6c4.1,3.6,8.5,6.7,13.3,9.4c0.7,0.3,1.1,1.1,1.1,1.9c0.2,15.2-0.3,31.2-7.8,44.8c-0.4,2.2-8.9,8.9-8.7,11.5
				h8.8c1.2-3.9,3-7.6,5.2-11c0-0.1,0.2,0,0.1,0.1c-1.8,3-3.3,6.3-4.3,9.7c-0.1,0.4-0.2,0.8-0.3,1.2h21.8c-0.4-2.4-2.4-7.4-2.8-17.1
				c-0.7-12.1,5.5-22,10.8-32.3c7.7-14.1,14.8-28.8,13.3-45.4h0.2c4.6,16.4-3.7,31.8-11.1,45.9c23.9,3.2,43.4-10,65-17.1
				c0,0.1,0.1,0.2,0.1,0.3c-4.1,2.3-8.4,4.1-12.6,6.1c-0.5,0.2-0.6,0.5-0.4,1c4.5,9.8,17.9,8.4,25.7,14.6c5,3.5,4.1,4,0.7,8.2
				c-0.5,0.8-1,1.7-1.4,2.6c-0.9,1.5-1.8,3-2.7,4.4c-1.1,1.9-2.3,3.7-3.4,5.6c-1,1.7-1.8,3.5-2.8,5.3c-1.8,3.3-3.3,6.7-4.5,10.2
				c2,0,3.9,0.1,5.8,0.6c0.5-2.2,1.7-4.2,3.3-5.8c-0.7,2.1-2.2,4-2.2,6.2c1-0.2,2-0.2,3-0.1c2.9,0.2,5.9,0.2,8.8,0.1
				c0.5,0,1-0.1,1.4-0.3c0.6-0.4,0.8-1.2,0.7-1.9c-0.1-0.7-0.3-1.4-0.5-2c-0.5-1.9-0.3-3.9,0.6-5.7c0.8-1.8,1.2-3.7,1.9-5.5
				c1.1-2.7,2.6-5.2,4.5-7.5c2.7-3.2,6.2-5.2,9.3-8c2.3-2.2,3.9-5,4.5-8.1c1-3.2-7.3-4.3-9.5-6.1c-15.9-8.5-32.4-24.6-31.4-43.8h0.3
				c1.6,19.8,18,35.6,35.4,43.3c9.9,5.6,24,6.3,29.1,18c3.4,7.4,4.8,15.3,5.8,23.3c0.7,3.3-7.5,8.2-9.9,10.4
				c-0.2,0.1-0.4,0.3-0.5,0.5h7.9c0.4-0.6,0.8-1.3,1.3-1.9c0.5-0.6,0.9-1.2,1.4-1.8c0.3-0.3,0.5-0.5,0.8-0.8l0.3-0.3
				c-0.4,0.4-0.7,0.9-1,1.3c-0.4,0.6-0.9,1.2-1.3,1.9s-0.6,1-0.9,1.5h12.9c0-0.1,0.1-0.2,0.1-0.2c4.7-10.3,1.6-22.9,1-34
				c6.1-32.2-0.8-12.3-12.1-36.3c-8-19.3,8.5-29-8-55.4c18.4-2.6,42.1-2.3,55.8-16.5C304.5,84.2,305.2,70.2,296.1,56.5z M106.1,29.6
				c0.3,0,0.5,0.3,0.5,0.5c0,0,0,0,0,0c0,0.3-0.2,0.5-0.5,0.5l0,0c-0.3,0-0.5-0.3-0.5-0.5C105.6,29.8,105.8,29.6,106.1,29.6
				L106.1,29.6z M109.6,36c-0.5,0.7-1.2,1.3-1.9,1.7c-0.8,0.6-1.7,1-2.6,1.3c-0.5,0.1-1.4,0.3-1.7-0.3s0.1-1.1,0.4-1.6
				c-2.3,0.4-4.5,1.7-6.9,1.1c-0.2-0.1-0.3-0.3-0.3-0.5c0,0,0-0.1,0-0.1c0.5-0.7,1.2-1.3,2-1.6c-2.1,0.2-4.2,0.3-6.3,0.2
				c-0.3,0-0.6-0.5-0.3-0.8c2.1-1.9,5.1-2.4,7.8-2.4c2,0,4,0.3,5.9,0.8c-0.6-0.3-1.1-0.7-1.7-0.9c-1.6-0.8-3.4-1.2-5.3-1.2
				c-1.7,0.1-3.4,0.4-5,0.8c-3.2,0.8-6.3,1.8-9.7,0.9c0,0-0.1,0-0.1-0.1c0,0,0-0.1,0.1-0.1c0,0,0,0,0,0c2,0.3,4.1,0.1,6-0.5
				c3.3-0.9,6.6-2.4,10.1-2.1c1.7,0.2,3.4,0.7,5,1.5c0.8,0.4,1.6,0.9,2.4,1.4c0.8,0.4,1.5,0.9,2.3,1.5c0.2,0.2,0.2,0.6,0,0.8
				C109.8,35.9,109.7,36,109.6,36z M110.4,31.4c-0.1,0.2-0.3,0.3-0.5,0.3c-0.1,0-0.1,0-0.2,0c-0.3-0.1-0.4-0.4-0.3-0.7c0,0,0,0,0,0
				c0.1-0.3,0.4-0.4,0.7-0.3C110.4,30.8,110.5,31.1,110.4,31.4L110.4,31.4z M50.1,188.1c-0.9-2.7-2.7-4.9-3.9-7.4
				c-0.7-1.3-1.1-2.6-1.3-4c-0.2-1.4-0.2-2.9-0.1-4.4 M44.8,172.4c-0.2,3,0.6,6,2.3,8.6c1.5,2.2,3.3,4.3,3.8,7
				c0,0.2-0.2,0.4-0.4,0.4c-0.1,0-0.3-0.1-0.3-0.2L44.8,172.4z M53.9,183.5c0.4,0.4-0.2,1-0.7,0.6c-2.2-1.9-4.8-3.8-6-6.5
				c-1.4-3.1-0.1-6.5,1.4-9.3c0.1-0.1,0.3,0,0.2,0.1c-1.4,2.9-2.5,6.3-0.7,9.3C49.6,180,52,181.6,53.9,183.5z M188.9,230.3
				L188.9,230.3c-0.3,0-0.5-0.2-0.5-0.5c0-0.3,0.2-0.5,0.5-0.5c0.3,0,0.5,0.2,0.5,0.5C189.4,230,189.2,230.2,188.9,230.3
				L188.9,230.3z M189.1,226.3L189.1,226.3c-0.3,0-0.5-0.3-0.5-0.6c0-0.3,0.3-0.5,0.6-0.4c0.3,0,0.5,0.3,0.4,0.5c0,0,0,0,0,0
				C189.6,226.1,189.4,226.2,189.1,226.3L189.1,226.3z M190.4,222L190.4,222c-0.1,0.2-0.3,0.4-0.5,0.4h-0.1
				c-0.3-0.1-0.4-0.4-0.3-0.6c0.1-0.3,0.4-0.4,0.6-0.3C190.3,221.4,190.5,221.7,190.4,222L190.4,222z M191.7,218.2
				c-0.1,0.2-0.3,0.3-0.5,0.3c-0.1,0-0.1,0-0.2,0c-0.3-0.1-0.4-0.4-0.3-0.6c0,0,0,0,0,0c0.1-0.3,0.4-0.4,0.6-0.3c0,0,0,0,0,0
				C191.7,217.7,191.8,218,191.7,218.2L191.7,218.2z M193.4,214.7c-0.1,0.2-0.3,0.3-0.4,0.3c-0.1,0-0.2,0-0.2-0.1
				c-0.3-0.1-0.4-0.4-0.3-0.7c0.1-0.3,0.4-0.4,0.7-0.3c0,0,0.1,0,0.1,0.1C193.4,214.1,193.5,214.4,193.4,214.7
				C193.4,214.7,193.4,214.7,193.4,214.7L193.4,214.7z M197.8,208.1c-0.1,0.1-0.2,0.2-0.4,0.2c-0.1,0-0.2,0-0.3-0.1
				c-0.2-0.2-0.2-0.5-0.1-0.7c0.2-0.2,0.5-0.2,0.7-0.1C197.9,207.6,198,207.9,197.8,208.1z M205,191.2c0.8,0,1.5,0.7,1.5,1.5
				s-0.7,1.5-1.5,1.5s-1.5-0.7-1.5-1.5S204.2,191.2,205,191.2z M202.6,201.7c0.2-0.2,0.5-0.2,0.7,0c0.2,0.2,0.2,0.5,0,0.7l0,0
				c-0.1,0.1-0.2,0.1-0.3,0.1c-0.1,0-0.3-0.1-0.4-0.2C202.4,202.2,202.4,201.9,202.6,201.7L202.6,201.7z M200.4,204.5
				c0.2,0.2,0.2,0.5,0,0.7c-0.1,0.1-0.2,0.1-0.3,0.1c-0.1,0-0.2-0.1-0.3-0.1c-0.2-0.2-0.2-0.5,0-0.7
				C199.9,204.3,200.2,204.3,200.4,204.5L200.4,204.5z M196.8,191c0.3-0.8,1.1-1.2,1.9-0.9c0.8,0.3,1.2,1.1,0.9,1.9
				c-0.2,0.6-0.8,1-1.4,1c-0.2,0-0.3,0-0.5-0.1C196.9,192.6,196.5,191.8,196.8,191C196.8,191,196.8,191,196.8,191z M194.6,210.8
				c0.1-0.2,0.5-0.3,0.7-0.2c0.2,0.1,0.3,0.5,0.2,0.7c0,0,0,0,0,0c-0.1,0.1-0.2,0.2-0.4,0.2c-0.1,0-0.2,0-0.3-0.1
				C194.5,211.3,194.5,211,194.6,210.8C194.6,210.8,194.6,210.8,194.6,210.8L194.6,210.8z M190.8,187.4c0.5-0.7,1.4-0.9,2.1-0.4
				s0.9,1.4,0.4,2.1c-0.3,0.4-0.7,0.7-1.2,0.6c-0.3,0-0.6-0.1-0.9-0.3C190.5,189,190.3,188.1,190.8,187.4
				C190.7,187.4,190.7,187.4,190.8,187.4L190.8,187.4z M185.6,182.7c0.6-0.6,1.5-0.6,2.1,0c0.6,0.6,0.6,1.5,0,2.1
				c-0.3,0.3-0.7,0.4-1.1,0.4c-0.4,0-0.8-0.2-1.1-0.4C185,184.2,185,183.2,185.6,182.7C185.6,182.7,185.6,182.7,185.6,182.7
				L185.6,182.7z M181.1,177.3c0.6-0.5,1.6-0.4,2.1,0.2c0.5,0.6,0.4,1.6-0.2,2.1c-0.6,0.5-1.6,0.4-2.1-0.2
				C180.4,178.8,180.5,177.8,181.1,177.3C181.1,177.3,181.1,177.3,181.1,177.3L181.1,177.3z M236.9,125.6c-0.1,0.8-0.7,1.4-1.5,1.4
				h-0.1c-0.8-0.1-1.4-0.8-1.4-1.6c0,0,0,0,0,0c0.1-0.8,0.8-1.4,1.6-1.4C236.3,124.1,236.9,124.8,236.9,125.6L236.9,125.6z
				 M234.8,150.1c-0.2-0.5-0.6-1-1.1-1.3c-0.7-0.3-1.5-0.3-2.3-0.1c-1.4,0.3-2.8,0.9-4.2,1.3c-0.1,0-0.1,0-0.1-0.1s0-0.1,0.1-0.1
				c1.7-0.6,3.3-1.5,5.1-1.7c1.3-0.3,2.6,0.4,3.3,1.5c0.6,1.3,1,2.7,0.9,4.1c-0.1,2.9-0.4,5.9-0.9,8.8c-0.1,0.7-1.3,0.8-1.2,0
				c0.1-1.4,0.4-2.7,0.6-4c0.2-1.5,0.4-3,0.4-4.5C235.5,152.7,235.3,151.3,234.8,150.1L234.8,150.1z M232.2,152.8
				c-0.2-0.7-0.6-0.8-1.2-0.8c-0.8,0-1.5,0.2-2.2,0.4c-1.3,0.4-2.6,1-3.8,1.7c-0.2,0.1-0.3-0.1-0.1-0.3c1.1-0.8,2.3-1.4,3.6-1.8
				c1.1-0.5,2.3-0.8,3.5-0.7c1.3,0.2,1.5,1.8,1.7,2.9c0.6,3.9-1,7.5-2.7,11c-0.2,0.4-0.9,0.1-0.7-0.3
				C231.4,161.1,233.4,157,232.2,152.8L232.2,152.8z M224.7,163.3c-0.5,0.2-1.1,0.6-1.5,1c0.6-0.6,1-1.3,1.3-2
				c0.1-0.2,0.1-0.4-0.1-0.5c-0.1,0-0.2,0-0.3,0.1c-0.9,0.7-1.7,1.5-2.3,2.5c0-0.9,0.2-1.8,0.7-2.6c0.4-0.6,0.6-1.3,1-1.9
				c0.6-0.9,1.4-1.6,2.4-2c0.4-0.2,0.9-0.3,1.4-0.5c0.2-0.1,1.4-0.4,1.5-0.6c-0.1,0.3-0.3,0.7-0.4,1c0.3-0.1,0.7-0.3,1-0.5
				c-0.4,2-0.4,3.9-1.5,5.7c-0.6,1-1.5,1.7-2.6,2.2c-0.7,0.3-1.4,0.4-2.1,0.1c0.9-0.1,1.8-0.6,2.3-1.3
				C225.9,163.3,225.3,163,224.7,163.3L224.7,163.3z M229.4,137.7c0.4-0.7,1.4-0.9,2.1-0.5c0.7,0.4,0.9,1.4,0.5,2.1
				c-0.3,0.4-0.8,0.7-1.3,0.7c-0.3,0-0.6-0.1-0.8-0.2C229.2,139.4,229,138.4,229.4,137.7C229.4,137.7,229.4,137.7,229.4,137.7
				L229.4,137.7z M232.4,131.7c0.3-0.8,1.1-1.2,1.9-0.9c0.8,0.3,1.2,1.1,0.9,1.9c-0.2,0.6-0.8,1-1.4,1c-0.2,0-0.4,0-0.5-0.1
				C232.6,133.4,232.2,132.5,232.4,131.7L232.4,131.7z M234.4,117c0.8-0.2,1.6,0.3,1.8,1.1c0.2,0.8-0.3,1.6-1.1,1.8
				c-0.1,0-0.2,0-0.4,0c-0.8,0.1-1.6-0.5-1.7-1.3S233.6,117.1,234.4,117L234.4,117z M231.1,110.9c0.7-0.5,1.6-0.3,2.1,0.4
				c0.5,0.7,0.3,1.6-0.4,2.1l0,0c-0.7,0.5-1.6,0.3-2.1-0.4C230.2,112.3,230.4,111.4,231.1,110.9z M225.6,106.6
				c0.4-0.7,1.3-1,2.1-0.5c0.7,0.4,1,1.3,0.5,2.1c-0.3,0.5-0.8,0.7-1.3,0.7c-0.3,0-0.5-0.1-0.8-0.2
				C225.4,108.3,225.2,107.4,225.6,106.6L225.6,106.6z M221.7,111c1.7,0.7,3.3,1.6,4.7,2.7c2.5,1.9,4.9,5.1,3,8.3
				c-0.9,1.3-2.2,2.4-3.8,3c-1.5,0.7-3.1,1.3-4.7,1.8c0,0-0.1,0-0.1-0.1c0,0,0-0.1,0.1-0.1c1.7-0.6,3.3-1.4,4.8-2.3
				c1.4-0.7,2.4-1.8,2.9-3.2c0.4-1.3,0.1-2.8-0.7-3.9c-1.6-2.4-4.3-3.9-6.8-5.3C220.8,111.6,221.2,110.7,221.7,111z M219.7,163.5
				c-0.3-0.6-0.8-1.2-1.3-1.7c-0.5-0.4-1.1-0.3-0.9,0.5c0.3,0.9,1,1.6,1.8,1.9c-0.7,0-1.5-0.3-2-0.8c-0.9-0.7-1.5-1.7-1.8-2.9
				c-0.5-2,0.1-3.9,0.3-5.9c0.3,0.3,0.5,0.5,0.8,0.7c0-0.4,0-0.7-0.1-1.1c0,0.2,1,0.9,1.2,1c0.4,0.3,0.8,0.6,1.1,0.9
				c0.8,0.7,1.4,1.6,1.6,2.6c0.1,0.7,0.2,1.4,0.3,2.1c0.2,0.9,0.2,1.8-0.1,2.7c-0.2-1.1-0.7-2.2-1.4-3.1c-0.1-0.1-0.1-0.2-0.2-0.2
				s-0.3,0.2-0.3,0.4C219,161.8,219.3,162.7,219.7,163.5L219.7,163.5z M208.1,120c-0.9-0.3-1.9-0.5-2.9-0.5c1.3,0,2.6-0.3,3.8-0.9
				c0.3-0.1,0.5-0.4,0.4-0.6c-0.1-0.1-0.2-0.2-0.4-0.2c-1.7-0.2-3.4-0.1-5,0.4c0.9-1,2.1-1.7,3.4-2c1-0.3,2-0.8,3-1.1
				c1.5-0.4,3.1-0.3,4.5,0.3c0.7,0.2,1.3,0.6,2,0.8c0.3,0.1,1.9,1,2.2,0.8l-1.5,0.7c0.5,0.2,1,0.4,1.5,0.5c-2.4,1.7-4.4,3.8-7.4,4.6
				c-1.7,0.4-3.4,0.3-5-0.3c-1-0.3-1.9-1-2.4-2c1.1,0.8,2.4,1.2,3.8,1C209.4,121.3,209.1,120.4,208.1,120z M205.2,111.6
				c-0.2-0.2-0.5,0-0.7,0.2c-0.9,1-1.6,2.2-1.9,3.5c0.3-1,0.4-2,0.3-3.1c-0.1-1-0.9-1.5-1.4-0.3c-0.5,1.2-0.5,2.7,0,3.9
				c-0.8-0.7-1.3-1.8-1.3-2.9c-0.2-1.7,0.2-3.4,1-4.9c1.5-2.7,4.1-4.1,6.3-6c0,0.5,0,1.1,0.1,1.6l1.1-1.3c-0.2,0.2,0.2,2,0.2,2.3
				c0.1,0.7,0.2,1.4,0.3,2.1c0.1,1.5-0.2,3.1-0.9,4.4c-0.5,0.9-1.2,1.7-1.8,2.6c-0.7,1.2-1.6,2.1-2.8,2.7c0.9-1.4,1.5-3.1,1.7-4.7
				C205.3,111.8,205.3,111.7,205.2,111.6L205.2,111.6z M189.4,159.1c-0.1-0.3-0.4-0.4-0.7-0.5c-0.6-0.2-1.1-0.5-1.6-0.9
				c-1.1-1.1-0.8-3-0.4-4.3c0,0,0-0.1,0.1-0.1c0,0,0.1,0,0.1,0.1c0,0,0,0,0,0.1c-0.4,1.5-0.4,3.6,1.3,4.2c1.1,0.4,2.1,0.5,2.3,1.8
				c0.1,0.6-0.1,1.3,0,1.9c0.1,0.7,0.4,1.3,0.8,1.8c0.9,1,2.2,1.5,3.5,1.4c0.7,0,0.7,1.1,0,1.1c-2.3,0.2-4.5-1.2-5.2-3.4
				c-0.2-0.7-0.2-1.4-0.1-2.1C189.5,159.8,189.5,159.4,189.4,159.1L189.4,159.1z M189.3,129.9c-0.4,0.1-2.1,0.1-2.3,0.3l1-1.3
				l-1.6,0.3c1.3-2.6,2-5.5,4.3-7.5c1.2-1.2,2.8-1.9,4.5-2.1c1.1-0.2,2.2,0,3.1,0.6c-1.4-0.2-2.7,0.2-3.8,1
				c-1.1,0.8-0.4,1.4,0.6,1.3c0.9-0.1,1.8-0.4,2.6-0.8c-1.1,0.6-2,1.5-2.7,2.5c-0.1,0.2-0.3,0.6,0,0.7c0.1,0.1,0.3,0.1,0.4,0
				c1.6-0.6,3-1.5,4.2-2.8c-0.3,1.3-1,2.5-2,3.4c-0.7,0.8-1.4,1.6-2.1,2.3c-1.1,1-2.6,1.7-4.1,1.9
				C190.7,129.8,190,129.8,189.3,129.9L189.3,129.9z M199.4,120.6c-0.8-0.9-0.7-2.3,0.2-3.1c0.9-0.8,2.3-0.7,3.1,0.2
				c0.8,0.9,0.7,2.3-0.2,3.1c0,0,0,0,0,0C201.7,121.6,200.3,121.6,199.4,120.6L199.4,120.6z M220.3,138.8c0.3,0,0.5,0.3,0.4,0.6
				s-0.3,0.5-0.6,0.4H220c-0.3-0.1-0.4-0.3-0.4-0.6c0,0,0,0,0,0C219.7,139,220,138.8,220.3,138.8L220.3,138.8z M219.9,135.4
				c0-0.3,0.2-0.5,0.4-0.6c0.3,0,0.5,0.2,0.5,0.4c0,0,0,0,0,0c0,0.3-0.2,0.5-0.4,0.6l0,0C220.2,135.9,220,135.7,219.9,135.4
				L219.9,135.4z M219.5,132c-0.1,0-0.2,0.1-0.3,0.1c-0.3,0-0.5-0.2-0.5-0.5c0-0.3,0.2-0.5,0.5-0.5c0.3,0,0.5,0.2,0.5,0.5
				C219.7,131.7,219.6,131.9,219.5,132z M219,143.3c-0.1,0.2-0.4,0.3-0.7,0.2s-0.3-0.4-0.2-0.7c0.1-0.2,0.4-0.3,0.7-0.2c0,0,0,0,0,0
				C219.1,142.7,219.1,143,219,143.3z M216.4,145.7c0.2,0.2,0.2,0.5,0,0.7c0,0,0,0,0,0c-0.1,0.1-0.2,0.1-0.3,0.1
				c-0.1,0-0.3-0.1-0.4-0.2c-0.2-0.2-0.2-0.5,0-0.7c0,0,0,0,0,0C215.8,145.5,216.2,145.5,216.4,145.7
				C216.4,145.7,216.4,145.7,216.4,145.7L216.4,145.7z M214.5,112.6c1.6-0.1,3.2,0.1,4.8,0.6c1.3,0.5,2.5,1.1,3.5,2
				c1.2,0.9,2.2,2,2.9,3.3c1.3,2.7-2.6,3.9-4.3,4.9c-0.5,0.3-0.9-0.4-0.4-0.7c0.7-0.5,1.4-0.9,2.1-1.4c0.6-0.3,1.1-0.7,1.5-1.1
				c0.9-1.1-0.7-2.8-1.4-3.6c-2.2-2.5-5.4-4-8.7-3.9C214.5,112.7,214.4,112.7,214.5,112.6C214.5,112.6,214.5,112.6,214.5,112.6
				L214.5,112.6L214.5,112.6z M203.2,100.7c1.5-1,3.1-1.9,4.8-2.5c1.4-0.6,3-0.9,3.9,0.6c0.7,1.4,1,3,0.8,4.5c0,1.5-0.2,2.9-0.6,4.4
				c-0.1,0.5-0.9,0.3-0.8-0.2c0.3-1.4,0.4-2.9,0.4-4.4c0-1.2,0-2.9-0.8-3.9s-2.7-0.3-3.8,0.1c-1.6,0.6-3.1,1.4-4.5,2.3
				c-1.7,1.2-3.1,2.8-4.1,4.6c-0.1,0.1-0.2,0-0.1-0.1C199.6,104.1,201.2,102.2,203.2,100.7L203.2,100.7z M197.1,98.4
				c0.8,0,1.5,0.6,1.5,1.5s-0.6,1.5-1.5,1.5l0,0c-0.8,0-1.5-0.7-1.5-1.5S196.3,98.4,197.1,98.4L197.1,98.4z M189.8,99.5
				c0.8-0.3,1.6,0.2,1.9,1s-0.2,1.6-1,1.9c0,0-0.1,0-0.1,0c-0.1,0-0.3,0.1-0.4,0.1c-0.8,0-1.5-0.7-1.5-1.5
				C188.8,100.3,189.2,99.7,189.8,99.5z M188,106.6c0.1,0.3,1.9,0.4,2.3,0.5c0.7,0.2,1.4,0.2,2.1,0.4c1.5,0.4,2.9,1.2,3.9,2.3
				c0.7,0.8,1.2,1.7,1.9,2.5c0.9,1,1.5,2.2,1.6,3.6c-1.1-1.3-2.4-2.4-3.9-3.1c-0.1-0.1-0.3-0.1-0.4-0.1c-0.3,0.1-0.2,0.5-0.1,0.7
				c0.6,1.2,1.6,2.2,2.7,2.9c-0.8-0.6-1.8-1-2.8-1.3c-1-0.2-1.7,0.3-0.8,1.2c1,0.9,2.3,1.4,3.7,1.3c-1,0.5-2.1,0.6-3.1,0.3
				c-1.7-0.4-3.1-1.3-4.3-2.5c-2.1-2.3-2.5-5.2-3.6-7.9c0.5,0.2,1,0.3,1.6,0.4L188,106.6z M183.1,102.6c0.7-0.4,1.6-0.1,2,0.6
				c0.3,0.7,0.2,1.5-0.4,1.9c-0.2,0.2-0.5,0.2-0.8,0.2c-0.5,0-1-0.3-1.3-0.7C182.2,103.9,182.4,103,183.1,102.6
				C183.1,102.6,183.1,102.6,183.1,102.6L183.1,102.6z M147.9,133c2.1-2.1,4.4-4,6.8-5.8c1.5-1,3.1-2,4.8-2.8
				c1.4-0.7,3.3-1.5,4.6-0.3c0.6,0.8,1,1.7,1.2,2.6c0.4,1.4,0.7,2.8,0.8,4.2c0.2,2.8-0.2,5.6-1,8.3c-0.1,0.2-0.4,0.3-0.6,0.2
				c-0.2-0.1-0.3-0.3-0.3-0.5c0.8-2.8,1-5.7,0.7-8.6c-0.2-1.3-0.5-2.5-0.9-3.7c-0.2-0.7-0.4-1.6-1.2-1.9c-0.6-0.1-1.3-0.1-1.9,0.2
				c-0.8,0.3-1.6,0.7-2.4,1.1c-1.6,0.8-3.1,1.7-4.6,2.6c-2,1.4-4,2.9-5.8,4.5C147.9,133.3,147.8,133.1,147.9,133z M145.9,138.2
				c1.4-2.4,3.3-4.4,5.6-6c2-1.5,4.4-2.5,6.9-3c0.9-0.2,1.8-0.2,2.7,0.2c0.6,0.4,1,0.9,1.3,1.6c0.6,1.6,0.9,3.4,0.7,5.2
				c-0.1,1.6-0.3,3.1-0.7,4.6c-0.1,0.2-0.3,0.3-0.5,0.3c-0.2-0.1-0.3-0.3-0.3-0.5c0.4-1.6,0.6-3.2,0.7-4.8c0.2-1.5-0.1-3.1-0.7-4.5
				c-0.8-1.4-2.7-1.2-4.1-0.9c-4.6,1.2-8.5,4-11.1,8C146.1,138.5,145.8,138.4,145.9,138.2L145.9,138.2z M153,145.9
				c-0.2-0.2-0.6,0-0.8,0.2c-1,1.1-1.8,2.5-2.1,4c0.3-1.1,0.5-2.3,0.4-3.5c-0.1-1.2-1-1.7-1.6-0.4c-0.6,1.4-0.6,3,0,4.5
				c-0.9-0.8-1.4-2-1.5-3.3c-0.2-1.9,0.2-3.9,1.1-5.5c1.7-3.1,4.6-4.6,7.2-6.8c0,0.6,0.1,1.2,0.1,1.8l1.2-1.4
				c-0.2,0.3,0.3,2.2,0.3,2.6c0.1,0.8,0.3,1.6,0.3,2.4c0.2,1.7-0.2,3.5-1,5c-0.6,1-1.4,1.9-2,2.9c-0.7,1.3-1.9,2.4-3.2,3.1
				c1-1.6,1.6-3.5,1.9-5.4C153.2,146.1,153.2,146,153,145.9L153,145.9z M129,168.2c0.1,0.2,0,0.5-0.2,0.7c-0.1,0-0.2,0.1-0.2,0.1
				c-0.2,0-0.3-0.1-0.4-0.3c-0.1-0.2,0-0.5,0.2-0.7C128.6,167.9,128.9,168,129,168.2C129,168.2,129,168.2,129,168.2z M128.8,160.5
				c0.1-0.3,0.4-0.4,0.7-0.3c0,0,0,0,0,0c0.2,0.1,0.4,0.4,0.3,0.6c0,0,0,0,0,0c-0.1,0.2-0.3,0.3-0.5,0.3c-0.1,0-0.1,0-0.2,0
				C128.8,161.1,128.6,160.8,128.8,160.5C128.7,160.5,128.7,160.5,128.8,160.5L128.8,160.5z M128.2,165L128.2,165
				c-0.3,0-0.5-0.2-0.5-0.5s0.2-0.4,0.5-0.4s0.4,0.2,0.4,0.5C128.6,164.8,128.4,165,128.2,165z M143.5,176.4
				c0.5-0.3,0.9,0.4,0.4,0.8c-2.6,1.9-5.5,3.4-8.5,4.6c-3.1,1.2-6.2,2.1-9.4,2.8c0,0-0.1,0-0.1-0.1c0,0,0-0.1,0.1-0.1
				C132.3,182.8,138.2,180.1,143.5,176.4L143.5,176.4z M131.3,157.7c-0.1,0-0.2,0-0.3-0.1c-0.2-0.2-0.3-0.5-0.1-0.7
				c0.2-0.2,0.5-0.3,0.7-0.1l0,0c0.2,0.2,0.3,0.5,0.1,0.7C131.6,157.7,131.4,157.7,131.3,157.7L131.3,157.7z M131.8,170.3
				c0.3,0.1,0.4,0.4,0.3,0.6c-0.1,0.2-0.3,0.4-0.5,0.4c0,0-0.1,0-0.1,0c-0.3-0.1-0.4-0.4-0.3-0.6
				C131.3,170.4,131.5,170.2,131.8,170.3C131.8,170.3,131.8,170.3,131.8,170.3L131.8,170.3z M135.2,171c0-0.3,0.1-0.5,0.4-0.6
				c0,0,0,0,0,0c0.3,0,0.5,0.1,0.6,0.4c0,0,0,0,0,0c0,0.3-0.1,0.5-0.4,0.6h-0.1C135.4,171.4,135.2,171.2,135.2,171L135.2,171z
				 M142.1,164.2c-1.3,1.2-2.9,1.9-4.7,2.2c-0.8,0.1-1.6,0.1-2.4,0.3c-0.4,0.1-2.4,0.1-2.6,0.4l1.1-1.5c-0.6,0.1-1.2,0.2-1.8,0.3
				c1.5-3,2.3-6.2,4.9-8.6c1.4-1.3,3.2-2.2,5.1-2.4c1.2-0.2,2.5,0,3.5,0.7c-1.5-0.3-3.1,0.1-4.3,1.1c-1.2,0.9-0.4,1.6,0.7,1.5
				c1.2-0.2,2.3-0.6,3.3-1.2c-1.4,0.7-2.5,1.7-3.4,3c-0.2,0.3-0.3,0.7,0,0.8c0.1,0.1,0.3,0.1,0.4,0c1.8-0.7,3.4-1.7,4.8-3.1
				c-0.3,1.5-1.1,2.8-2.2,3.9C143.6,162.4,142.9,163.4,142.1,164.2L142.1,164.2z M133.7,154c0.2-0.2,0.5-0.1,0.7,0.1
				s0.1,0.5-0.1,0.7c-0.1,0.1-0.2,0.1-0.3,0.1c-0.2,0-0.3-0.1-0.4-0.2C133.5,154.5,133.5,154.2,133.7,154
				C133.7,154,133.7,154,133.7,154z M146.5,156.1c-0.9-1-0.9-2.6,0.2-3.6c1-0.9,2.6-0.9,3.6,0.2c0.9,1,0.9,2.6-0.2,3.6c0,0,0,0,0,0
				C149.1,157.3,147.5,157.2,146.5,156.1C146.5,156.2,146.5,156.2,146.5,156.1L146.5,156.1z M145.1,146.8c1,1.1,1.7,2.5,1.9,4.1
				c-1.2-1.5-2.7-2.7-4.5-3.6c-0.1-0.1-0.3-0.1-0.4-0.1c-0.3,0.1-0.2,0.6-0.1,0.8c0.7,1.4,1.8,2.5,3.1,3.4c-1-0.7-2-1.2-3.2-1.5
				c-1.1-0.2-2,0.4-0.9,1.4c1.1,1.1,2.7,1.6,4.2,1.5c-1.1,0.6-2.4,0.7-3.6,0.4c-1.9-0.4-3.6-1.4-4.9-2.9c-2.4-2.6-2.9-5.9-4.1-9
				c0.6,0.2,1.2,0.3,1.8,0.5l-0.9-1.6c0.2,0.3,2.2,0.5,2.6,0.6c0.8,0.2,1.6,0.3,2.4,0.5c1.7,0.4,3.2,1.3,4.4,2.6
				C143.7,144.9,144.3,145.9,145.1,146.8L145.1,146.8z M139.7,108c0.1-0.1,0.1-0.1,0.2-0.2c0.1-0.1,0.2-0.1,0.3-0.1
				c0.1,0,0.2-0.1,0.3-0.1c0.8-0.2,1.6,0.4,1.8,1.2s-0.4,1.6-1.2,1.8c-0.8,0.2-1.6-0.4-1.8-1.2C139.2,108.9,139.3,108.4,139.7,108
				L139.7,108z M132.6,108.4c0.1-0.8,0.8-1.4,1.7-1.3c0.8,0.1,1.4,0.8,1.3,1.7c-0.1,0.8-0.7,1.3-1.5,1.3h-0.2
				C133.1,110,132.5,109.3,132.6,108.4C132.6,108.4,132.6,108.4,132.6,108.4L132.6,108.4z M126,107c0.2-0.8,1-1.3,1.8-1.1
				c0.8,0.2,1.3,1,1.1,1.8c-0.2,0.7-0.8,1.1-1.4,1.1c-0.1,0-0.3,0-0.4,0C126.3,108.7,125.8,107.9,126,107C126,107,126,107,126,107z
				 M119.9,104.2c0.4-0.7,1.4-0.9,2.1-0.5c0.6,0.4,0.9,1.2,0.6,1.9c-0.3,0.5-0.8,0.8-1.3,0.8c-0.2,0-0.5-0.1-0.7-0.2
				C119.8,105.9,119.5,105,119.9,104.2C119.9,104.2,119.9,104.2,119.9,104.2L119.9,104.2z M114.4,100.4c0.5-0.7,1.4-0.8,2.1-0.3
				c0.7,0.5,0.8,1.4,0.3,2.1c-0.3,0.4-0.7,0.6-1.2,0.6c-0.3,0-0.6-0.1-0.9-0.3C114,102,113.9,101,114.4,100.4
				C114.4,100.4,114.4,100.4,114.4,100.4L114.4,100.4z M109.6,95.8c0.6-0.6,1.6-0.5,2.1,0.1c0.6,0.6,0.5,1.6-0.1,2.1
				c-0.3,0.3-0.7,0.4-1,0.4c-0.8,0-1.5-0.7-1.5-1.6C109.1,96.4,109.3,96,109.6,95.8z M107.7,90.4c0.3,0.3,0.4,0.7,0.4,1.1
				c0,0.4-0.2,0.7-0.4,1c-0.3,0.3-0.7,0.4-1.1,0.4c-0.4,0-0.8-0.2-1.1-0.4c-0.3-0.3-0.4-0.6-0.4-1c0-0.4,0.2-0.8,0.4-1.1
				C106.2,89.8,107.1,89.8,107.7,90.4L107.7,90.4z M167,90.2c-1.8,0.1-3.6-0.6-5-1.8c-1.3-1.2-2.6-2.5-3.7-3.9c0-0.1,0-0.2,0.1-0.2
				c0.1,0,0.1,0,0.2,0c1.2,1.2,2.5,2.3,3.9,3.3c1.4,0.9,3,1.5,4.7,1.8C167.6,89.6,167.4,90.2,167,90.2L167,90.2z M168,78.8
				c-2.2-1.3-1.6-4.1-0.4-6c0-0.1,0.1-0.1,0.2,0c0.1,0,0.1,0.1,0,0.2l0,0c-0.9,1.6-1.3,4.1,0.6,5.2C168.9,78.4,168.5,79.1,168,78.8
				L168,78.8z M171.2,74.9c-0.3,0.8-0.7,1.5-1.4,2c-0.3,0.2-0.7,0.3-1.1,0.1c-0.3-0.2-0.6-0.5-0.6-0.9c-0.2-0.9-0.1-1.9,0.5-2.7
				c0.4-0.7,1.1-1.6,1.9-1.4l0,0c0-0.2-0.1-0.3-0.1-0.5c0-0.1-0.1-0.2-0.1-0.3l-0.1-0.1l0,0l-0.1-0.1c0,0-0.1-0.1-0.1-0.1h-0.1l0,0
				c-0.1-0.1-0.2-0.1-0.3-0.2l0,0h-0.1h-0.2h-0.2h-0.5l-0.3,0.1l-0.4,0.1c-0.2,0.1-0.5,0.2-0.7,0.3c-1.1,0.7-1.6,2-1.5,3.3
				c0,0.2-0.2,0.2-0.3,0c-0.3-1.7,0.5-3.3,1.9-4.2c1.1-0.7,2.6-0.6,3.5,0.4c0.5,0.7,0.8,1.5,0.7,2.3
				C171.7,73.7,171.5,74.3,171.2,74.9L171.2,74.9z M171.3,68.8c1.9,0.9,2.3,3.1,1.9,4.9c-0.1,0.2-0.3,0.3-0.5,0.2
				c-0.1,0-0.2-0.2-0.3-0.3c0.1-1,0-2-0.4-2.9c-0.8-1.2-2.1-1.8-3.5-1.6c-1.7,0.2-3.3,1.2-4,2.8c0,0-0.1,0,0,0
				c0.4-1,1.1-1.9,1.9-2.5C167.8,68.4,169.7,68.1,171.3,68.8L171.3,68.8z M164.3,65.6c1.4-1,3.2-1.6,4.9-1.7c0.1,0,0.1,0.1,0,0.1
				c-2,0.2-3.9,1.1-5.3,2.7c-1,1.3-1.7,2.8-2.1,4.4c-0.4,1.7-1,3.4-1.8,5c-0.9,1.4-1.9,2.8-3,4.1c-1.2,1.5-1.9,3.2-2.2,5.1
				c0,0.2-0.2,0.3-0.4,0.2c-0.1,0-0.2-0.1-0.2-0.2c0-2.2,0.7-4.3,2-6.1c1.1-1.5,2.2-3,3.1-4.6c0.4-0.9,0.7-1.7,1-2.7
				c0.3-0.9,0.6-1.8,1-2.6C162,68,163,66.6,164.3,65.6L164.3,65.6z M161.8,64.7L161.8,64.7c-1.7,2.2-2.2,5.1-3.5,7.5
				c-1.2,2.1-2.7,4.1-4.5,5.7c-0.4,0.4-0.9-0.2-0.6-0.6c1.7-1.9,3.2-3.9,4.5-6c0.7-1.2,1.2-2.4,1.9-3.6
				C160.3,66.7,161,65.6,161.8,64.7L161.8,64.7z M152.2,54.2c0.3-0.1,0.5,0,0.6,0.3c0.1,0.3,0,0.5-0.3,0.6c0,0,0,0,0,0
				c-0.1,0-0.1,0-0.2,0c-0.3,0-0.5-0.1-0.6-0.4S152,54.2,152.2,54.2L152.2,54.2z M151.1,56.4c0.5,2,1.2,3.9,2.2,5.6
				c0.5,0.8,1.1,1.5,1.8,2.2c0.8,0.7,1.7,1.2,2.6,1.7c0.5,0.3,0.2,1.1-0.4,0.9c-2-0.8-3.7-2.3-4.6-4.2
				C151.7,60.6,151.5,58.5,151.1,56.4C151.1,56.3,151.1,56.3,151.1,56.4L151.1,56.4z M150.2,50.8c0.2-0.2,0.5-0.1,0.7,0.1
				c0,0,0,0,0,0c0.2,0.2,0.1,0.5-0.1,0.7c-0.1,0.1-0.2,0.1-0.3,0.1c-0.2,0-0.3-0.1-0.4-0.2C149.9,51.3,150,50.9,150.2,50.8
				C150.2,50.8,150.2,50.8,150.2,50.8L150.2,50.8z M147.4,47.9c0.2-0.2,0.5-0.2,0.7-0.1s0.2,0.5,0.1,0.7c-0.1,0.1-0.2,0.2-0.4,0.2
				c-0.1,0-0.2,0-0.3-0.1C147.2,48.5,147.2,48.1,147.4,47.9C147.4,47.9,147.4,47.9,147.4,47.9L147.4,47.9z M144,45.8
				c0.1-0.2,0.4-0.4,0.7-0.2c0.2,0.1,0.4,0.4,0.2,0.7c-0.1,0.2-0.3,0.3-0.4,0.3c-0.1,0-0.1,0-0.2,0C144,46.5,143.9,46.2,144,45.8
				C144,45.9,144,45.9,144,45.8z M140.8,44.3c0.3,0.1,0.4,0.3,0.4,0.6c0,0,0,0,0,0c0,0.2-0.3,0.4-0.5,0.4h-0.1
				c-0.3-0.1-0.4-0.3-0.4-0.6C140.2,44.4,140.5,44.2,140.8,44.3C140.8,44.3,140.8,44.3,140.8,44.3L140.8,44.3z M137.2,48.8
				c1.4-0.2,2.7-0.2,4.1,0.1c1.2,0.3,2.3,0.9,3.2,1.8c2,1.8,3.4,4.2,4,6.9c0.1,0.4-0.5,0.7-0.7,0.3c-0.9-2.3-2.2-4.4-3.8-6.3
				C142.2,49.8,139.7,48.8,137.2,48.8C137.2,48.9,137.2,48.8,137.2,48.8L137.2,48.8z M136,54c0.1-0.4,0.1-0.7,0.2-1.1
				c0.3,2.3,0.9,4.6,3.2,5.7c0.9,0.4,1.8,0.7,2.8,0.8c1.3,0.1,2.7,0.1,4-0.1c-1.6,1.3-2.3,2.3-4.4,2.4c-1.8,0.2-3.7-0.4-5-1.7
				C135.2,58.1,135.6,56,136,54z M128.7,63.5c1,2.4,3.2,4.1,5.7,4.5c2.5,0.2,5-0.3,7.3-1.4c0.6-0.2,1,0.5,0.5,0.8
				c-2.4,1.5-5.3,2-8,1.4C131.5,68.1,129.4,66.1,128.7,63.5C128.5,63.4,128.7,63.3,128.7,63.5L128.7,63.5z M127.7,70.3
				c4.3,2.2,9.3,1.2,13.2-1.3c0.5-0.3,1,0.5,0.5,0.8c-2.1,1.3-4.4,2-6.9,2.2C132.1,72.1,129.7,71.5,127.7,70.3L127.7,70.3z
				 M115.9,35.6c0.2-0.2,0.5-0.2,0.7,0c0.2,0.2,0.2,0.5,0,0.7l0,0c-0.1,0.1-0.2,0.1-0.3,0.1c-0.1,0-0.3-0.1-0.4-0.2
				C115.7,36.1,115.7,35.8,115.9,35.6C115.9,35.6,115.9,35.6,115.9,35.6z M115.8,48.2c0-0.1,0.1-0.1,0.2-0.1c0.1,0,0.1,0.1,0.1,0.2
				c-0.2,0.7-0.2,1.4,0,2.1c0.3,0.6,0.9,1,1.6,1.1c0.5,0.1,1,0.3,1.3,0.8c0.2,0.6,0.3,1.2,0.4,1.8c0.4,1.1,1.9,1.5,3,1.5
				c1.2,0,2.3-0.3,3.4-0.8c0.7-0.3,0.9,0.8,0.3,1c-1.2,0.5-2.6,0.8-3.9,0.7c-1.4,0-2.6-0.7-3.4-1.8c-0.1-0.3-0.2-0.7-0.3-1
				c0-0.4-0.1-0.8-0.2-1.1c-0.3-0.5-1.2-0.5-1.7-0.8C115.3,51,115.3,49.3,115.8,48.2z M122.6,78.3c0,0.2-0.3,0.4-0.5,0.4h-0.1
				c-0.3,0-0.4-0.3-0.4-0.6c0,0,0,0,0,0c0.1-0.3,0.3-0.5,0.6-0.4S122.7,78,122.6,78.3L122.6,78.3z M113,33.6
				c-0.2-0.2-0.2-0.5-0.1-0.7c0.2-0.2,0.5-0.2,0.7-0.1c0.2,0.2,0.2,0.5,0.1,0.7c-0.1,0.1-0.2,0.2-0.4,0.2
				C113.2,33.7,113.1,33.7,113,33.6z M113.9,45.3c0-0.1,0.1-0.1,0.2,0c0.1,0,0.1,0.1,0,0.2c-0.7,1.2-1.7,3.1-1,4.4
				c0.3,0.4,0.7,0.8,1.1,1.1c0.4,0.4,0.6,0.9,0.7,1.4c0,0.8,0.1,1.5,0.3,2.3c0.2,0.6,0.6,1.1,1.1,1.5c1.1,0.7,2.3,1.1,3.6,1.2
				c0.3,0,0.5,0.2,0.5,0.5s-0.2,0.5-0.5,0.5c-1.5,0.1-2.9-0.3-4.1-1.2c-1.2-0.9-1.8-2.4-1.7-3.9c0.1-0.8-0.2-1.5-0.8-2
				c-0.4-0.4-0.7-0.9-0.8-1.5C112.2,48,113.2,46.5,113.9,45.3L113.9,45.3z M118.7,77.3c-0.1,0.2-0.3,0.3-0.5,0.3c-0.1,0-0.1,0-0.2,0
				c-0.3-0.1-0.4-0.4-0.3-0.6c0.1-0.3,0.4-0.4,0.6-0.3S118.8,77.1,118.7,77.3C118.7,77.4,118.7,77.4,118.7,77.3L118.7,77.3z
				 M109.6,49.1c0.6-1.8,1.5-3.5,2.8-5l0,0c-1,1.4-1.7,2.9-2,4.5c-0.2,0.7-0.2,1.5,0.1,2.2c0.5,0.6,1.2,1,2,1
				c0.2,0.1,0.4,0.3,0.3,0.6c-0.5,1.2-0.6,2.5-0.3,3.8c0.3,1.3,1.2,2.4,2.5,2.9c0.5,0.2,0,0.9-0.4,0.7c-1.4-0.6-2.4-1.8-2.7-3.3
				c-0.3-1.3-0.3-2.6,0-3.9c-0.8-0.1-1.5-0.5-1.9-1.2C109.5,50.7,109.4,49.9,109.6,49.1L109.6,49.1z M115,75.9
				c-0.1,0.2-0.3,0.3-0.4,0.3c-0.1,0-0.2,0-0.2,0c-0.2-0.2-0.3-0.5-0.1-0.7c0.1-0.2,0.4-0.3,0.6-0.2C115,75.4,115.1,75.7,115,75.9z
				 M111.6,73.9c-0.1,0.1-0.2,0.2-0.4,0.2c-0.1,0-0.2,0-0.3-0.1l0,0c-0.2-0.2-0.2-0.5-0.1-0.7c0,0,0,0,0,0c0.2-0.2,0.5-0.2,0.7-0.1
				C111.7,73.3,111.8,73.6,111.6,73.9C111.6,73.8,111.6,73.9,111.6,73.9L111.6,73.9z M108.2,70.2c0.2-0.2,0.5-0.1,0.7,0.1
				c0,0,0,0,0,0l0,0c0.2,0.2,0.1,0.5-0.1,0.7c-0.1,0.1-0.2,0.1-0.3,0.1c-0.2,0-0.3-0.1-0.4-0.2C107.9,70.7,108,70.4,108.2,70.2
				C108.2,70.2,108.2,70.2,108.2,70.2L108.2,70.2z M107.2,66.9c0.1,0.3-0.1,0.5-0.3,0.6c-0.1,0-0.1,0-0.2,0c-0.2,0-0.4-0.1-0.5-0.3
				c-0.1-0.3,0-0.5,0.3-0.6c0,0,0,0,0,0C106.8,66.5,107.1,66.7,107.2,66.9L107.2,66.9z M106.2,62.6c0.3,0,0.5,0.3,0.5,0.5
				c0,0.3-0.2,0.5-0.5,0.5l0,0c-0.3,0-0.5-0.3-0.5-0.5c0,0,0,0,0,0C105.7,62.9,105.9,62.7,106.2,62.6L106.2,62.6z M99.2,56.8
				c0.4,3.3,1.2,6.6,2.4,9.8c2.2,5.5,5.9,10.8,11.1,13.9c2.7,1.5,5.8,2.5,8.9,2.8c3.2,0.4,6.4,0.3,9.6-0.2c0.4-0.1,0.5,0.5,0.1,0.6
				c-3.6,1-7.3,1.2-11,0.7c-3.3-0.4-6.4-1.6-9.2-3.4c-2.6-1.8-4.8-4-6.6-6.6C101.2,69.1,99.7,62.9,99.2,56.8
				C99.1,56.7,99.2,56.7,99.2,56.8L99.2,56.8z M98.2,81.3c0.7-0.4,1.6-0.1,2,0.6c0.4,0.7,0.2,1.5-0.5,2c-0.2,0.2-0.5,0.2-0.8,0.2
				c-0.8,0-1.5-0.7-1.5-1.5C97.5,82,97.7,81.6,98.2,81.3z M97.2,75.8c0.3,0.8,0,1.7-0.8,2c0,0,0,0,0,0c-0.2,0.1-0.4,0.1-0.6,0.1
				c-0.8,0-1.5-0.7-1.5-1.5c0-0.8,0.7-1.5,1.5-1.5C96.4,74.9,97,75.3,97.2,75.8L97.2,75.8z M94.1,71.1c-0.1,0-0.2,0-0.3,0
				c-0.8,0.1-1.6-0.5-1.7-1.3s0.5-1.6,1.3-1.7c0.8-0.2,1.6,0.3,1.8,1.1c0,0,0,0,0,0C95.4,70.1,95,70.9,94.1,71.1
				C94.2,71.1,94.1,71.1,94.1,71.1L94.1,71.1z M91.9,55.5c0.1-0.8,0.9-1.4,1.7-1.3c0.8,0.1,1.4,0.9,1.3,1.7
				c-0.1,0.7-0.7,1.3-1.5,1.3h-0.2C92.4,57.1,91.8,56.3,91.9,55.5C91.9,55.5,91.9,55.5,91.9,55.5z M92.9,61.2c0.8,0,1.5,0.6,1.5,1.5
				c0,0.8-0.6,1.5-1.5,1.5l0,0c-0.8,0-1.5-0.7-1.5-1.5S92.2,61.2,92.9,61.2L92.9,61.2z M83.6,94.4c0.7-0.4,1.5-0.7,2.2-1.1
				c0.4-0.2,2.3-0.9,2.4-1.2c-0.2,0.6-0.3,1.2-0.5,1.8c0.6-0.3,1.1-0.6,1.6-0.9c-0.4,3.3-0.1,6.6-1.7,9.7c-0.9,1.7-2.3,3.1-4,4
				c-1.1,0.6-2.3,0.8-3.6,0.5c1.5-0.3,2.9-1.2,3.7-2.5c0.8-1.3-0.1-1.7-1.2-1.2c-0.9,0.5-1.8,1.1-2.5,1.9c0.9-1.1,1.5-2.3,1.9-3.7
				c0.1-0.3,0-0.7-0.3-0.8c-0.2,0-0.3,0.1-0.4,0.2c-1.5,1.3-2.6,2.8-3.5,4.6c-0.2-1.5,0.1-3,0.8-4.4c0.5-1.1,0.8-2.3,1.3-3.3
				C80.7,96.5,82,95.2,83.6,94.4z M56,110.4c0.4,0,1.8-1.3,2.1-1.5c0.7-0.5,1.3-1,2-1.5c1.4-1,3.1-1.5,4.9-1.6
				c1.2,0,2.4,0.3,3.6,0.3c1.5,0,3,0.5,4.3,1.3c-1.9-0.1-3.8,0.3-5.6,1c-0.2,0-0.3,0.1-0.4,0.3c-0.1,0.3,0.3,0.5,0.6,0.6
				c1.5,0.4,3.1,0.3,4.6-0.1c-1.2,0.3-2.2,0.7-3.2,1.4c-0.9,0.7-1,1.7,0.5,1.6c1.5-0.1,3-0.9,3.9-2.1c-0.3,1.2-1.1,2.2-2.2,2.8
				c-1.6,1.1-3.5,1.7-5.4,1.7c-3.5,0-6.3-1.8-9.4-3c0.5-0.3,1-0.7,1.5-1L56,110.4z M72.8,70.8c-0.6,0.7-1.2,1.3-1.8,1.9
				c-0.6,0.7-1.2,1.4-1.6,2.1c-0.9,1.5-1.6,3.1-2,4.7c-0.1,0.3-0.4,0.4-0.6,0.4c-0.3-0.1-0.4-0.4-0.4-0.6c0.5-2.6,1.6-5,3.4-7
				c0.6-0.7,1.3-1.3,1.9-1.9c0.7-0.6,1.2-1.4,1.5-2.3c0.3-0.9,0.5-1.9,0.6-2.9c0.1-1.8,0.6-3.6,1.4-5.2c0,0,0.1,0,0.1,0
				C73.4,63.4,75.2,67.7,72.8,70.8z M74.8,89.7c-0.2,0.2-0.5,0.2-0.7-0.1c-0.2-0.2-0.2-0.5,0.1-0.7l0,0c0.2-0.2,0.5-0.2,0.7,0.1
				C75,89.2,75,89.5,74.8,89.7z M72.1,86.8c-0.2,0.2-0.5,0.3-0.7,0.1c-0.2-0.2-0.3-0.5-0.1-0.7s0.5-0.3,0.7-0.1c0,0,0,0,0,0
				C72.2,86.3,72.3,86.6,72.1,86.8z M68.6,84.9c0,0.2-0.2,0.4-0.5,0.4H68c-0.3,0-0.5-0.3-0.4-0.6c0,0,0,0,0,0
				c0.1-0.3,0.3-0.5,0.6-0.4S68.7,84.7,68.6,84.9L68.6,84.9z M73.1,59.8c-1.6,2.6-1.1,5.9-2.7,8.5c-1.2,2.1-3.3,3.3-4.9,5
				c-2,2.2-2.2,5.1-2.6,7.9c-0.9,5.7-6.1,9.4-7.1,15.1c0,0.1-0.1,0-0.1,0c0.5-3.1,2-5.7,3.5-8.4c0.7-1.2,1.4-2.6,1.9-3.9
				c0.4-1.4,0.7-2.9,0.8-4.4c0.3-2.8,1-5.3,3.1-7.3c1.8-1.7,4.2-2.9,5.1-5.3c0.4-1.3,0.6-2.6,0.8-3.9c0.2-1.3,0.7-2.6,1.5-3.7
				C72.7,58.9,73.3,59.3,73.1,59.8z M64.5,85.9c-0.1,0-0.2,0.1-0.3,0.1c-0.3,0-0.5-0.2-0.5-0.5c0-0.2,0.1-0.4,0.3-0.5
				c0.2-0.1,0.5-0.1,0.7,0.2C64.8,85.4,64.8,85.7,64.5,85.9L64.5,85.9L64.5,85.9z M60.3,95.8c0.3,0,0.5,0.2,0.5,0.4c0,0,0,0,0,0
				c0,0.3-0.2,0.5-0.5,0.5c0,0,0,0,0,0l0,0c-0.3,0-0.5-0.2-0.5-0.5C59.9,96.1,60,95.8,60.3,95.8z M60.1,92.2c0-0.3,0.3-0.4,0.6-0.4
				c0,0,0,0,0,0c0.3,0,0.5,0.3,0.5,0.5c0,0.3-0.3,0.5-0.5,0.5h-0.1C60.2,92.8,60,92.5,60.1,92.2z M60.9,99.7
				c0.3-0.1,0.5,0.1,0.6,0.3c0,0,0,0,0,0c0.1,0.3-0.1,0.5-0.3,0.6h-0.2c-0.2,0-0.4-0.1-0.5-0.3C60.5,100.1,60.7,99.8,60.9,99.7z
				 M61.6,89c-0.3-0.1-0.4-0.4-0.2-0.7c0,0,0,0,0,0c0.1-0.2,0.4-0.4,0.7-0.2c0.3,0.1,0.4,0.4,0.2,0.7c0,0,0,0,0,0
				c-0.1,0.2-0.3,0.3-0.5,0.3C61.7,89,61.6,89,61.6,89z M70.5,105c-1.6-1.1-2.7-2.7-3.4-4.5c-1.2-3.3-0.4-6.5-0.3-9.9
				c0.5,0.4,1,0.8,1.5,1.1c-0.1-0.6-0.2-1.2-0.3-1.8c0,0.3,1.8,1.3,2.2,1.6c0.7,0.5,1.4,0.9,2,1.4c1.4,1.1,2.5,2.5,3.1,4.2
				c0.3,1.1,0.5,2.3,0.8,3.5c0.5,1.4,0.6,3,0.2,4.4c-0.6-1.8-1.5-3.5-2.8-5c-0.1-0.1-0.2-0.2-0.4-0.3c-0.3,0-0.4,0.4-0.4,0.7
				c0.2,1.5,0.7,3,1.6,4.3c-0.6-1-1.4-1.9-2.3-2.6c-1-0.7-2-0.4-1.3,1c0.6,1.4,1.8,2.5,3.3,3C72.7,106.2,71.5,105.8,70.5,105z
				 M76.5,106.3c1.4,0,2.5,1.1,2.5,2.5s-1.1,2.5-2.5,2.5c-1.4,0-2.5-1.1-2.5-2.5l0,0C74,107.5,75.1,106.4,76.5,106.3L76.5,106.3z
				 M52.2,92.8c0.6-2.3,1.7-4.5,3.1-6.5c0.6-0.8,1.3-1.5,1.8-2.4c0.6-0.9,1-1.9,1.3-2.9c0.6-2,1-4,1.5-6c0.5-2.1,1.4-4,2.6-5.7
				c1.1-1.5,2.8-2.5,3.9-4.1c0.5-0.9,0.9-1.8,1.2-2.8c0.3-0.9,0.7-1.7,1.2-2.5c1-1.7,2.1-3.2,3.4-4.6c2.7-2.9,5.8-5.3,9.3-7.1
				c0.1,0,0.1,0.1,0.1,0.1c-3.9,2.2-7.3,5.1-10,8.6c-1.2,1.5-2.1,3.1-2.8,4.9c-0.3,1-0.5,2-0.8,3c-0.3,0.8-0.7,1.5-1.2,2.2
				c-0.6,0.7-1.3,1.3-2,1.9c-0.7,0.7-1.4,1.5-1.9,2.3c-1,1.8-1.7,3.7-2.1,5.7c-0.4,2-0.9,3.9-1.5,5.8c-0.7,1.9-2,3.3-3.1,4.9
				c-1.2,1.8-2.1,3.8-2.7,5.9c-0.6,2.1-0.8,4.3-0.6,6.5c0,0.5-0.8,0.6-0.9,0.1C51.3,97.7,51.4,95.2,52.2,92.8z M51.6,116
				c0.7,6.3,6.7,12.4,13.3,11.9c0.6,0,0.6,0.9,0,1c-6.9,0.5-13-6.4-13.5-12.9C51.5,115.9,51.6,115.9,51.6,116z M52.5,126.2
				c-0.1-0.1,0-0.3,0.2-0.2c1.8,2.1,4.2,3.6,6.8,4.6c2.6,0.7,5.4,0.7,8,0c0.3,0,0.5,0.1,0.5,0.4c0,0.2-0.1,0.4-0.3,0.5
				c-2.8,0.8-5.7,0.7-8.5-0.4C56.6,130.1,54.3,128.4,52.5,126.2L52.5,126.2z M54,131.7c-0.2-0.1,0.1-0.4,0.2-0.2
				c2.2,1.7,4.9,2.7,7.7,2.6c1.4,0,2.7-0.1,4.1-0.3c1.2-0.3,2.5-0.6,3.7-0.8c0.2,0,0.4,0.2,0.4,0.4c0,0.1-0.1,0.3-0.2,0.4
				c-1.3,0.6-2.6,0.9-4,0.9c-1.5,0.2-2.9,0.2-4.4,0.1C58.7,134.6,56.1,133.5,54,131.7z M64.8,147.2c-0.8,0-1.5-0.7-1.5-1.5
				c0-0.7,0.4-1.3,1.1-1.4c0.8-0.2,1.6,0.2,1.9,1c0,0,0,0,0,0c0.2,0.8-0.2,1.6-1,1.9C65.1,147.2,65,147.2,64.8,147.2L64.8,147.2z
				 M67.6,153.7c-0.2,0.1-0.4,0.1-0.6,0.1c-0.8,0-1.5-0.7-1.5-1.5c0-0.8,0.7-1.5,1.5-1.5s1.5,0.7,1.5,1.5
				C68.6,153,68.2,153.5,67.6,153.7z M70.9,159.9c-0.2,0.1-0.5,0.2-0.8,0.2c-0.8,0-1.5-0.7-1.5-1.5c0-0.5,0.3-1,0.8-1.3
				c0.7-0.4,1.6-0.2,2.1,0.5C71.9,158.5,71.7,159.4,70.9,159.9C70.9,159.9,70.9,159.9,70.9,159.9z M72.5,137.6
				c-5.3,1.1-11,2.1-16-0.8c-0.1-0.1-0.1-0.2,0-0.3c0.1-0.1,0.2-0.1,0.3-0.1c4.7,2.7,10.5,1.3,15.5,0.3
				C72.8,136.6,73.1,137.4,72.5,137.6L72.5,137.6z M75.2,165.4c-0.3,0.3-0.6,0.4-1,0.4c-0.8,0-1.5-0.7-1.5-1.5
				c0-0.8,0.7-1.5,1.5-1.5c0.4,0,0.8,0.2,1.1,0.5C75.9,163.9,75.8,164.8,75.2,165.4C75.2,165.4,75.2,165.4,75.2,165.4L75.2,165.4z
				 M76.6,127c-0.2,0.3-1.6,1.9-1.5,2.2l-0.4-1.8c-0.3,0.5-0.7,1-1,1.6c-1.3-3.1-3.1-5.8-3.2-9.3c0-1.9,0.5-3.8,1.6-5.4
				c0.6-1.1,1.7-1.8,2.9-2.2c-1.2,1-1.9,2.4-2,4c-0.1,1.5,0.9,1.4,1.6,0.4c0.7-1,1.1-2.1,1.3-3.3c-0.4,1.5-0.4,3.1,0,4.6
				c0.1,0.3,0.3,0.7,0.6,0.6c0.1-0.1,0.2-0.2,0.3-0.4c0.7-1.8,1-3.7,0.9-5.7c0.8,1.2,1.3,2.7,1.3,4.2c0.1,1.2,0.3,2.4,0.4,3.6
				c0,1.7-0.5,3.5-1.4,4.9C77.6,125.7,77,126.3,76.6,127z M80.8,169.7c-0.3,0.4-0.7,0.7-1.3,0.7c-0.3,0-0.6-0.1-0.8-0.3
				c-0.7-0.4-1-1.3-0.5-2.1c0.4-0.7,1.3-1,2.1-0.5c0,0,0.1,0.1,0.1,0.1C81,168.1,81.2,169,80.8,169.7
				C80.8,169.7,80.8,169.7,80.8,169.7z M79.8,112.2c1.7,1,3.5,1.6,5.4,1.8c0.2,0,0.3,0,0.4-0.1c0.2-0.2,0-0.6-0.2-0.8
				c-1.1-1-2.5-1.7-4-2.1c1.1,0.3,2.3,0.4,3.5,0.3c1.2-0.2,1.7-1,0.3-1.6c-1.4-0.6-3-0.6-4.5,0c0.8-0.9,2-1.5,3.2-1.5
				c1.9-0.2,3.9,0.1,5.6,1.1c3.1,1.6,4.7,4.6,6.8,7.1c-0.6,0-1.2,0.1-1.8,0.2l1.4,1.2c-0.3-0.2-2.2,0.3-2.6,0.3
				c-0.8,0.1-1.6,0.3-2.4,0.3c-1.7,0.2-3.5-0.2-5-1c-1-0.6-2-1.4-3-2C81.6,114.7,80.5,113.6,79.8,112.2L79.8,112.2z M84,162.7
				c0.5-0.2,0.9-0.5,1.3-0.8c0.4-0.3,0.8-0.5,1.2-0.8c0.9-0.5,2-0.8,3-0.7c0.7,0.1,1.4,0.3,2.1,0.4c0.9,0.1,1.8,0.4,2.5,1
				c-1.1-0.1-2.3,0-3.4,0.3c-0.1,0-0.2,0.1-0.2,0.1s0.1,0.3,0.3,0.4c0.9,0.3,1.8,0.4,2.7,0.2c-0.7,0.1-1.4,0.3-2,0.7
				c-0.6,0.4-0.7,1,0.2,1c0.9,0,1.8-0.4,2.4-1.1c-0.2,0.7-0.7,1.3-1.4,1.6c-1,0.6-2.1,0.9-3.3,0.8c-2.1-0.1-3.6-1.4-5.5-2.2
				c0.3-0.2,0.7-0.3,1-0.5L84,162.7z M92.2,151.1c0,0.2,1,0.9,1.2,1c0.4,0.3,0.8,0.6,1.1,0.9c0.8,0.7,1.3,1.6,1.6,2.6
				c0.2,0.7,0.2,1.4,0.3,2.1c0.2,0.9,0.2,1.8-0.1,2.7c-0.2-1.1-0.7-2.2-1.4-3.1c0-0.1-0.1-0.1-0.2-0.2c-0.2,0-0.3,0.2-0.3,0.4
				c0,0.9,0.3,1.8,0.7,2.6c-0.3-0.6-0.7-1.2-1.3-1.7c-0.5-0.4-1.1-0.4-0.8,0.5c0.3,0.9,1,1.6,1.8,2c-0.7,0-1.5-0.3-2-0.8
				c-0.9-0.7-1.5-1.8-1.8-2.9c-0.5-2,0.1-3.9,0.3-5.9c0.3,0.3,0.5,0.5,0.8,0.8C92.3,151.9,92.3,151.5,92.2,151.1L92.2,151.1z
				 M101.2,154.6c0.4-0.2,0.9-0.3,1.4-0.5c0.2-0.1,1.4-0.4,1.5-0.6c-0.1,0.3-0.3,0.7-0.4,1c0.3-0.1,0.7-0.3,1-0.4
				c-0.4,2-0.4,3.9-1.5,5.7c-0.6,1-1.5,1.7-2.6,2.2c-0.7,0.3-1.4,0.4-2.1,0.1c0.9-0.1,1.8-0.6,2.3-1.3c0.5-0.7,0-1-0.7-0.8
				c-0.5,0.2-1,0.5-1.5,0.9c0.6-0.6,1-1.2,1.2-2c0.1-0.2,0.1-0.4-0.1-0.5c-0.1,0-0.2,0-0.3,0.1c-0.9,0.7-1.7,1.5-2.2,2.5
				c0-0.9,0.2-1.8,0.7-2.6c0.4-0.6,0.6-1.3,1-1.9C99.5,155.7,100.3,155,101.2,154.6L101.2,154.6z M100.5,146.1
				c0-0.8,0.7-1.5,1.5-1.5c0.8,0,1.5,0.7,1.5,1.5c0,0.8-0.7,1.5-1.5,1.5l0,0C101.2,147.6,100.5,146.9,100.5,146.1L100.5,146.1z
				 M107.4,169.1c-0.1-0.1-1.3,0-1.6,0.1c-0.5,0-1,0.1-1.5,0.1c-1.1,0-2.1-0.3-3-0.8c-0.6-0.4-1.1-0.9-1.7-1.3
				c-0.7-0.5-1.3-1.2-1.7-2c0.9,0.7,2,1.1,3.1,1.4c0.1,0,0.2,0,0.3,0c0.2-0.1,0-0.4-0.1-0.5c-0.6-0.7-1.4-1.2-2.3-1.5
				c0.7,0.3,1.4,0.4,2.1,0.4c0.7,0,1.1-0.5,0.3-0.9c-0.8-0.4-1.8-0.5-2.7-0.2c0.5-0.5,1.3-0.8,2-0.8c1.2,0,2.3,0.3,3.3,0.9
				c1.8,1.1,2.6,2.9,3.7,4.6h-1.1L107.4,169.1z M97.8,162.9c-0.1,0.8-0.8,1.5-1.6,1.4c-0.8-0.1-1.5-0.8-1.4-1.6
				c0.1-0.8,0.8-1.5,1.6-1.4c0,0,0,0,0,0C97.2,161.4,97.8,162.1,97.8,162.9C97.8,162.9,97.8,162.9,97.8,162.9L97.8,162.9z
				 M94.8,167.2c0.4-0.6,0.8-1.2,0.9-1.9c-0.3,0.9-0.4,1.8-0.2,2.7c0,0.2,0.2,0.4,0.3,0.4c0.1,0,0.2-0.1,0.2-0.2
				c0.5-1,0.8-2.2,0.8-3.3c0.5,0.8,0.7,1.7,0.6,2.6c0,0.7,0.1,1.4,0.1,2.1c-0.1,1-0.5,2-1.1,2.9c-0.3,0.4-0.6,0.7-0.9,1.1
				c-0.2,0.2-1,1-1,1.2c0-0.4-0.1-0.7-0.1-1.1c-0.2,0.3-0.4,0.6-0.7,0.9c-0.6-1.9-1.6-3.6-1.4-5.7c0.1-1.1,0.5-2.2,1.2-3.1
				c0.4-0.6,1.1-1,1.8-1.1c-0.8,0.5-1.3,1.3-1.4,2.3C93.7,167.8,94.3,167.8,94.8,167.2L94.8,167.2z M87.2,172.2
				c-0.2,0.6-0.8,1.1-1.4,1.1c-0.1,0-0.3,0-0.4-0.1c-0.8-0.2-1.3-1.1-1-1.9c0.2-0.8,1.1-1.3,1.9-1C87,170.6,87.5,171.4,87.2,172.2
				C87.2,172.2,87.2,172.2,87.2,172.2L87.2,172.2z M89.6,213.1L89.6,213.1c-0.8,0-1.5-0.7-1.5-1.5c0-0.8,0.7-1.5,1.5-1.5
				c0.8,0,1.5,0.7,1.5,1.5C91.1,212.4,90.4,213.1,89.6,213.1C89.6,213.1,89.6,213.1,89.6,213.1L89.6,213.1z M89.7,206.1L89.7,206.1
				c-0.9,0-1.6-0.7-1.6-1.6c0-0.9,0.7-1.5,1.6-1.5s1.5,0.7,1.5,1.6C91.2,205.4,90.5,206,89.7,206.1z M90.1,199.1H90
				c-0.9,0-1.5-0.8-1.5-1.6c0-0.9,0.8-1.5,1.6-1.5c0.9,0,1.5,0.8,1.5,1.6C91.6,198.4,91,199,90.1,199.1z M92.3,190.8
				c-0.1,0.8-0.7,1.3-1.5,1.3h-0.2c-0.8-0.1-1.4-0.8-1.3-1.7s0.8-1.4,1.7-1.3C91.8,189.2,92.4,189.9,92.3,190.8
				C92.3,190.8,92.3,190.8,92.3,190.8L92.3,190.8z M93.2,183.9c-0.1,0.7-0.7,1.3-1.5,1.3c-0.1,0-0.1,0-0.2,0
				c-0.8-0.1-1.4-0.9-1.3-1.7c0.1-0.8,0.9-1.4,1.7-1.3C92.7,182.3,93.3,183.1,93.2,183.9L93.2,183.9z M105.9,187
				c-2.9,4.7-6.1,9.1-9.7,13.2c-0.3,0.4-0.9-0.2-0.6-0.5c3.6-4,7-8.3,10.1-12.7C105.8,186.8,106,186.9,105.9,187z M106.9,180.2
				c-2.7,6.6-7.7,12.1-12.8,17.1c-0.2,0.2-0.5,0.2-0.7,0c-0.2-0.2-0.2-0.5,0-0.7c1.4-1.4,2.8-2.8,4.1-4.3c4.8-5.1,9.5-11,10.8-18.1
				c0,0,0-0.1,0.1-0.1c0,0,0.1,0,0.1,0.1C108.2,176.3,107.7,178.3,106.9,180.2L106.9,180.2z M109.7,149.3c-0.3,0.4-0.7,0.6-1.2,0.6
				c-0.3,0-0.6-0.1-0.9-0.3c-0.7-0.5-0.8-1.4-0.3-2.1c0.5-0.7,1.4-0.8,2.1-0.3S110.2,148.6,109.7,149.3
				C109.7,149.3,109.7,149.3,109.7,149.3z M112.2,152.5c0.8-0.2,1.6,0.3,1.8,1c0.2,0.8-0.2,1.6-1,1.8c-0.1,0-0.3,0.1-0.4,0.1
				c-0.8,0-1.5-0.7-1.5-1.5C111.1,153.3,111.5,152.7,112.2,152.5z M113,162.4h-0.1c-0.8-0.1-1.4-0.8-1.4-1.6
				c0.1-0.8,0.8-1.4,1.6-1.4l0,0c0.8,0,1.5,0.7,1.4,1.6C114.6,161.8,113.9,162.4,113,162.4z M120.2,138.5c-0.7,1.4-1.8,2.4-3.2,3
				c-3.2,1.4-8.8,1.2-10.5-2.4c-1.5,1-3.2,1.6-5,1.8c-3.8,0.2-7.6-0.9-10.8-3c-1.6-1-2.9-2.3-4-3.8c-1.1-1.9-1.8-3.9-2.3-6
				c-0.1-0.3,0.3-0.6,0.6-0.3c0.9,1.2,2.2,2,3.7,2.1c1.3-0.1,2.6-0.6,3.8-1.3c1.9-1,4-2.4,6.3-2.5c-0.5-0.6-0.9-1.3-1-2.1
				c-0.3-2.1,0.7-4.3,2.7-5.3c3.5-2,9.6-1.3,11.3,2.8c2.4-3,6.2-4.6,10.1-4.1c3.4,0.6,5.8,3.8,5.3,7.2c2.6-1.7,6-1.1,8.7,0.2
				s5.4,3.8,5.9,6.9c0.1,0.6-0.8,1.1-1.1,0.5c-0.4-1-1.2-1.7-2.2-2c-1-0.2-2-0.2-3,0.1c-1.7,0.4-3.3,1.3-4.6,2.4
				c-1.2,1-2.2,2.2-3.3,3.3C125.6,137.6,122.6,140.1,120.2,138.5L120.2,138.5z M149.2,180.1c-2,0.9-4.1,1.7-6.1,2.4
				c-3.7,1.3-7.4,2.3-11.3,3.1c-3.8,0.7-7.6,1.2-11.5,1.4c-0.3,0-0.3-0.4,0-0.4c2.5-0.2,5-0.7,7.5-1.1c2.5-0.5,4.8-1,7.1-1.6
				c4.8-1.3,9.4-2.8,14-4.5C149.3,179.3,149.6,180,149.2,180.1L149.2,180.1z M156,174.4c-0.4-0.4-0.9-0.9-1.3-1.3
				c0,0.6,0,1.2,0.1,1.9c0-0.3-1.7-1.5-2-1.8c-0.6-0.6-1.3-1-1.9-1.6c-1.3-1.2-2.2-2.7-2.6-4.4c-0.2-1.1-0.3-2.4-0.5-3.5
				c-0.3-1.5-0.2-3,0.3-4.4c0.4,1.9,1.1,3.7,2.2,5.3c0.1,0.1,0.2,0.2,0.4,0.3c0.3,0,0.4-0.4,0.4-0.7c0-1.4-0.3-2.8-0.9-4
				c0.5,0.9,1.1,1.7,1.9,2.4c0.9,0.8,1.9,0.6,1.4-0.8c-0.5-1.5-1.6-2.7-3-3.3c1.2,0,2.4,0.5,3.3,1.4c1.4,1.3,2.5,3,2.9,4.9
				C157.6,167.9,156.5,171.1,156,174.4L156,174.4z M154.7,158.3c-1.2-0.4-2.1-1.2-2.7-2.3c1.2,0.9,2.8,1.3,4.3,1.1
				c1.5-0.3,1.2-1.2,0.1-1.7c-1.1-0.4-2.2-0.6-3.3-0.6c1.5,0,2.9-0.4,4.3-1.1c0.3-0.1,0.6-0.5,0.4-0.7c-0.1-0.1-0.3-0.2-0.4-0.2
				c-1.9-0.3-3.9-0.1-5.7,0.5c1-1.1,2.3-1.9,3.8-2.3c1.1-0.4,2.2-0.9,3.4-1.2c1.7-0.4,3.5-0.3,5.1,0.3c0.8,0.3,1.5,0.6,2.3,0.9
				c0.4,0.1,2.2,1.1,2.5,0.9l-1.7,0.8c0.6,0.2,1.2,0.4,1.7,0.6c-2.8,1.9-5,4.4-8.4,5.2C158.5,159.1,156.5,159,154.7,158.3
				L154.7,158.3z M161.5,171.8c-0.3,0-0.5-0.2-0.5-0.5s0.2-0.5,0.5-0.5s0.5,0.2,0.5,0.5S161.8,171.8,161.5,171.8z M165.6,171
				c-0.1,0-0.1,0-0.2,0c-0.2,0-0.4-0.1-0.5-0.3c-0.1-0.2,0-0.5,0.3-0.6c0,0,0,0,0,0c0.3-0.1,0.5,0,0.6,0.3S165.8,170.9,165.6,171
				L165.6,171z M169.1,168.9c-0.1,0.1-0.2,0.1-0.3,0.1c-0.3,0-0.5-0.2-0.5-0.5c0-0.3,0.2-0.5,0.5-0.5c0.1,0,0.3,0.1,0.4,0.2
				C169.4,168.4,169.4,168.7,169.1,168.9C169.1,168.9,169.1,168.9,169.1,168.9L169.1,168.9z M172,166c-0.1,0.1-0.2,0.2-0.4,0.2
				c-0.1,0-0.2,0-0.3-0.1c-0.2-0.2-0.3-0.5-0.1-0.7c0.2-0.2,0.5-0.2,0.7-0.1S172.2,165.8,172,166L172,166L172,166z M174.4,162.7
				c-0.1,0.1-0.3,0.2-0.4,0.2c-0.1,0-0.2,0-0.3-0.1c-0.2-0.1-0.3-0.5-0.2-0.7c0.1-0.2,0.5-0.3,0.7-0.2
				C174.5,162.2,174.5,162.5,174.4,162.7C174.4,162.7,174.4,162.7,174.4,162.7z M175.5,116h-0.1c-0.9,0-1.5-0.8-1.5-1.6
				c0-0.9,0.8-1.5,1.6-1.5s1.5,0.8,1.5,1.6C177,115.3,176.3,116,175.5,116z M179.6,109.3c-0.5,0.6-1.5,0.7-2.1,0.1
				c-0.6-0.5-0.7-1.5-0.1-2.1s1.5-0.7,2.1-0.1c0,0,0,0,0,0C180.1,107.7,180.2,108.7,179.6,109.3L179.6,109.3z M181.1,129.6
				c0.2-0.9,0.4-1.8,0.7-2.7c1-3.5,3.1-6.7,5.9-8.9c0.1-0.1,0.3,0.1,0.2,0.2c-1.4,1.3-2.7,2.8-3.6,4.5c-0.8,1.5-1.4,3.1-1.9,4.8
				c-0.2,0.8-0.4,1.7-0.5,2.5c-0.1,0.7-0.2,1.4-0.1,2.1c0.5,2.5,4.1,2.6,6,3c0.6,0.1,0.4,1-0.1,1c-1.7,0-3.3-0.4-4.9-1
				c-1.3-0.5-2.1-1.7-2.2-3C180.7,131.2,180.8,130.4,181.1,129.6L181.1,129.6z M196.7,173.6c-1.7,0.6-3.7-0.2-4.5-1.9
				c-0.8-1.4-1-3.3-2.4-4.3c-0.8-0.6-1.8-1-2.6-1.6c-0.9-0.6-1.5-1.5-1.9-2.6c-0.2-1-0.2-2.1-0.1-3.1c0.1-0.6-0.1-1.1-0.3-1.6
				c-0.3-0.4-0.7-0.7-1.1-1c-1.8-1.4-2.2-3.8-2.2-6c0-0.2,0.2-0.2,0.2,0c-0.3,2.6,1.1,5.1,3.4,6.3c1.6,1.3,0.6,3.6,1.2,5.2
				c0.7,2,3,2.3,4.4,3.6c1.1,1.1,1.3,2.9,2.1,4.2c0.3,0.6,0.7,1.2,1.3,1.5c0.7,0.3,1.5,0.4,2.3,0.2
				C197.2,172.6,197.2,173.4,196.7,173.6L196.7,173.6z M199.2,165.6c-1.1,0.2-2.2-0.2-3-0.9c-0.6-0.6-1.1-1.3-1.4-2
				c-0.5-0.7-1.1-1.4-1.8-2c-0.7-0.6-1.2-1.3-1.6-2.2c-0.3-1-0.2-2,0.2-3c0-0.1,0.2-0.2,0.3-0.1c0.1,0,0.2,0.2,0.2,0.3
				c-0.4,1.1-0.3,2.4,0.4,3.4c0.7,0.9,1.7,1.4,2.4,2.3s1,1.6,1.6,2.3c0.7,0.8,1.8,1.1,2.8,1C199.8,164.6,199.8,165.5,199.2,165.6
				L199.2,165.6z M200.8,123.4c0.3,1.7,1,3.2,2,4.6c0.1,0.1,0.2,0.2,0.3,0.3c0.3,0,0.4-0.3,0.4-0.6c0-1.2-0.3-2.4-0.8-3.6
				c0.4,0.8,1,1.5,1.7,2.1c0.8,0.7,1.7,0.5,1.3-0.7c-0.4-1.3-1.4-2.4-2.6-2.9c1.1,0,2.1,0.5,2.9,1.2c1.3,1.1,2.2,2.6,2.6,4.3
				c0.7,3-0.3,5.7-0.6,8.7c-0.4-0.4-0.8-0.8-1.2-1.1l0.1,1.6c0-0.3-1.5-1.3-1.7-1.6c-0.5-0.5-1.1-0.9-1.6-1.4
				c-1.1-1-1.9-2.4-2.3-3.9c-0.2-1-0.2-2.1-0.4-3.1C200.3,126,200.4,124.6,200.8,123.4L200.8,123.4z M200.7,137
				c-0.3-0.4,0.3-0.8,0.7-0.5c1.1,1.1,2.3,1.9,3.7,2.6c1.2,0.7,2.5,1,3.9,0.9c1.4-0.2,2.1-1.5,2.4-2.8c0.4-1.8,0.6-3.6,0.4-5.5
				c-0.1-1.7-0.4-3.4-1-5.1c-0.1-0.2,0.2-0.3,0.3-0.1c0.8,2,1.3,4.1,1.4,6.3c0.2,3,0.2,8.2-3.8,8.5c-1.6,0-3.2-0.5-4.6-1.4
				C202.8,139.2,201.7,138.2,200.7,137L200.7,137z M202.2,141.6c1.8,1,3.5,2.3,5.6,2.7c1.7,0.5,3.5,0.1,4.8-1.1
				c0.9-1.1,1.4-2.5,1.6-3.9c0.3-1.4,0.4-2.9,0.7-4.4c0.1-0.6,1.2-0.5,1.1,0.1c-0.1,1.4-0.2,2.9-0.5,4.4c-0.5,2.4-1.5,5.1-4.1,5.8
				c-3.6,0.9-6.6-1.4-9.3-3.3C202,141.7,202.1,141.5,202.2,141.6L202.2,141.6z M213,148.9c-0.1,0-0.2,0.1-0.3,0.1
				c-0.3,0-0.5-0.2-0.5-0.5c0-0.3,0.2-0.5,0.5-0.5c0.2,0,0.3,0.1,0.4,0.2C213.3,148.4,213.3,148.7,213,148.9L213,148.9z M214,169.1
				c-2.1-0.1-3.6-1.4-5.5-2.2c0.3-0.2,0.6-0.3,1-0.5l-1.1-0.3c0.2,0.1,1.1-0.7,1.4-0.8c0.4-0.2,0.8-0.5,1.3-0.8c0.9-0.5,2-0.8,3-0.7
				c0.7,0.1,1.4,0.3,2.1,0.4c0.9,0.1,1.8,0.4,2.5,1c-1.1-0.1-2.3,0-3.4,0.3c-0.1,0-0.2,0.1-0.2,0.1c-0.1,0.2,0.1,0.3,0.3,0.4
				c0.9,0.3,1.8,0.3,2.7,0.2c-0.7,0.1-1.4,0.3-2,0.7c-0.6,0.4-0.7,1,0.2,1c0.9,0,1.8-0.4,2.4-1.1c-0.2,0.7-0.7,1.3-1.4,1.6
				C216.4,168.9,215.2,169.2,214,169.1L214,169.1z M220.9,175.8c-0.3,0.4-0.6,0.7-0.9,1.1c-0.1,0.2-1,1-1,1.2
				c-0.1-0.4-0.1-0.7-0.1-1.1c-0.2,0.3-0.5,0.6-0.7,0.9c-0.6-1.9-1.6-3.6-1.4-5.7c0.1-1.2,0.5-2.2,1.2-3.1c0.4-0.6,1.1-1,1.8-1.1
				c-0.8,0.5-1.3,1.3-1.4,2.3c-0.1,0.9,0.5,0.9,0.9,0.4c0.4-0.6,0.8-1.2,1-1.9c-0.3,0.9-0.4,1.8-0.2,2.7c0,0.2,0.2,0.4,0.3,0.4
				s0.1-0.1,0.2-0.2c0.5-1,0.8-2.2,0.8-3.3c0.5,0.8,0.7,1.7,0.6,2.6c0,0.7,0.1,1.4,0.1,2.1C221.9,174,221.5,175,220.9,175.8
				L220.9,175.8z M220.6,167.6c-0.8-0.1-1.5-0.8-1.4-1.6c0.1-0.8,0.8-1.5,1.6-1.4c0.8,0.1,1.5,0.8,1.4,1.6c0,0,0,0,0,0
				C222.2,167.1,221.5,167.7,220.6,167.6L220.6,167.6z M224.3,170.3c-0.8-0.5-1.4-1.2-1.7-2.1c0.9,0.7,2,1.1,3.1,1.4
				c0.1,0,0.2,0,0.3,0c0.1-0.1,0-0.4-0.1-0.5c-0.6-0.7-1.4-1.2-2.3-1.4c0.7,0.2,1.4,0.4,2.1,0.4c0.7,0,1.1-0.5,0.3-0.9
				c-0.8-0.4-1.8-0.5-2.7-0.2c0.5-0.5,1.3-0.8,2-0.8c1.2,0,2.3,0.3,3.3,0.9c1.8,1.1,2.5,2.9,3.7,4.6h-1l0.8,0.8
				c-0.1-0.1-1.3,0-1.6,0c-0.5,0-1,0.1-1.5,0.1c-1.1,0-2.1-0.3-3-0.8C225.4,171.3,224.9,170.8,224.3,170.3L224.3,170.3z
				 M245.6,206.2c-0.7-2-1.6-4-2.8-5.8c-1-1.6-2.3-3-3.8-4.1c-1.6-1.2-3.4-2-5-3.1c-3.2-2.1-5.8-4.9-7.6-8.3
				c-0.1-0.2,0.2-0.3,0.3-0.1c1.2,1.9,2.7,3.7,4.4,5.1c1.5,1.3,3.2,2.4,5,3.4c1.8,0.9,3.4,1.9,4.9,3.2c2.7,2.6,4.6,5.9,5.6,9.5
				c0,0.3-0.2,0.5-0.5,0.5C245.9,206.4,245.8,206.3,245.6,206.2L245.6,206.2z M247.8,233.7c-0.1,0.1-0.2,0.1-0.3,0.2
				C247.6,233.9,247.7,233.8,247.8,233.7C247.8,233.6,247.9,233.7,247.8,233.7L247.8,233.7z M254.3,197.7c0.1,0.8-0.5,1.6-1.3,1.6
				h-0.2c-0.8,0-1.4-0.6-1.5-1.3c-0.1-0.8,0.5-1.6,1.3-1.7S254.2,196.9,254.3,197.7L254.3,197.7z M250.8,189.7c0.8-0.3,1.6,0,2,0.8
				c0,0,0,0,0,0.1c0.3,0.8-0.1,1.6-0.9,1.9c-0.8,0.3-1.6-0.1-1.9-0.9C249.7,190.8,250.1,190,250.8,189.7L250.8,189.7z M246.3,184.3
				c0.6-0.6,1.6-0.5,2.1,0.1c0.5,0.6,0.5,1.5,0,2c-0.3,0.3-0.7,0.4-1.1,0.4c-0.4,0-0.8-0.2-1.1-0.4
				C245.7,185.9,245.7,184.9,246.3,184.3C246.3,184.3,246.3,184.3,246.3,184.3L246.3,184.3z M248.8,203.5c1.1,3.7,1.4,7.5,0.9,11.3
				c-0.1,0.7-1.1,0.7-1,0c0.1-2.1,0.1-4.2,0-6.3c-0.2-3.6-1.4-7-3.4-9.9c-2.4-3.2-5.4-6-8.9-8l0,0c2,1,4,2.3,5.7,3.7
				C245.2,196.6,247.5,199.8,248.8,203.5L248.8,203.5z M241.6,179.2c0.7-0.5,1.6-0.4,2.1,0.3c0.5,0.7,0.4,1.6-0.3,2.1
				c-0.7,0.5-1.6,0.4-2.1-0.3c0,0,0,0,0,0C240.8,180.6,240.9,179.6,241.6,179.2C241.6,179.1,241.6,179.1,241.6,179.2L241.6,179.2z
				 M239.9,175.5c-0.1,0-0.2,0.1-0.4,0.1c-0.8,0.1-1.6-0.5-1.7-1.3s0.5-1.6,1.3-1.7c0.8-0.2,1.6,0.3,1.8,1.1
				C241.1,174.5,240.7,175.3,239.9,175.5L239.9,175.5L239.9,175.5z M239.4,165.6c0.8,0.1,1.5,0.8,1.4,1.6s-0.8,1.5-1.6,1.4H239
				c-0.8-0.1-1.4-0.9-1.3-1.7C237.8,166.1,238.6,165.5,239.4,165.6L239.4,165.6L239.4,165.6z M131.9,130.7c1.6-1,3.3-1.5,5.2-1.6
				c0.9,0,1.7,0.2,2.4,0.6c-2.4-4-8.1-6.6-12.2-4.1c-0.2,0.1-0.4,0.1-0.5,0c-0.9,3.1-4.1,5.7-7.4,4.6c-1.6-0.5-2.9-1.7-3.5-3.3
				c-0.5-1.6,0.3-3.3,1.7-4.1c1.2-0.8,2.9-0.5,3.8,0.7c0.8,0.8,0.7,2.1-0.1,2.8c-0.2,0.2-0.5,0.4-0.8,0.5c-0.5,0.2-1-0.5-0.5-0.8
				s1.2-0.7,1-1.4c-0.2-0.6-0.6-1.1-1.1-1.3c-1.5-0.8-3.4,0.7-3.5,2.3c0.1,1.3,0.8,2.6,2,3.2c1.2,0.7,2.7,0.8,4,0.3
				c2.6-1.2,4-4,3.4-6.8c-0.7-3.1-3.6-4.5-6.6-4.3c-2.9,0.2-5.7,1.6-7.6,3.8l0,0c0.1,0.4-0.5,0.5-0.6,0.2c-0.9-1.8-2.6-3.1-4.6-3.4
				c-3-0.7-8,0.3-8.3,4.1c-0.1,1,0.2,2,0.9,2.8c0.6,0.8,1.6,1.3,2.7,1.3c0.8-0.2,1.4-1,1.2-1.9c0-0.2-0.1-0.3-0.2-0.4
				c-0.2-0.4-0.6-0.6-1-0.7c-0.5-0.1-0.7,0.3-0.9,0.7c-0.2,0.3-0.5,0.3-0.8,0.2c-0.2-0.1-0.3-0.4-0.2-0.6c0.4-1.7,2.3-1.8,3.4-0.7
				c1.1,1,1.1,2.7,0.1,3.8c-0.1,0.1-0.2,0.2-0.3,0.2c-1.3,1.1-3,0.4-4.2-0.8c-1,0-2,0.3-2.9,0.8c-2,1-3.8,2.5-6,3.2
				c-1,0.3-2,0.3-2.9,0c-0.7-0.3-1.3-0.7-1.8-1.2c0.4,1.6,1,3.1,1.9,4.4c1.1,1.4,2.4,2.6,3.9,3.5c2.7,1.7,5.8,2.6,9,2.6
				c1.5,0,2.9-0.3,4.3-0.9c1.2-0.6,2.7-1.6,2.9-3c0.3-2.4-3.4-5.1-5.3-3c-0.5,0.5-0.6,1.4-0.2,2c0.6,0.8,1.9,0.8,2.8,0.7
				c0.5-0.1,0.8,0.7,0.2,0.8c-1.3,0.3-3,0.2-3.8-1c-0.6-1-0.5-2.2,0.3-3c2.1-2.5,6.5-0.3,7,2.5c0.3,1.5-0.3,3.1-1.6,4
				c0.9,1.3,2.3,2.2,3.8,2.4c1.7,0.3,3.5,0.2,5.2-0.4c1.4-0.5,3-1.6,3.3-3.2c0.3-1.9-1.1-3.7-3.1-4c-0.3,0-0.6,0-0.9,0
				c-0.7,0.1-1.4,0.7-1.2,1.4s1.1,1.2,1.9,1.3c0.5,0.1,0.4,0.9-0.1,0.9c-1.3,0-2.4-0.8-2.7-2c-0.2-1.1,0.4-2.2,1.4-2.5
				c2.6-1.1,5.4,1.2,5.8,3.8c0.1,0.4,0,0.9-0.1,1.3c1.3,0.8,2.8,0.2,4.1-0.7C127.3,135.3,129.1,132.4,131.9,130.7z M127.4,125.7
				c-0.2,0.1-0.4,0.1-0.5,0c-0.9,3.1-4.1,5.7-7.4,4.6c-1.6-0.5-2.9-1.7-3.5-3.3c-0.5-1.6,0.3-3.3,1.7-4.1c1.2-0.8,2.9-0.5,3.8,0.7
				c0.8,0.8,0.7,2.1-0.1,2.8c-0.2,0.2-0.5,0.4-0.8,0.5c-0.5,0.2-1-0.5-0.5-0.8s1.2-0.7,1-1.4c-0.2-0.6-0.6-1.1-1.1-1.3
				c-1.5-0.8-3.4,0.7-3.5,2.3c0.1,1.3,0.8,2.6,2,3.2c1.2,0.7,2.7,0.8,4,0.3c2.6-1.2,4-4,3.4-6.8c-0.7-3.1-3.6-4.5-6.6-4.3
				c-2.9,0.2-5.7,1.6-7.6,3.8l0,0c0.1,0.4-0.5,0.5-0.6,0.2c-0.9-1.8-2.6-3.1-4.6-3.4c-3-0.7-8,0.3-8.3,4.1c-0.1,1,0.2,2,0.9,2.8
				c0.6,0.8,1.6,1.3,2.7,1.3c0.8-0.2,1.4-1,1.2-1.9c0-0.2-0.1-0.3-0.2-0.4c-0.2-0.4-0.6-0.6-1-0.7c-0.5-0.1-0.7,0.3-0.9,0.7
				c-0.2,0.3-0.5,0.3-0.8,0.2c-0.2-0.1-0.3-0.4-0.2-0.6c0.4-1.7,2.3-1.8,3.4-0.7c1.1,1,1.1,2.7,0.1,3.8c-0.1,0.1-0.2,0.2-0.3,0.2
				c-1.3,1.1-3,0.4-4.2-0.8c-1,0-2,0.3-2.9,0.8c-2,1-3.8,2.5-6,3.2c-1,0.3-2,0.3-2.9,0c-0.7-0.3-1.3-0.7-1.8-1.2
				c0.4,1.6,1,3.1,1.9,4.4c1.1,1.4,2.4,2.6,3.9,3.5c2.7,1.7,5.8,2.6,9,2.6c1.5,0,2.9-0.3,4.3-0.9c1.2-0.6,2.7-1.6,2.9-3
				c0.3-2.4-3.4-5.1-5.3-3c-0.5,0.5-0.6,1.4-0.2,2c0.6,0.8,1.9,0.8,2.8,0.7c0.5-0.1,0.8,0.7,0.2,0.8c-1.3,0.3-3,0.2-3.8-1
				c-0.6-1-0.5-2.2,0.3-3c2.1-2.5,6.5-0.3,7,2.5c0.3,1.5-0.3,3.1-1.6,4c0.9,1.3,2.3,2.2,3.8,2.4c1.7,0.3,3.5,0.2,5.2-0.4
				c1.4-0.5,3-1.6,3.3-3.2c0.3-1.9-1.1-3.7-3.1-4c-0.3,0-0.6,0-0.9,0c-0.7,0.1-1.4,0.7-1.2,1.4s1.1,1.2,1.9,1.3
				c0.5,0.1,0.4,0.9-0.1,0.9c-1.3,0-2.4-0.8-2.7-2c-0.2-1.1,0.4-2.2,1.4-2.5c2.6-1.1,5.4,1.2,5.8,3.8c0.1,0.4,0,0.9-0.1,1.3
				c1.3,0.8,2.8,0.2,4.1-0.7c2.7-1.9,4.5-4.8,7.4-6.5c1.6-1,3.3-1.5,5.2-1.6c0.9,0,1.7,0.2,2.4,0.6
				C137.1,125.8,131.5,123.2,127.4,125.7z M127.4,125.7c-0.2,0.1-0.4,0.1-0.5,0c-0.9,3.1-4.1,5.7-7.4,4.6c-1.6-0.5-2.9-1.7-3.5-3.3
				c-0.5-1.6,0.3-3.3,1.7-4.1c1.2-0.8,2.9-0.5,3.8,0.7c0.8,0.8,0.7,2.1-0.1,2.8c-0.2,0.2-0.5,0.4-0.8,0.5c-0.5,0.2-1-0.5-0.5-0.8
				s1.2-0.7,1-1.4c-0.2-0.6-0.6-1.1-1.1-1.3c-1.5-0.8-3.4,0.7-3.5,2.3c0.1,1.3,0.8,2.6,2,3.2c1.2,0.7,2.7,0.8,4,0.3
				c2.6-1.2,4-4,3.4-6.8c-0.7-3.1-3.6-4.5-6.6-4.3c-2.9,0.2-5.7,1.6-7.6,3.8l0,0c0.1,0.4-0.5,0.5-0.6,0.2c-0.9-1.8-2.6-3.1-4.6-3.4
				c-3-0.7-8,0.3-8.3,4.1c-0.1,1,0.2,2,0.9,2.8c0.6,0.8,1.6,1.3,2.7,1.3c0.8-0.2,1.4-1,1.2-1.9c0-0.2-0.1-0.3-0.2-0.4
				c-0.2-0.4-0.6-0.6-1-0.7c-0.5-0.1-0.7,0.3-0.9,0.7c-0.2,0.3-0.5,0.3-0.8,0.2c-0.2-0.1-0.3-0.4-0.2-0.6c0.4-1.7,2.3-1.8,3.4-0.7
				c1.1,1,1.1,2.7,0.1,3.8c-0.1,0.1-0.2,0.2-0.3,0.2c-1.3,1.1-3,0.4-4.2-0.8c-1,0-2,0.3-2.9,0.8c-2,1-3.8,2.5-6,3.2
				c-1,0.3-2,0.3-2.9,0c-0.7-0.3-1.3-0.7-1.8-1.2c0.4,1.6,1,3.1,1.9,4.4c1.1,1.4,2.4,2.6,3.9,3.5c2.7,1.7,5.8,2.6,9,2.6
				c1.5,0,2.9-0.3,4.3-0.9c1.2-0.6,2.7-1.6,2.9-3c0.3-2.4-3.4-5.1-5.3-3c-0.5,0.5-0.6,1.4-0.2,2c0.6,0.8,1.9,0.8,2.8,0.7
				c0.5-0.1,0.8,0.7,0.2,0.8c-1.3,0.3-3,0.2-3.8-1c-0.6-1-0.5-2.2,0.3-3c2.1-2.5,6.5-0.3,7,2.5c0.3,1.5-0.3,3.1-1.6,4
				c0.9,1.3,2.3,2.2,3.8,2.4c1.7,0.3,3.5,0.2,5.2-0.4c1.4-0.5,3-1.6,3.3-3.2c0.3-1.9-1.1-3.7-3.1-4c-0.3,0-0.6,0-0.9,0
				c-0.7,0.1-1.4,0.7-1.2,1.4s1.1,1.2,1.9,1.3c0.5,0.1,0.4,0.9-0.1,0.9c-1.3,0-2.4-0.8-2.7-2c-0.2-1.1,0.4-2.2,1.4-2.5
				c2.6-1.1,5.4,1.2,5.8,3.8c0.1,0.4,0,0.9-0.1,1.3c1.3,0.8,2.8,0.2,4.1-0.7c2.7-1.9,4.5-4.8,7.4-6.5c1.6-1,3.3-1.5,5.2-1.6
				c0.9,0,1.7,0.2,2.4,0.6C137.1,125.8,131.5,123.2,127.4,125.7z M127.4,125.7c-0.2,0.1-0.4,0.1-0.5,0c-0.9,3.1-4.1,5.7-7.4,4.6
				c-1.6-0.5-2.9-1.7-3.5-3.3c-0.5-1.6,0.3-3.3,1.7-4.1c1.2-0.8,2.9-0.5,3.8,0.7c0.8,0.8,0.7,2.1-0.1,2.8c-0.2,0.2-0.5,0.4-0.8,0.5
				c-0.5,0.2-1-0.5-0.5-0.8s1.2-0.7,1-1.4c-0.2-0.6-0.6-1.1-1.1-1.3c-1.5-0.8-3.4,0.7-3.5,2.3c0.1,1.3,0.8,2.6,2,3.2
				c1.2,0.7,2.7,0.8,4,0.3c2.6-1.2,4-4,3.4-6.8c-0.7-3.1-3.6-4.5-6.6-4.3c-2.9,0.2-5.7,1.6-7.6,3.8l0,0c0.1,0.4-0.5,0.5-0.6,0.2
				c-0.9-1.8-2.6-3.1-4.6-3.4c-3-0.7-8,0.3-8.3,4.1c-0.1,1,0.2,2,0.9,2.8c0.6,0.8,1.6,1.3,2.7,1.3c0.8-0.2,1.4-1,1.2-1.9
				c0-0.2-0.1-0.3-0.2-0.4c-0.2-0.4-0.6-0.6-1-0.7c-0.5-0.1-0.7,0.3-0.9,0.7c-0.2,0.3-0.5,0.3-0.8,0.2c-0.2-0.1-0.3-0.4-0.2-0.6
				c0.4-1.7,2.3-1.8,3.4-0.7c1.1,1,1.1,2.7,0.1,3.8c-0.1,0.1-0.2,0.2-0.3,0.2c-1.3,1.1-3,0.4-4.2-0.8c-1,0-2,0.3-2.9,0.8
				c-2,1-3.8,2.5-6,3.2c-1,0.3-2,0.3-2.9,0c-0.7-0.3-1.3-0.7-1.8-1.2c0.4,1.6,1,3.1,1.9,4.4c1.1,1.4,2.4,2.6,3.9,3.5
				c2.7,1.7,5.8,2.6,9,2.6c1.5,0,2.9-0.3,4.3-0.9c1.2-0.6,2.7-1.6,2.9-3c0.3-2.4-3.4-5.1-5.3-3c-0.5,0.5-0.6,1.4-0.2,2
				c0.6,0.8,1.9,0.8,2.8,0.7c0.5-0.1,0.8,0.7,0.2,0.8c-1.3,0.3-3,0.2-3.8-1c-0.6-1-0.5-2.2,0.3-3c2.1-2.5,6.5-0.3,7,2.5
				c0.3,1.5-0.3,3.1-1.6,4c0.9,1.3,2.3,2.2,3.8,2.4c1.7,0.3,3.5,0.2,5.2-0.4c1.4-0.5,3-1.6,3.3-3.2c0.3-1.9-1.1-3.7-3.1-4
				c-0.3,0-0.6,0-0.9,0c-0.7,0.1-1.4,0.7-1.2,1.4s1.1,1.2,1.9,1.3c0.5,0.1,0.4,0.9-0.1,0.9c-1.3,0-2.4-0.8-2.7-2
				c-0.2-1.1,0.4-2.2,1.4-2.5c2.6-1.1,5.4,1.2,5.8,3.8c0.1,0.4,0,0.9-0.1,1.3c1.3,0.8,2.8,0.2,4.1-0.7c2.7-1.9,4.5-4.8,7.4-6.5
				c1.6-1,3.3-1.5,5.2-1.6c0.9,0,1.7,0.2,2.4,0.6C137.1,125.8,131.5,123.2,127.4,125.7z M127.4,125.7c-0.2,0.1-0.4,0.1-0.5,0
				c-0.9,3.1-4.1,5.7-7.4,4.6c-1.6-0.5-2.9-1.7-3.5-3.3c-0.5-1.6,0.3-3.3,1.7-4.1c1.2-0.8,2.9-0.5,3.8,0.7c0.8,0.8,0.7,2.1-0.1,2.8
				c-0.2,0.2-0.5,0.4-0.8,0.5c-0.5,0.2-1-0.5-0.5-0.8s1.2-0.7,1-1.4c-0.2-0.6-0.6-1.1-1.1-1.3c-1.5-0.8-3.4,0.7-3.5,2.3
				c0.1,1.3,0.8,2.6,2,3.2c1.2,0.7,2.7,0.8,4,0.3c2.6-1.2,4-4,3.4-6.8c-0.7-3.1-3.6-4.5-6.6-4.3c-2.9,0.2-5.7,1.6-7.6,3.8l0,0
				c0.1,0.4-0.5,0.5-0.6,0.2c-0.9-1.8-2.6-3.1-4.6-3.4c-3-0.7-8,0.3-8.3,4.1c-0.1,1,0.2,2,0.9,2.8c0.6,0.8,1.6,1.3,2.7,1.3
				c0.8-0.2,1.4-1,1.2-1.9c0-0.2-0.1-0.3-0.2-0.4c-0.2-0.4-0.6-0.6-1-0.7c-0.5-0.1-0.7,0.3-0.9,0.7c-0.2,0.3-0.5,0.3-0.8,0.2
				c-0.2-0.1-0.3-0.4-0.2-0.6c0.4-1.7,2.3-1.8,3.4-0.7c1.1,1,1.1,2.7,0.1,3.8c-0.1,0.1-0.2,0.2-0.3,0.2c-1.3,1.1-3,0.4-4.2-0.8
				c-1,0-2,0.3-2.9,0.8c-2,1-3.8,2.5-6,3.2c-1,0.3-2,0.3-2.9,0c-0.7-0.3-1.3-0.7-1.8-1.2c0.4,1.6,1,3.1,1.9,4.4
				c1.1,1.4,2.4,2.6,3.9,3.5c2.7,1.7,5.8,2.6,9,2.6c1.5,0,2.9-0.3,4.3-0.9c1.2-0.6,2.7-1.6,2.9-3c0.3-2.4-3.4-5.1-5.3-3
				c-0.5,0.5-0.6,1.4-0.2,2c0.6,0.8,1.9,0.8,2.8,0.7c0.5-0.1,0.8,0.7,0.2,0.8c-1.3,0.3-3,0.2-3.8-1c-0.6-1-0.5-2.2,0.3-3
				c2.1-2.5,6.5-0.3,7,2.5c0.3,1.5-0.3,3.1-1.6,4c0.9,1.3,2.3,2.2,3.8,2.4c1.7,0.3,3.5,0.2,5.2-0.4c1.4-0.5,3-1.6,3.3-3.2
				c0.3-1.9-1.1-3.7-3.1-4c-0.3,0-0.6,0-0.9,0c-0.7,0.1-1.4,0.7-1.2,1.4s1.1,1.2,1.9,1.3c0.5,0.1,0.4,0.9-0.1,0.9
				c-1.3,0-2.4-0.8-2.7-2c-0.2-1.1,0.4-2.2,1.4-2.5c2.6-1.1,5.4,1.2,5.8,3.8c0.1,0.4,0,0.9-0.1,1.3c1.3,0.8,2.8,0.2,4.1-0.7
				c2.7-1.9,4.5-4.8,7.4-6.5c1.6-1,3.3-1.5,5.2-1.6c0.9,0,1.7,0.2,2.4,0.6C137.1,125.8,131.5,123.2,127.4,125.7z"/>
			
				<linearGradient id="SVGID_2_" gradientUnits="userSpaceOnUse" x1="12.75" y1="16.9" x2="297.24" y2="16.9" gradientTransform="matrix(1 0 0 -1 0 256)">
				<stop  offset="0" style="stop-color:#D59E38"/>
				<stop  offset="0.14" style="stop-color:#D7A33E"/>
				<stop  offset="0.33" style="stop-color:#DDAF50"/>
				<stop  offset="0.55" style="stop-color:#E6C46C"/>
				<stop  offset="0.79" style="stop-color:#F4E294"/>
				<stop  offset="0.9" style="stop-color:#FAF0A7"/>
				<stop  offset="1" style="stop-color:#EFCE6E"/>
			</linearGradient>
			<path class="st1" d="M12.8,239.1l8.9-0.3l8.9-0.2l17.8-0.4c11.8-0.2,23.7-0.4,35.6-0.6c11.8-0.2,23.7-0.2,35.6-0.3l35.6-0.1
				l35.6,0.1c11.9,0.1,23.7,0.1,35.6,0.3s23.7,0.4,35.6,0.6l17.8,0.4l8.9,0.2l8.9,0.3l-8.9,0.3l-8.9,0.2l-17.8,0.4
				c-11.9,0.2-23.7,0.4-35.6,0.6s-23.7,0.2-35.6,0.3l-35.6,0.1l-35.6-0.1c-11.8-0.1-23.7-0.1-35.6-0.3s-23.7-0.3-35.6-0.6l-17.8-0.4
				l-8.9-0.2L12.8,239.1z"/>
		</g>
	</g>
</g>
</svg>
