<?xml version="1.0" encoding="utf-8"?>
<!-- Generator: Adobe Illustrator 24.3.0, SVG Export Plug-In . SVG Version: 6.00 Build 0)  -->
<svg version="1.1" id="Layer_1" xmlns="http://www.w3.org/2000/svg" xmlns:xlink="http://www.w3.org/1999/xlink" x="0px" y="0px"
	 viewBox="0 0 41.1 40.9" style="enable-background:new 0 0 41.1 40.9;" xml:space="preserve">
<style type="text/css">
	.st0{fill:url(#SVGID_1_);}
	.st1{fill:url(#SVGID_2_);}
	.st2{fill:url(#SVGID_3_);}
	.st3{fill:url(#SVGID_4_);}
	.st4{fill:url(#SVGID_5_);}
	.st5{fill:url(#SVGID_6_);}
	.st6{fill:url(#SVGID_7_);}
	.st7{fill:url(#SVGID_8_);}
	.st8{fill:url(#SVGID_9_);}
	.st9{fill:url(#SVGID_10_);}
	.st10{fill:url(#SVGID_11_);}
	.st11{fill:url(#SVGID_12_);}
	.st12{fill:url(#SVGID_13_);}
	.st13{fill:url(#SVGID_14_);}
	.st14{fill:url(#SVGID_15_);}
	.st15{fill:url(#SVGID_16_);}
	.st16{fill:url(#SVGID_17_);}
	.st17{fill:url(#SVGID_18_);}
	.st18{fill:url(#SVGID_19_);}
	.st19{fill:url(#SVGID_20_);}
	.st20{fill:url(#SVGID_21_);}
	.st21{fill:url(#SVGID_22_);}
	.st22{fill:url(#SVGID_23_);}
	.st23{fill:url(#SVGID_24_);}
</style>
<g id="Layer_2_1_">
	<g id="Layer_1-2">
		
			<linearGradient id="SVGID_1_" gradientUnits="userSpaceOnUse" x1="181.3088" y1="350.495" x2="199.2788" y2="350.495" gradientTransform="matrix(0.9894 0.1454 0.1454 -0.9894 -217.414 329.8798)">
			<stop  offset="0" style="stop-color:#E9C156"/>
			<stop  offset="3.000000e-02" style="stop-color:#CA9E44"/>
			<stop  offset="6.000000e-02" style="stop-color:#AC7D32"/>
			<stop  offset="9.000000e-02" style="stop-color:#976525"/>
			<stop  offset="0.12" style="stop-color:#89571E"/>
			<stop  offset="0.15" style="stop-color:#85521B"/>
			<stop  offset="0.24" style="stop-color:#B07B29"/>
			<stop  offset="0.33" style="stop-color:#E1AB39"/>
			<stop  offset="0.34" style="stop-color:#E3B141"/>
			<stop  offset="0.38" style="stop-color:#EDCD66"/>
			<stop  offset="0.41" style="stop-color:#F5E384"/>
			<stop  offset="0.45" style="stop-color:#FBF299"/>
			<stop  offset="0.49" style="stop-color:#FEFCA6"/>
			<stop  offset="0.52" style="stop-color:#FFFFAA"/>
			<stop  offset="0.54" style="stop-color:#FDFAA3"/>
			<stop  offset="0.57" style="stop-color:#F8EC90"/>
			<stop  offset="0.61" style="stop-color:#F0D470"/>
			<stop  offset="0.65" style="stop-color:#E4B445"/>
			<stop  offset="0.66" style="stop-color:#E1AB39"/>
			<stop  offset="0.7" style="stop-color:#C69130"/>
			<stop  offset="0.8" style="stop-color:#915D1F"/>
			<stop  offset="0.85" style="stop-color:#7C4918"/>
			<stop  offset="0.87" style="stop-color:#8E5D22"/>
			<stop  offset="0.93" style="stop-color:#BF933E"/>
			<stop  offset="0.98" style="stop-color:#DDB44F"/>
			<stop  offset="1" style="stop-color:#E9C156"/>
		</linearGradient>
		<path class="st0" d="M20.2,21.1l-0.1-0.2c-0.5-0.7-0.9-1.3-1.2-1.9c-1.9-2.7-3.4-5.6-4.6-8.7c-1.6-3.8-0.9-7.3,1.9-9.2
			c2-1.5,4.8-1.5,6.8,0c2.5-1,5.4-0.1,7,2.1c1.6,2.1,2.3,5.6-0.6,9.3c-2.1,2.7-4.5,5-7.2,7.1c-0.6,0.5-1.1,0.9-1.7,1.4L20.2,21.1z
			 M19.7,0.4c-1.2,0-2.3,0.4-3.3,1.1c-2.6,1.8-3.2,5.1-1.7,8.7c1.1,3.1,2.7,6,4.5,8.6c0.4,0.5,0.7,1,1.1,1.7c0.5-0.4,1-0.8,1.6-1.2
			c2.7-2,5.1-4.3,7.1-7c2.4-2.9,2.6-6.2,0.6-8.8c-1.5-2.1-4.2-2.9-6.6-1.9l-0.1,0.1l-0.1-0.1C21.9,0.8,20.8,0.4,19.7,0.4z"/>
		
			<linearGradient id="SVGID_2_" gradientUnits="userSpaceOnUse" x1="169.4932" y1="344.7637" x2="190.4732" y2="344.7637" gradientTransform="matrix(0.9894 0.1454 0.1454 -0.9894 -217.414 329.8798)">
			<stop  offset="0" style="stop-color:#E9C156"/>
			<stop  offset="3.000000e-02" style="stop-color:#CA9E44"/>
			<stop  offset="6.000000e-02" style="stop-color:#AC7D32"/>
			<stop  offset="9.000000e-02" style="stop-color:#976525"/>
			<stop  offset="0.12" style="stop-color:#89571E"/>
			<stop  offset="0.15" style="stop-color:#85521B"/>
			<stop  offset="0.24" style="stop-color:#B07B29"/>
			<stop  offset="0.33" style="stop-color:#E1AB39"/>
			<stop  offset="0.34" style="stop-color:#E3B141"/>
			<stop  offset="0.38" style="stop-color:#EDCD66"/>
			<stop  offset="0.41" style="stop-color:#F5E384"/>
			<stop  offset="0.45" style="stop-color:#FBF299"/>
			<stop  offset="0.49" style="stop-color:#FEFCA6"/>
			<stop  offset="0.52" style="stop-color:#FFFFAA"/>
			<stop  offset="0.54" style="stop-color:#FDFAA3"/>
			<stop  offset="0.57" style="stop-color:#F8EC90"/>
			<stop  offset="0.61" style="stop-color:#F0D470"/>
			<stop  offset="0.65" style="stop-color:#E4B445"/>
			<stop  offset="0.66" style="stop-color:#E1AB39"/>
			<stop  offset="0.7" style="stop-color:#C69130"/>
			<stop  offset="0.8" style="stop-color:#915D1F"/>
			<stop  offset="0.85" style="stop-color:#7C4918"/>
			<stop  offset="0.87" style="stop-color:#8E5D22"/>
			<stop  offset="0.93" style="stop-color:#BF933E"/>
			<stop  offset="0.98" style="stop-color:#DDB44F"/>
			<stop  offset="1" style="stop-color:#E9C156"/>
		</linearGradient>
		<path class="st1" d="M7.5,23.3c-3.7,0-6.3-1.7-7.3-4.6c-0.8-2.4,0-5.1,2.1-6.5C2.3,9.5,4,7,6.6,6.2c2.5-0.9,6.1-0.5,8.6,3.4
			c1.9,2.8,3.4,5.8,4.5,9c0.3,0.7,0.5,1.4,0.8,2.1l0.1,0.2L20.3,21c-0.8,0.2-1.5,0.4-2.1,0.6c-3.2,1-6.4,1.5-9.7,1.7L7.5,23.3z
			 M8.9,6.2c-0.7,0-1.5,0.1-2.2,0.4c-2.4,0.8-4,3.1-3.9,5.6v0.1l-0.1,0.1c-2,1.3-2.8,3.8-2,6.1c0.9,3,3.8,4.6,7.8,4.3
			c3.3-0.1,6.5-0.7,9.6-1.6l2-0.5c-0.3-0.6-0.5-1.2-0.7-1.9c-1.1-3.2-2.6-6.2-4.4-8.9C13.3,7.5,11.2,6.2,8.9,6.2z"/>
		
			<linearGradient id="SVGID_3_" gradientUnits="userSpaceOnUse" x1="173.3921" y1="330.742" x2="190.9421" y2="330.742" gradientTransform="matrix(0.9894 0.1454 0.1454 -0.9894 -217.414 329.8798)">
			<stop  offset="0" style="stop-color:#E9C156"/>
			<stop  offset="3.000000e-02" style="stop-color:#CA9E44"/>
			<stop  offset="6.000000e-02" style="stop-color:#AC7D32"/>
			<stop  offset="9.000000e-02" style="stop-color:#976525"/>
			<stop  offset="0.12" style="stop-color:#89571E"/>
			<stop  offset="0.15" style="stop-color:#85521B"/>
			<stop  offset="0.24" style="stop-color:#B07B29"/>
			<stop  offset="0.33" style="stop-color:#E1AB39"/>
			<stop  offset="0.34" style="stop-color:#E3B141"/>
			<stop  offset="0.38" style="stop-color:#EDCD66"/>
			<stop  offset="0.41" style="stop-color:#F5E384"/>
			<stop  offset="0.45" style="stop-color:#FBF299"/>
			<stop  offset="0.49" style="stop-color:#FEFCA6"/>
			<stop  offset="0.52" style="stop-color:#FFFFAA"/>
			<stop  offset="0.54" style="stop-color:#FDFAA3"/>
			<stop  offset="0.57" style="stop-color:#F8EC90"/>
			<stop  offset="0.61" style="stop-color:#F0D470"/>
			<stop  offset="0.65" style="stop-color:#E4B445"/>
			<stop  offset="0.66" style="stop-color:#E1AB39"/>
			<stop  offset="0.7" style="stop-color:#C69130"/>
			<stop  offset="0.8" style="stop-color:#915D1F"/>
			<stop  offset="0.85" style="stop-color:#7C4918"/>
			<stop  offset="0.87" style="stop-color:#8E5D22"/>
			<stop  offset="0.93" style="stop-color:#BF933E"/>
			<stop  offset="0.98" style="stop-color:#DDB44F"/>
			<stop  offset="1" style="stop-color:#E9C156"/>
		</linearGradient>
		<path class="st2" d="M12.1,39.1H12c-2.5,0.1-4.8-1.6-5.5-4c-2.6-0.7-4.4-3.1-4.4-5.8c-0.1-2.6,1.4-5.9,6-7.1c3.2-1,6.6-1.4,10-1.5
			c0.8,0,1.5,0,2.2-0.1h0.2v0.2c0,0.8-0.1,1.5-0.1,2.2c-0.1,3.3-0.5,6.6-1.4,9.7C18,36.8,15.4,39.1,12.1,39.1z M20,21
			c-0.7,0-1.3,0.1-2,0.1c-3.3,0-6.7,0.5-9.9,1.5c-3.7,1-5.8,3.5-5.7,6.7c0,2.6,1.7,4.8,4.2,5.5h0.1v0.1c0.6,2.3,2.8,4,5.2,3.9h0.1
			c3.1,0,5.5-2.3,6.4-6c0.9-3.2,1.4-6.4,1.5-9.7C20,22.4,20,21.8,20,21z"/>
		
			<linearGradient id="SVGID_4_" gradientUnits="userSpaceOnUse" x1="189.2621" y1="330.796" x2="207.0212" y2="330.796" gradientTransform="matrix(0.9894 0.1454 0.1454 -0.9894 -217.414 329.8798)">
			<stop  offset="0" style="stop-color:#E9C156"/>
			<stop  offset="3.000000e-02" style="stop-color:#CA9E44"/>
			<stop  offset="6.000000e-02" style="stop-color:#AC7D32"/>
			<stop  offset="9.000000e-02" style="stop-color:#976525"/>
			<stop  offset="0.12" style="stop-color:#89571E"/>
			<stop  offset="0.15" style="stop-color:#85521B"/>
			<stop  offset="0.24" style="stop-color:#B07B29"/>
			<stop  offset="0.33" style="stop-color:#E1AB39"/>
			<stop  offset="0.34" style="stop-color:#E3B141"/>
			<stop  offset="0.38" style="stop-color:#EDCD66"/>
			<stop  offset="0.41" style="stop-color:#F5E384"/>
			<stop  offset="0.45" style="stop-color:#FBF299"/>
			<stop  offset="0.49" style="stop-color:#FEFCA6"/>
			<stop  offset="0.52" style="stop-color:#FFFFAA"/>
			<stop  offset="0.54" style="stop-color:#FDFAA3"/>
			<stop  offset="0.57" style="stop-color:#F8EC90"/>
			<stop  offset="0.61" style="stop-color:#F0D470"/>
			<stop  offset="0.65" style="stop-color:#E4B445"/>
			<stop  offset="0.66" style="stop-color:#E1AB39"/>
			<stop  offset="0.7" style="stop-color:#C69130"/>
			<stop  offset="0.8" style="stop-color:#915D1F"/>
			<stop  offset="0.85" style="stop-color:#7C4918"/>
			<stop  offset="0.87" style="stop-color:#8E5D22"/>
			<stop  offset="0.93" style="stop-color:#BF933E"/>
			<stop  offset="0.98" style="stop-color:#DDB44F"/>
			<stop  offset="1" style="stop-color:#E9C156"/>
		</linearGradient>
		<path class="st3" d="M24.6,40.9c-0.6,0-1.3-0.1-1.9-0.3c-2.5-0.7-5.2-3.2-5-7.9c0.1-3.4,0.7-6.7,1.7-9.9c0.2-0.7,0.4-1.4,0.6-2.1
			l0-0.2l0.2,0.1c0.8,0.3,1.5,0.5,2.1,0.8c3.1,1.1,6.1,2.5,8.8,4.4c3.5,2.2,5,5.4,3.9,8.5c-0.7,2.4-3,4.1-5.5,4
			C28.5,40,26.6,41,24.6,40.9z M20.4,21.1c-0.2,0.7-0.4,1.3-0.5,1.9c-1,3.2-1.6,6.5-1.7,9.8c-0.2,3.8,1.5,6.6,4.6,7.5
			c2.4,0.8,5.1-0.1,6.5-2.3l0.1-0.1h0.1c2.4,0.1,4.6-1.4,5.2-3.7c1-3-0.4-6-3.7-8.1c-2.7-1.8-5.7-3.3-8.7-4.3
			C21.7,21.6,21.1,21.4,20.4,21.1z"/>
		
			<linearGradient id="SVGID_5_" gradientUnits="userSpaceOnUse" x1="189.9021" y1="344.5987" x2="210.8602" y2="344.5987" gradientTransform="matrix(0.9894 0.1454 0.1454 -0.9894 -217.414 329.8798)">
			<stop  offset="0" style="stop-color:#E9C156"/>
			<stop  offset="3.000000e-02" style="stop-color:#CA9E44"/>
			<stop  offset="6.000000e-02" style="stop-color:#AC7D32"/>
			<stop  offset="9.000000e-02" style="stop-color:#976525"/>
			<stop  offset="0.12" style="stop-color:#89571E"/>
			<stop  offset="0.15" style="stop-color:#85521B"/>
			<stop  offset="0.24" style="stop-color:#B07B29"/>
			<stop  offset="0.33" style="stop-color:#E1AB39"/>
			<stop  offset="0.34" style="stop-color:#E3B141"/>
			<stop  offset="0.38" style="stop-color:#EDCD66"/>
			<stop  offset="0.41" style="stop-color:#F5E384"/>
			<stop  offset="0.45" style="stop-color:#FBF299"/>
			<stop  offset="0.49" style="stop-color:#FEFCA6"/>
			<stop  offset="0.52" style="stop-color:#FFFFAA"/>
			<stop  offset="0.54" style="stop-color:#FDFAA3"/>
			<stop  offset="0.57" style="stop-color:#F8EC90"/>
			<stop  offset="0.61" style="stop-color:#F0D470"/>
			<stop  offset="0.65" style="stop-color:#E4B445"/>
			<stop  offset="0.66" style="stop-color:#E1AB39"/>
			<stop  offset="0.7" style="stop-color:#C69130"/>
			<stop  offset="0.8" style="stop-color:#915D1F"/>
			<stop  offset="0.85" style="stop-color:#7C4918"/>
			<stop  offset="0.87" style="stop-color:#8E5D22"/>
			<stop  offset="0.93" style="stop-color:#BF933E"/>
			<stop  offset="0.98" style="stop-color:#DDB44F"/>
			<stop  offset="1" style="stop-color:#E9C156"/>
		</linearGradient>
		<path class="st4" d="M34.3,27.5c-1.2,0-2.3-0.2-3.4-0.7c-3.2-1.1-6.2-2.7-8.9-4.7c-0.6-0.4-1.2-0.8-1.8-1.2L20,20.9l0.1-0.2
			c0.5-0.6,1-1.2,1.4-1.8c2-2.6,4.3-5,6.9-7c3.1-2.7,6.6-3.1,9.3-1.1c2.1,1.4,3,4.1,2.1,6.5c1.7,2.1,1.7,5.1,0.1,7.3
			C38.7,26.5,36.5,27.6,34.3,27.5z M20.6,20.8c0.6,0.4,1.1,0.7,1.6,1.1c2.7,1.9,5.7,3.5,8.9,4.6c3.5,1.4,6.7,0.6,8.5-2.1
			c1.5-2.1,1.4-4.9-0.2-6.9l-0.1-0.1v-0.1c0.8-2.2,0.1-4.8-1.9-6.1c-2.5-1.9-5.8-1.5-8.8,1.1c-2.6,2-4.8,4.4-6.8,7
			C21.4,19.7,21,20.2,20.6,20.8z"/>
		
			<linearGradient id="SVGID_6_" gradientUnits="userSpaceOnUse" x1="20" y1="27.0423" x2="21.9843" y2="27.0423" gradientTransform="matrix(1 0 0 -1 0 42)">
			<stop  offset="0" style="stop-color:#E9C156"/>
			<stop  offset="3.000000e-02" style="stop-color:#CA9E44"/>
			<stop  offset="6.000000e-02" style="stop-color:#AC7D32"/>
			<stop  offset="9.000000e-02" style="stop-color:#976525"/>
			<stop  offset="0.12" style="stop-color:#89571E"/>
			<stop  offset="0.15" style="stop-color:#85521B"/>
			<stop  offset="0.24" style="stop-color:#B07B29"/>
			<stop  offset="0.33" style="stop-color:#E1AB39"/>
			<stop  offset="0.34" style="stop-color:#E3B141"/>
			<stop  offset="0.38" style="stop-color:#EDCD66"/>
			<stop  offset="0.41" style="stop-color:#F5E384"/>
			<stop  offset="0.45" style="stop-color:#FBF299"/>
			<stop  offset="0.49" style="stop-color:#FEFCA6"/>
			<stop  offset="0.52" style="stop-color:#FFFFAA"/>
			<stop  offset="0.54" style="stop-color:#FDFAA3"/>
			<stop  offset="0.57" style="stop-color:#F8EC90"/>
			<stop  offset="0.61" style="stop-color:#F0D470"/>
			<stop  offset="0.65" style="stop-color:#E4B445"/>
			<stop  offset="0.66" style="stop-color:#E1AB39"/>
			<stop  offset="0.7" style="stop-color:#C69130"/>
			<stop  offset="0.8" style="stop-color:#915D1F"/>
			<stop  offset="0.85" style="stop-color:#7C4918"/>
			<stop  offset="0.87" style="stop-color:#8E5D22"/>
			<stop  offset="0.93" style="stop-color:#BF933E"/>
			<stop  offset="0.98" style="stop-color:#DDB44F"/>
			<stop  offset="1" style="stop-color:#E9C156"/>
		</linearGradient>
		<path class="st5" d="M20,20.1l1.9-10.7c0,0,0-0.1,0.1-0.1c0,0,0,0,0,0c0,0,0.1,0,0.1,0c0,0,0,0,0,0l-1.3,10.8
			c0,0.2-0.1,0.3-0.3,0.3c-0.2,0-0.3-0.1-0.3-0.3C20,20.2,20,20.2,20,20.1L20,20.1z"/>
		
			<linearGradient id="SVGID_7_" gradientUnits="userSpaceOnUse" x1="18.069" y1="27.0478" x2="20.6439" y2="27.0478" gradientTransform="matrix(1 0 0 -1 0 42)">
			<stop  offset="0" style="stop-color:#E9C156"/>
			<stop  offset="3.000000e-02" style="stop-color:#CA9E44"/>
			<stop  offset="6.000000e-02" style="stop-color:#AC7D32"/>
			<stop  offset="9.000000e-02" style="stop-color:#976525"/>
			<stop  offset="0.12" style="stop-color:#89571E"/>
			<stop  offset="0.15" style="stop-color:#85521B"/>
			<stop  offset="0.24" style="stop-color:#B07B29"/>
			<stop  offset="0.33" style="stop-color:#E1AB39"/>
			<stop  offset="0.34" style="stop-color:#E3B141"/>
			<stop  offset="0.38" style="stop-color:#EDCD66"/>
			<stop  offset="0.41" style="stop-color:#F5E384"/>
			<stop  offset="0.45" style="stop-color:#FBF299"/>
			<stop  offset="0.49" style="stop-color:#FEFCA6"/>
			<stop  offset="0.52" style="stop-color:#FFFFAA"/>
			<stop  offset="0.54" style="stop-color:#FDFAA3"/>
			<stop  offset="0.57" style="stop-color:#F8EC90"/>
			<stop  offset="0.61" style="stop-color:#F0D470"/>
			<stop  offset="0.65" style="stop-color:#E4B445"/>
			<stop  offset="0.66" style="stop-color:#E1AB39"/>
			<stop  offset="0.7" style="stop-color:#C69130"/>
			<stop  offset="0.8" style="stop-color:#915D1F"/>
			<stop  offset="0.85" style="stop-color:#7C4918"/>
			<stop  offset="0.87" style="stop-color:#8E5D22"/>
			<stop  offset="0.93" style="stop-color:#BF933E"/>
			<stop  offset="0.98" style="stop-color:#DDB44F"/>
			<stop  offset="1" style="stop-color:#E9C156"/>
		</linearGradient>
		<path class="st6" d="M20,20.3L18.1,9.5c0,0,0-0.1,0-0.1c0,0,0,0,0,0c0,0,0.1,0,0.1,0l2.4,10.6c0,0.2-0.1,0.3-0.3,0.4
			C20.2,20.5,20.1,20.4,20,20.3L20,20.3z"/>
		
			<linearGradient id="SVGID_8_" gradientUnits="userSpaceOnUse" x1="14.5313" y1="26.3242" x2="20.6409" y2="26.3242" gradientTransform="matrix(1 0 0 -1 0 42)">
			<stop  offset="0" style="stop-color:#E9C156"/>
			<stop  offset="3.000000e-02" style="stop-color:#CA9E44"/>
			<stop  offset="6.000000e-02" style="stop-color:#AC7D32"/>
			<stop  offset="9.000000e-02" style="stop-color:#976525"/>
			<stop  offset="0.12" style="stop-color:#89571E"/>
			<stop  offset="0.15" style="stop-color:#85521B"/>
			<stop  offset="0.24" style="stop-color:#B07B29"/>
			<stop  offset="0.33" style="stop-color:#E1AB39"/>
			<stop  offset="0.34" style="stop-color:#E3B141"/>
			<stop  offset="0.38" style="stop-color:#EDCD66"/>
			<stop  offset="0.41" style="stop-color:#F5E384"/>
			<stop  offset="0.45" style="stop-color:#FBF299"/>
			<stop  offset="0.49" style="stop-color:#FEFCA6"/>
			<stop  offset="0.52" style="stop-color:#FFFFAA"/>
			<stop  offset="0.54" style="stop-color:#FDFAA3"/>
			<stop  offset="0.57" style="stop-color:#F8EC90"/>
			<stop  offset="0.61" style="stop-color:#F0D470"/>
			<stop  offset="0.65" style="stop-color:#E4B445"/>
			<stop  offset="0.66" style="stop-color:#E1AB39"/>
			<stop  offset="0.7" style="stop-color:#C69130"/>
			<stop  offset="0.8" style="stop-color:#915D1F"/>
			<stop  offset="0.85" style="stop-color:#7C4918"/>
			<stop  offset="0.87" style="stop-color:#8E5D22"/>
			<stop  offset="0.93" style="stop-color:#BF933E"/>
			<stop  offset="0.98" style="stop-color:#DDB44F"/>
			<stop  offset="1" style="stop-color:#E9C156"/>
		</linearGradient>
		<path class="st7" d="M20.1,20.4L14.6,11c0,0,0-0.1,0-0.1c0,0,0.1,0,0.1,0c0,0,0,0,0,0l5.9,9.1c0.1,0.1,0.1,0.3-0.1,0.4
			c0,0,0,0,0,0C20.4,20.5,20.2,20.5,20.1,20.4L20.1,20.4z"/>
		
			<linearGradient id="SVGID_9_" gradientUnits="userSpaceOnUse" x1="11.7236" y1="25.0543" x2="20.6357" y2="25.0543" gradientTransform="matrix(0.9982 0 0 -0.9847 3.792937e-02 41.673)">
			<stop  offset="0" style="stop-color:#E9C156"/>
			<stop  offset="3.000000e-02" style="stop-color:#CA9E44"/>
			<stop  offset="6.000000e-02" style="stop-color:#AC7D32"/>
			<stop  offset="9.000000e-02" style="stop-color:#976525"/>
			<stop  offset="0.12" style="stop-color:#89571E"/>
			<stop  offset="0.15" style="stop-color:#85521B"/>
			<stop  offset="0.24" style="stop-color:#B07B29"/>
			<stop  offset="0.33" style="stop-color:#E1AB39"/>
			<stop  offset="0.34" style="stop-color:#E3B141"/>
			<stop  offset="0.38" style="stop-color:#EDCD66"/>
			<stop  offset="0.41" style="stop-color:#F5E384"/>
			<stop  offset="0.45" style="stop-color:#FBF299"/>
			<stop  offset="0.49" style="stop-color:#FEFCA6"/>
			<stop  offset="0.52" style="stop-color:#FFFFAA"/>
			<stop  offset="0.54" style="stop-color:#FDFAA3"/>
			<stop  offset="0.57" style="stop-color:#F8EC90"/>
			<stop  offset="0.61" style="stop-color:#F0D470"/>
			<stop  offset="0.65" style="stop-color:#E4B445"/>
			<stop  offset="0.66" style="stop-color:#E1AB39"/>
			<stop  offset="0.7" style="stop-color:#C69130"/>
			<stop  offset="0.8" style="stop-color:#915D1F"/>
			<stop  offset="0.85" style="stop-color:#7C4918"/>
			<stop  offset="0.87" style="stop-color:#8E5D22"/>
			<stop  offset="0.93" style="stop-color:#BF933E"/>
			<stop  offset="0.98" style="stop-color:#DDB44F"/>
			<stop  offset="1" style="stop-color:#E9C156"/>
		</linearGradient>
		<path class="st8" d="M20.1,20.4l-8.4-6.9c0,0,0-0.1,0-0.1c0,0,0.1,0,0.1,0c0,0,0,0,0,0l8.7,6.5c0.1,0.1,0.2,0.3,0.1,0.4
			c0,0,0,0,0,0C20.5,20.6,20.3,20.6,20.1,20.4L20.1,20.4z"/>
		
			<linearGradient id="SVGID_10_" gradientUnits="userSpaceOnUse" x1="9.9847" y1="23.3556" x2="20.7041" y2="23.3556" gradientTransform="matrix(1 0 0 -1 0 42)">
			<stop  offset="0" style="stop-color:#E9C156"/>
			<stop  offset="3.000000e-02" style="stop-color:#CA9E44"/>
			<stop  offset="6.000000e-02" style="stop-color:#AC7D32"/>
			<stop  offset="9.000000e-02" style="stop-color:#976525"/>
			<stop  offset="0.12" style="stop-color:#89571E"/>
			<stop  offset="0.15" style="stop-color:#85521B"/>
			<stop  offset="0.24" style="stop-color:#B07B29"/>
			<stop  offset="0.33" style="stop-color:#E1AB39"/>
			<stop  offset="0.34" style="stop-color:#E3B141"/>
			<stop  offset="0.38" style="stop-color:#EDCD66"/>
			<stop  offset="0.41" style="stop-color:#F5E384"/>
			<stop  offset="0.45" style="stop-color:#FBF299"/>
			<stop  offset="0.49" style="stop-color:#FEFCA6"/>
			<stop  offset="0.52" style="stop-color:#FFFFAA"/>
			<stop  offset="0.54" style="stop-color:#FDFAA3"/>
			<stop  offset="0.57" style="stop-color:#F8EC90"/>
			<stop  offset="0.61" style="stop-color:#F0D470"/>
			<stop  offset="0.65" style="stop-color:#E4B445"/>
			<stop  offset="0.66" style="stop-color:#E1AB39"/>
			<stop  offset="0.7" style="stop-color:#C69130"/>
			<stop  offset="0.8" style="stop-color:#915D1F"/>
			<stop  offset="0.85" style="stop-color:#7C4918"/>
			<stop  offset="0.87" style="stop-color:#8E5D22"/>
			<stop  offset="0.93" style="stop-color:#BF933E"/>
			<stop  offset="0.98" style="stop-color:#DDB44F"/>
			<stop  offset="1" style="stop-color:#E9C156"/>
		</linearGradient>
		<path class="st9" d="M20.2,20.5L10,16.8c0,0,0-0.1,0-0.1c0,0,0.1,0,0.1,0l10.4,3.2c0.2,0,0.3,0.2,0.2,0.4c0,0,0,0,0,0
			C20.6,20.5,20.5,20.6,20.2,20.5C20.3,20.5,20.3,20.5,20.2,20.5L20.2,20.5z"/>
		
			<linearGradient id="SVGID_11_" gradientUnits="userSpaceOnUse" x1="9.344" y1="21.765" x2="20.6964" y2="21.765" gradientTransform="matrix(1 0 0 -1 0 42)">
			<stop  offset="0" style="stop-color:#E9C156"/>
			<stop  offset="3.000000e-02" style="stop-color:#CA9E44"/>
			<stop  offset="6.000000e-02" style="stop-color:#AC7D32"/>
			<stop  offset="9.000000e-02" style="stop-color:#976525"/>
			<stop  offset="0.12" style="stop-color:#89571E"/>
			<stop  offset="0.15" style="stop-color:#85521B"/>
			<stop  offset="0.24" style="stop-color:#B07B29"/>
			<stop  offset="0.33" style="stop-color:#E1AB39"/>
			<stop  offset="0.34" style="stop-color:#E3B141"/>
			<stop  offset="0.38" style="stop-color:#EDCD66"/>
			<stop  offset="0.41" style="stop-color:#F5E384"/>
			<stop  offset="0.45" style="stop-color:#FBF299"/>
			<stop  offset="0.49" style="stop-color:#FEFCA6"/>
			<stop  offset="0.52" style="stop-color:#FFFFAA"/>
			<stop  offset="0.54" style="stop-color:#FDFAA3"/>
			<stop  offset="0.57" style="stop-color:#F8EC90"/>
			<stop  offset="0.61" style="stop-color:#F0D470"/>
			<stop  offset="0.65" style="stop-color:#E4B445"/>
			<stop  offset="0.66" style="stop-color:#E1AB39"/>
			<stop  offset="0.7" style="stop-color:#C69130"/>
			<stop  offset="0.8" style="stop-color:#915D1F"/>
			<stop  offset="0.85" style="stop-color:#7C4918"/>
			<stop  offset="0.87" style="stop-color:#8E5D22"/>
			<stop  offset="0.93" style="stop-color:#BF933E"/>
			<stop  offset="0.98" style="stop-color:#DDB44F"/>
			<stop  offset="1" style="stop-color:#E9C156"/>
		</linearGradient>
		<path class="st10" d="M20.3,20.5L9.4,20.6c0,0-0.1,0-0.1,0s0-0.1,0-0.1c0,0,0,0,0.1,0l10.9-0.6c0.2,0,0.3,0.1,0.4,0.3
			s-0.1,0.3-0.3,0.4C20.4,20.5,20.4,20.5,20.3,20.5z"/>
		
			<linearGradient id="SVGID_12_" gradientUnits="userSpaceOnUse" x1="10.1247" y1="19.8813" x2="20.5767" y2="19.8813" gradientTransform="matrix(1 0 0 -1 0 42)">
			<stop  offset="0" style="stop-color:#E9C156"/>
			<stop  offset="3.000000e-02" style="stop-color:#CA9E44"/>
			<stop  offset="6.000000e-02" style="stop-color:#AC7D32"/>
			<stop  offset="9.000000e-02" style="stop-color:#976525"/>
			<stop  offset="0.12" style="stop-color:#89571E"/>
			<stop  offset="0.15" style="stop-color:#85521B"/>
			<stop  offset="0.24" style="stop-color:#B07B29"/>
			<stop  offset="0.33" style="stop-color:#E1AB39"/>
			<stop  offset="0.34" style="stop-color:#E3B141"/>
			<stop  offset="0.38" style="stop-color:#EDCD66"/>
			<stop  offset="0.41" style="stop-color:#F5E384"/>
			<stop  offset="0.45" style="stop-color:#FBF299"/>
			<stop  offset="0.49" style="stop-color:#FEFCA6"/>
			<stop  offset="0.52" style="stop-color:#FFFFAA"/>
			<stop  offset="0.54" style="stop-color:#FDFAA3"/>
			<stop  offset="0.57" style="stop-color:#F8EC90"/>
			<stop  offset="0.61" style="stop-color:#F0D470"/>
			<stop  offset="0.65" style="stop-color:#E4B445"/>
			<stop  offset="0.66" style="stop-color:#E1AB39"/>
			<stop  offset="0.7" style="stop-color:#C69130"/>
			<stop  offset="0.8" style="stop-color:#915D1F"/>
			<stop  offset="0.85" style="stop-color:#7C4918"/>
			<stop  offset="0.87" style="stop-color:#8E5D22"/>
			<stop  offset="0.93" style="stop-color:#BF933E"/>
			<stop  offset="0.98" style="stop-color:#DDB44F"/>
			<stop  offset="1" style="stop-color:#E9C156"/>
		</linearGradient>
		<path class="st11" d="M20.4,20.5l-10.2,3.8c0,0-0.1,0-0.1,0c0,0,0-0.1,0-0.1l10-4.3c0.2-0.1,0.3,0,0.4,0.2c0,0,0,0,0,0
			C20.6,20.3,20.5,20.5,20.4,20.5C20.4,20.5,20.4,20.5,20.4,20.5L20.4,20.5z"/>
		
			<linearGradient id="SVGID_13_" gradientUnits="userSpaceOnUse" x1="12.1294" y1="18.2989" x2="20.6698" y2="18.2989" gradientTransform="matrix(1 0 0 -1 0 42)">
			<stop  offset="0" style="stop-color:#E9C156"/>
			<stop  offset="3.000000e-02" style="stop-color:#CA9E44"/>
			<stop  offset="6.000000e-02" style="stop-color:#AC7D32"/>
			<stop  offset="9.000000e-02" style="stop-color:#976525"/>
			<stop  offset="0.12" style="stop-color:#89571E"/>
			<stop  offset="0.15" style="stop-color:#85521B"/>
			<stop  offset="0.24" style="stop-color:#B07B29"/>
			<stop  offset="0.33" style="stop-color:#E1AB39"/>
			<stop  offset="0.34" style="stop-color:#E3B141"/>
			<stop  offset="0.38" style="stop-color:#EDCD66"/>
			<stop  offset="0.41" style="stop-color:#F5E384"/>
			<stop  offset="0.45" style="stop-color:#FBF299"/>
			<stop  offset="0.49" style="stop-color:#FEFCA6"/>
			<stop  offset="0.52" style="stop-color:#FFFFAA"/>
			<stop  offset="0.54" style="stop-color:#FDFAA3"/>
			<stop  offset="0.57" style="stop-color:#F8EC90"/>
			<stop  offset="0.61" style="stop-color:#F0D470"/>
			<stop  offset="0.65" style="stop-color:#E4B445"/>
			<stop  offset="0.66" style="stop-color:#E1AB39"/>
			<stop  offset="0.7" style="stop-color:#C69130"/>
			<stop  offset="0.8" style="stop-color:#915D1F"/>
			<stop  offset="0.85" style="stop-color:#7C4918"/>
			<stop  offset="0.87" style="stop-color:#8E5D22"/>
			<stop  offset="0.93" style="stop-color:#BF933E"/>
			<stop  offset="0.98" style="stop-color:#DDB44F"/>
			<stop  offset="1" style="stop-color:#E9C156"/>
		</linearGradient>
		<path class="st12" d="M20.5,20.5l-8.3,7c0,0-0.1,0-0.1,0c0,0,0,0,0-0.1l8-7.4c0.1-0.1,0.3-0.1,0.4,0S20.7,20.3,20.5,20.5
			L20.5,20.5L20.5,20.5z"/>
		
			<linearGradient id="SVGID_14_" gradientUnits="userSpaceOnUse" x1="15.1" y1="17.1636" x2="20.7452" y2="17.1636" gradientTransform="matrix(1 0 0 -1 0 42)">
			<stop  offset="0" style="stop-color:#E9C156"/>
			<stop  offset="3.000000e-02" style="stop-color:#CA9E44"/>
			<stop  offset="6.000000e-02" style="stop-color:#AC7D32"/>
			<stop  offset="9.000000e-02" style="stop-color:#976525"/>
			<stop  offset="0.12" style="stop-color:#89571E"/>
			<stop  offset="0.15" style="stop-color:#85521B"/>
			<stop  offset="0.24" style="stop-color:#B07B29"/>
			<stop  offset="0.33" style="stop-color:#E1AB39"/>
			<stop  offset="0.34" style="stop-color:#E3B141"/>
			<stop  offset="0.38" style="stop-color:#EDCD66"/>
			<stop  offset="0.41" style="stop-color:#F5E384"/>
			<stop  offset="0.45" style="stop-color:#FBF299"/>
			<stop  offset="0.49" style="stop-color:#FEFCA6"/>
			<stop  offset="0.52" style="stop-color:#FFFFAA"/>
			<stop  offset="0.54" style="stop-color:#FDFAA3"/>
			<stop  offset="0.57" style="stop-color:#F8EC90"/>
			<stop  offset="0.61" style="stop-color:#F0D470"/>
			<stop  offset="0.65" style="stop-color:#E4B445"/>
			<stop  offset="0.66" style="stop-color:#E1AB39"/>
			<stop  offset="0.7" style="stop-color:#C69130"/>
			<stop  offset="0.8" style="stop-color:#915D1F"/>
			<stop  offset="0.85" style="stop-color:#7C4918"/>
			<stop  offset="0.87" style="stop-color:#8E5D22"/>
			<stop  offset="0.93" style="stop-color:#BF933E"/>
			<stop  offset="0.98" style="stop-color:#DDB44F"/>
			<stop  offset="1" style="stop-color:#E9C156"/>
		</linearGradient>
		<path class="st13" d="M20.6,20.4l-5.4,9.5c0,0-0.1,0-0.1,0c0,0,0,0,0-0.1c0,0,0,0,0,0l5-9.7c0.1-0.2,0.2-0.3,0.4-0.2
			c0.2,0.1,0.3,0.2,0.2,0.4C20.7,20.3,20.7,20.3,20.6,20.4L20.6,20.4z"/>
		
			<linearGradient id="SVGID_15_" gradientUnits="userSpaceOnUse" x1="18.68" y1="16.5243" x2="20.64" y2="16.5243" gradientTransform="matrix(1 0 0 -1 0 42)">
			<stop  offset="0" style="stop-color:#E9C156"/>
			<stop  offset="3.000000e-02" style="stop-color:#CA9E44"/>
			<stop  offset="6.000000e-02" style="stop-color:#AC7D32"/>
			<stop  offset="9.000000e-02" style="stop-color:#976525"/>
			<stop  offset="0.12" style="stop-color:#89571E"/>
			<stop  offset="0.15" style="stop-color:#85521B"/>
			<stop  offset="0.24" style="stop-color:#B07B29"/>
			<stop  offset="0.33" style="stop-color:#E1AB39"/>
			<stop  offset="0.34" style="stop-color:#E3B141"/>
			<stop  offset="0.38" style="stop-color:#EDCD66"/>
			<stop  offset="0.41" style="stop-color:#F5E384"/>
			<stop  offset="0.45" style="stop-color:#FBF299"/>
			<stop  offset="0.49" style="stop-color:#FEFCA6"/>
			<stop  offset="0.52" style="stop-color:#FFFFAA"/>
			<stop  offset="0.54" style="stop-color:#FDFAA3"/>
			<stop  offset="0.57" style="stop-color:#F8EC90"/>
			<stop  offset="0.61" style="stop-color:#F0D470"/>
			<stop  offset="0.65" style="stop-color:#E4B445"/>
			<stop  offset="0.66" style="stop-color:#E1AB39"/>
			<stop  offset="0.7" style="stop-color:#C69130"/>
			<stop  offset="0.8" style="stop-color:#915D1F"/>
			<stop  offset="0.85" style="stop-color:#7C4918"/>
			<stop  offset="0.87" style="stop-color:#8E5D22"/>
			<stop  offset="0.93" style="stop-color:#BF933E"/>
			<stop  offset="0.98" style="stop-color:#DDB44F"/>
			<stop  offset="1" style="stop-color:#E9C156"/>
		</linearGradient>
		<path class="st14" d="M20.6,20.3L18.8,31c0,0,0,0.1,0,0.1c0,0,0,0,0,0c0,0-0.1,0-0.1-0.1L20,20.2c0-0.2,0.2-0.3,0.3-0.3
			c0,0,0,0,0,0C20.5,19.9,20.6,20.1,20.6,20.3L20.6,20.3z"/>
		
			<linearGradient id="SVGID_16_" gradientUnits="userSpaceOnUse" x1="19.9899" y1="16.574" x2="22.64" y2="16.574" gradientTransform="matrix(1 0 0 -1 0 42)">
			<stop  offset="0" style="stop-color:#E9C156"/>
			<stop  offset="3.000000e-02" style="stop-color:#CA9E44"/>
			<stop  offset="6.000000e-02" style="stop-color:#AC7D32"/>
			<stop  offset="9.000000e-02" style="stop-color:#976525"/>
			<stop  offset="0.12" style="stop-color:#89571E"/>
			<stop  offset="0.15" style="stop-color:#85521B"/>
			<stop  offset="0.24" style="stop-color:#B07B29"/>
			<stop  offset="0.33" style="stop-color:#E1AB39"/>
			<stop  offset="0.34" style="stop-color:#E3B141"/>
			<stop  offset="0.38" style="stop-color:#EDCD66"/>
			<stop  offset="0.41" style="stop-color:#F5E384"/>
			<stop  offset="0.45" style="stop-color:#FBF299"/>
			<stop  offset="0.49" style="stop-color:#FEFCA6"/>
			<stop  offset="0.52" style="stop-color:#FFFFAA"/>
			<stop  offset="0.54" style="stop-color:#FDFAA3"/>
			<stop  offset="0.57" style="stop-color:#F8EC90"/>
			<stop  offset="0.61" style="stop-color:#F0D470"/>
			<stop  offset="0.65" style="stop-color:#E4B445"/>
			<stop  offset="0.66" style="stop-color:#E1AB39"/>
			<stop  offset="0.7" style="stop-color:#C69130"/>
			<stop  offset="0.8" style="stop-color:#915D1F"/>
			<stop  offset="0.85" style="stop-color:#7C4918"/>
			<stop  offset="0.87" style="stop-color:#8E5D22"/>
			<stop  offset="0.93" style="stop-color:#BF933E"/>
			<stop  offset="0.98" style="stop-color:#DDB44F"/>
			<stop  offset="1" style="stop-color:#E9C156"/>
		</linearGradient>
		<path class="st15" d="M20.6,20.2l2,10.7c0,0,0,0.1-0.1,0.1c0,0-0.1,0-0.1,0L20,20.3c0-0.2,0.1-0.3,0.2-0.4c0,0,0,0,0,0
			C20.4,19.9,20.6,20,20.6,20.2L20.6,20.2z"/>
		
			<linearGradient id="SVGID_17_" gradientUnits="userSpaceOnUse" x1="20.052" y1="17.2586" x2="26.1303" y2="17.2586" gradientTransform="matrix(1 0 0 -1 0 42)">
			<stop  offset="0" style="stop-color:#E9C156"/>
			<stop  offset="3.000000e-02" style="stop-color:#CA9E44"/>
			<stop  offset="6.000000e-02" style="stop-color:#AC7D32"/>
			<stop  offset="9.000000e-02" style="stop-color:#976525"/>
			<stop  offset="0.12" style="stop-color:#89571E"/>
			<stop  offset="0.15" style="stop-color:#85521B"/>
			<stop  offset="0.24" style="stop-color:#B07B29"/>
			<stop  offset="0.33" style="stop-color:#E1AB39"/>
			<stop  offset="0.34" style="stop-color:#E3B141"/>
			<stop  offset="0.38" style="stop-color:#EDCD66"/>
			<stop  offset="0.41" style="stop-color:#F5E384"/>
			<stop  offset="0.45" style="stop-color:#FBF299"/>
			<stop  offset="0.49" style="stop-color:#FEFCA6"/>
			<stop  offset="0.52" style="stop-color:#FFFFAA"/>
			<stop  offset="0.54" style="stop-color:#FDFAA3"/>
			<stop  offset="0.57" style="stop-color:#F8EC90"/>
			<stop  offset="0.61" style="stop-color:#F0D470"/>
			<stop  offset="0.65" style="stop-color:#E4B445"/>
			<stop  offset="0.66" style="stop-color:#E1AB39"/>
			<stop  offset="0.7" style="stop-color:#C69130"/>
			<stop  offset="0.8" style="stop-color:#915D1F"/>
			<stop  offset="0.85" style="stop-color:#7C4918"/>
			<stop  offset="0.87" style="stop-color:#8E5D22"/>
			<stop  offset="0.93" style="stop-color:#BF933E"/>
			<stop  offset="0.98" style="stop-color:#DDB44F"/>
			<stop  offset="1" style="stop-color:#E9C156"/>
		</linearGradient>
		<path class="st16" d="M20.6,20.1l5.5,9.4c0,0,0,0.1,0,0.1c0,0,0,0,0,0c0,0,0,0-0.1,0c0,0,0,0,0,0l-5.9-9.1c-0.1-0.1,0-0.3,0.1-0.4
			c0,0,0,0,0,0C20.3,19.9,20.5,19.9,20.6,20.1L20.6,20.1z"/>
		
			<linearGradient id="SVGID_18_" gradientUnits="userSpaceOnUse" x1="20.026" y1="18.455" x2="28.944" y2="18.455" gradientTransform="matrix(1 0 0 -1 0 42)">
			<stop  offset="0" style="stop-color:#E9C156"/>
			<stop  offset="3.000000e-02" style="stop-color:#CA9E44"/>
			<stop  offset="6.000000e-02" style="stop-color:#AC7D32"/>
			<stop  offset="9.000000e-02" style="stop-color:#976525"/>
			<stop  offset="0.12" style="stop-color:#89571E"/>
			<stop  offset="0.15" style="stop-color:#85521B"/>
			<stop  offset="0.24" style="stop-color:#B07B29"/>
			<stop  offset="0.33" style="stop-color:#E1AB39"/>
			<stop  offset="0.34" style="stop-color:#E3B141"/>
			<stop  offset="0.38" style="stop-color:#EDCD66"/>
			<stop  offset="0.41" style="stop-color:#F5E384"/>
			<stop  offset="0.45" style="stop-color:#FBF299"/>
			<stop  offset="0.49" style="stop-color:#FEFCA6"/>
			<stop  offset="0.52" style="stop-color:#FFFFAA"/>
			<stop  offset="0.54" style="stop-color:#FDFAA3"/>
			<stop  offset="0.57" style="stop-color:#F8EC90"/>
			<stop  offset="0.61" style="stop-color:#F0D470"/>
			<stop  offset="0.65" style="stop-color:#E4B445"/>
			<stop  offset="0.66" style="stop-color:#E1AB39"/>
			<stop  offset="0.7" style="stop-color:#C69130"/>
			<stop  offset="0.8" style="stop-color:#915D1F"/>
			<stop  offset="0.85" style="stop-color:#7C4918"/>
			<stop  offset="0.87" style="stop-color:#8E5D22"/>
			<stop  offset="0.93" style="stop-color:#BF933E"/>
			<stop  offset="0.98" style="stop-color:#DDB44F"/>
			<stop  offset="1" style="stop-color:#E9C156"/>
		</linearGradient>
		<path class="st17" d="M20.5,20l8.4,7c0,0,0,0.1,0,0.1s-0.1,0-0.1,0l-8.7-6.6c-0.1-0.1-0.2-0.3-0.1-0.4C20.2,20,20.4,19.9,20.5,20
			L20.5,20z"/>
		
			<linearGradient id="SVGID_19_" gradientUnits="userSpaceOnUse" x1="20.0267" y1="20.2016" x2="30.76" y2="20.2016" gradientTransform="matrix(1 0 0 -1 0 42)">
			<stop  offset="0" style="stop-color:#E9C156"/>
			<stop  offset="3.000000e-02" style="stop-color:#CA9E44"/>
			<stop  offset="6.000000e-02" style="stop-color:#AC7D32"/>
			<stop  offset="9.000000e-02" style="stop-color:#976525"/>
			<stop  offset="0.12" style="stop-color:#89571E"/>
			<stop  offset="0.15" style="stop-color:#85521B"/>
			<stop  offset="0.24" style="stop-color:#B07B29"/>
			<stop  offset="0.33" style="stop-color:#E1AB39"/>
			<stop  offset="0.34" style="stop-color:#E3B141"/>
			<stop  offset="0.38" style="stop-color:#EDCD66"/>
			<stop  offset="0.41" style="stop-color:#F5E384"/>
			<stop  offset="0.45" style="stop-color:#FBF299"/>
			<stop  offset="0.49" style="stop-color:#FEFCA6"/>
			<stop  offset="0.52" style="stop-color:#FFFFAA"/>
			<stop  offset="0.54" style="stop-color:#FDFAA3"/>
			<stop  offset="0.57" style="stop-color:#F8EC90"/>
			<stop  offset="0.61" style="stop-color:#F0D470"/>
			<stop  offset="0.65" style="stop-color:#E4B445"/>
			<stop  offset="0.66" style="stop-color:#E1AB39"/>
			<stop  offset="0.7" style="stop-color:#C69130"/>
			<stop  offset="0.8" style="stop-color:#915D1F"/>
			<stop  offset="0.85" style="stop-color:#7C4918"/>
			<stop  offset="0.87" style="stop-color:#8E5D22"/>
			<stop  offset="0.93" style="stop-color:#BF933E"/>
			<stop  offset="0.98" style="stop-color:#DDB44F"/>
			<stop  offset="1" style="stop-color:#E9C156"/>
		</linearGradient>
		<path class="st18" d="M20.5,19.9l10.3,3.7c0,0,0.1,0,0.1,0.1c0,0,0,0.1-0.1,0.1l-10.5-3.2c-0.2,0-0.3-0.2-0.2-0.4
			C20.1,20,20.3,19.9,20.5,19.9L20.5,19.9L20.5,19.9z"/>
		
			<linearGradient id="SVGID_20_" gradientUnits="userSpaceOnUse" x1="20.0293" y1="21.8249" x2="31.29" y2="21.8249" gradientTransform="matrix(1 0 0 -1 0 42)">
			<stop  offset="0" style="stop-color:#E9C156"/>
			<stop  offset="3.000000e-02" style="stop-color:#CA9E44"/>
			<stop  offset="6.000000e-02" style="stop-color:#AC7D32"/>
			<stop  offset="9.000000e-02" style="stop-color:#976525"/>
			<stop  offset="0.12" style="stop-color:#89571E"/>
			<stop  offset="0.15" style="stop-color:#85521B"/>
			<stop  offset="0.24" style="stop-color:#B07B29"/>
			<stop  offset="0.33" style="stop-color:#E1AB39"/>
			<stop  offset="0.34" style="stop-color:#E3B141"/>
			<stop  offset="0.38" style="stop-color:#EDCD66"/>
			<stop  offset="0.41" style="stop-color:#F5E384"/>
			<stop  offset="0.45" style="stop-color:#FBF299"/>
			<stop  offset="0.49" style="stop-color:#FEFCA6"/>
			<stop  offset="0.52" style="stop-color:#FFFFAA"/>
			<stop  offset="0.54" style="stop-color:#FDFAA3"/>
			<stop  offset="0.57" style="stop-color:#F8EC90"/>
			<stop  offset="0.61" style="stop-color:#F0D470"/>
			<stop  offset="0.65" style="stop-color:#E4B445"/>
			<stop  offset="0.66" style="stop-color:#E1AB39"/>
			<stop  offset="0.7" style="stop-color:#C69130"/>
			<stop  offset="0.8" style="stop-color:#915D1F"/>
			<stop  offset="0.85" style="stop-color:#7C4918"/>
			<stop  offset="0.87" style="stop-color:#8E5D22"/>
			<stop  offset="0.93" style="stop-color:#BF933E"/>
			<stop  offset="0.98" style="stop-color:#DDB44F"/>
			<stop  offset="1" style="stop-color:#E9C156"/>
		</linearGradient>
		<path class="st19" d="M20.3,19.9l10.9-0.1c0,0,0.1,0,0.1,0.1c0,0,0,0.1-0.1,0.1l-10.9,0.6c-0.2,0-0.3-0.1-0.3-0.3
			C20,20,20.1,19.9,20.3,19.9C20.3,19.9,20.3,19.9,20.3,19.9L20.3,19.9z"/>
		
			<linearGradient id="SVGID_21_" gradientUnits="userSpaceOnUse" x1="20.0961" y1="23.71" x2="30.5453" y2="23.71" gradientTransform="matrix(1 0 0 -1 0 42)">
			<stop  offset="0" style="stop-color:#E9C156"/>
			<stop  offset="3.000000e-02" style="stop-color:#CA9E44"/>
			<stop  offset="6.000000e-02" style="stop-color:#AC7D32"/>
			<stop  offset="9.000000e-02" style="stop-color:#976525"/>
			<stop  offset="0.12" style="stop-color:#89571E"/>
			<stop  offset="0.15" style="stop-color:#85521B"/>
			<stop  offset="0.24" style="stop-color:#B07B29"/>
			<stop  offset="0.33" style="stop-color:#E1AB39"/>
			<stop  offset="0.34" style="stop-color:#E3B141"/>
			<stop  offset="0.38" style="stop-color:#EDCD66"/>
			<stop  offset="0.41" style="stop-color:#F5E384"/>
			<stop  offset="0.45" style="stop-color:#FBF299"/>
			<stop  offset="0.49" style="stop-color:#FEFCA6"/>
			<stop  offset="0.52" style="stop-color:#FFFFAA"/>
			<stop  offset="0.54" style="stop-color:#FDFAA3"/>
			<stop  offset="0.57" style="stop-color:#F8EC90"/>
			<stop  offset="0.61" style="stop-color:#F0D470"/>
			<stop  offset="0.65" style="stop-color:#E4B445"/>
			<stop  offset="0.66" style="stop-color:#E1AB39"/>
			<stop  offset="0.7" style="stop-color:#C69130"/>
			<stop  offset="0.8" style="stop-color:#915D1F"/>
			<stop  offset="0.85" style="stop-color:#7C4918"/>
			<stop  offset="0.87" style="stop-color:#8E5D22"/>
			<stop  offset="0.93" style="stop-color:#BF933E"/>
			<stop  offset="0.98" style="stop-color:#DDB44F"/>
			<stop  offset="1" style="stop-color:#E9C156"/>
		</linearGradient>
		<path class="st20" d="M20.2,19.9l10.2-3.8c0,0,0.1,0,0.1,0c0,0,0,0.1,0,0.1l-10,4.3c-0.2,0.1-0.3,0-0.4-0.2S20.1,19.9,20.2,19.9
			L20.2,19.9z"/>
		
			<linearGradient id="SVGID_22_" gradientUnits="userSpaceOnUse" x1="20.0085" y1="25.2144" x2="28.5503" y2="25.2144" gradientTransform="matrix(1 0 0 -1 0 42)">
			<stop  offset="0" style="stop-color:#E9C156"/>
			<stop  offset="3.000000e-02" style="stop-color:#CA9E44"/>
			<stop  offset="6.000000e-02" style="stop-color:#AC7D32"/>
			<stop  offset="9.000000e-02" style="stop-color:#976525"/>
			<stop  offset="0.12" style="stop-color:#89571E"/>
			<stop  offset="0.15" style="stop-color:#85521B"/>
			<stop  offset="0.24" style="stop-color:#B07B29"/>
			<stop  offset="0.33" style="stop-color:#E1AB39"/>
			<stop  offset="0.34" style="stop-color:#E3B141"/>
			<stop  offset="0.38" style="stop-color:#EDCD66"/>
			<stop  offset="0.41" style="stop-color:#F5E384"/>
			<stop  offset="0.45" style="stop-color:#FBF299"/>
			<stop  offset="0.49" style="stop-color:#FEFCA6"/>
			<stop  offset="0.52" style="stop-color:#FFFFAA"/>
			<stop  offset="0.54" style="stop-color:#FDFAA3"/>
			<stop  offset="0.57" style="stop-color:#F8EC90"/>
			<stop  offset="0.61" style="stop-color:#F0D470"/>
			<stop  offset="0.65" style="stop-color:#E4B445"/>
			<stop  offset="0.66" style="stop-color:#E1AB39"/>
			<stop  offset="0.7" style="stop-color:#C69130"/>
			<stop  offset="0.8" style="stop-color:#915D1F"/>
			<stop  offset="0.85" style="stop-color:#7C4918"/>
			<stop  offset="0.87" style="stop-color:#8E5D22"/>
			<stop  offset="0.93" style="stop-color:#BF933E"/>
			<stop  offset="0.98" style="stop-color:#DDB44F"/>
			<stop  offset="1" style="stop-color:#E9C156"/>
		</linearGradient>
		<path class="st21" d="M20.1,20l8.3-7c0,0,0.1,0,0.1,0c0,0,0,0,0,0c0,0,0,0.1,0,0.1c0,0,0,0,0,0l-8,7.4c-0.1,0.1-0.3,0.1-0.4,0
			C20,20.4,20,20.2,20.1,20L20.1,20z"/>
		
			<linearGradient id="SVGID_23_" gradientUnits="userSpaceOnUse" x1="19.9931" y1="26.4924" x2="25.5553" y2="26.4924" gradientTransform="matrix(1 0 0 -1 0 42)">
			<stop  offset="0" style="stop-color:#E9C156"/>
			<stop  offset="3.000000e-02" style="stop-color:#CA9E44"/>
			<stop  offset="6.000000e-02" style="stop-color:#AC7D32"/>
			<stop  offset="9.000000e-02" style="stop-color:#976525"/>
			<stop  offset="0.12" style="stop-color:#89571E"/>
			<stop  offset="0.15" style="stop-color:#85521B"/>
			<stop  offset="0.24" style="stop-color:#B07B29"/>
			<stop  offset="0.33" style="stop-color:#E1AB39"/>
			<stop  offset="0.34" style="stop-color:#E3B141"/>
			<stop  offset="0.38" style="stop-color:#EDCD66"/>
			<stop  offset="0.41" style="stop-color:#F5E384"/>
			<stop  offset="0.45" style="stop-color:#FBF299"/>
			<stop  offset="0.49" style="stop-color:#FEFCA6"/>
			<stop  offset="0.52" style="stop-color:#FFFFAA"/>
			<stop  offset="0.54" style="stop-color:#FDFAA3"/>
			<stop  offset="0.57" style="stop-color:#F8EC90"/>
			<stop  offset="0.61" style="stop-color:#F0D470"/>
			<stop  offset="0.65" style="stop-color:#E4B445"/>
			<stop  offset="0.66" style="stop-color:#E1AB39"/>
			<stop  offset="0.7" style="stop-color:#C69130"/>
			<stop  offset="0.8" style="stop-color:#915D1F"/>
			<stop  offset="0.85" style="stop-color:#7C4918"/>
			<stop  offset="0.87" style="stop-color:#8E5D22"/>
			<stop  offset="0.93" style="stop-color:#BF933E"/>
			<stop  offset="0.98" style="stop-color:#DDB44F"/>
			<stop  offset="1" style="stop-color:#E9C156"/>
		</linearGradient>
		<path class="st22" d="M20.1,20l5.4-9.5c0,0,0.1,0,0.1,0c0,0,0,0.1,0,0.1l-4.9,9.7c-0.1,0.2-0.3,0.2-0.4,0.1
			C20,20.4,19.9,20.2,20.1,20L20.1,20z"/>
		
			<linearGradient id="SVGID_24_" gradientUnits="userSpaceOnUse" x1="184.1821" y1="340.9515" x2="196.1821" y2="340.9515" gradientTransform="matrix(0.9894 0.1454 0.1454 -0.9894 -217.414 329.8798)">
			<stop  offset="0" style="stop-color:#E9C156"/>
			<stop  offset="3.000000e-02" style="stop-color:#CA9E44"/>
			<stop  offset="6.000000e-02" style="stop-color:#AC7D32"/>
			<stop  offset="9.000000e-02" style="stop-color:#976525"/>
			<stop  offset="0.12" style="stop-color:#89571E"/>
			<stop  offset="0.15" style="stop-color:#85521B"/>
			<stop  offset="0.24" style="stop-color:#B07B29"/>
			<stop  offset="0.33" style="stop-color:#E1AB39"/>
			<stop  offset="0.34" style="stop-color:#E3B141"/>
			<stop  offset="0.38" style="stop-color:#EDCD66"/>
			<stop  offset="0.41" style="stop-color:#F5E384"/>
			<stop  offset="0.45" style="stop-color:#FBF299"/>
			<stop  offset="0.49" style="stop-color:#FEFCA6"/>
			<stop  offset="0.52" style="stop-color:#FFFFAA"/>
			<stop  offset="0.54" style="stop-color:#FDFAA3"/>
			<stop  offset="0.57" style="stop-color:#F8EC90"/>
			<stop  offset="0.61" style="stop-color:#F0D470"/>
			<stop  offset="0.65" style="stop-color:#E4B445"/>
			<stop  offset="0.66" style="stop-color:#E1AB39"/>
			<stop  offset="0.7" style="stop-color:#C69130"/>
			<stop  offset="0.8" style="stop-color:#915D1F"/>
			<stop  offset="0.85" style="stop-color:#7C4918"/>
			<stop  offset="0.87" style="stop-color:#8E5D22"/>
			<stop  offset="0.93" style="stop-color:#BF933E"/>
			<stop  offset="0.98" style="stop-color:#DDB44F"/>
			<stop  offset="1" style="stop-color:#E9C156"/>
		</linearGradient>
		<path class="st23" d="M20.3,26.2c-0.3,0-0.6,0-0.9-0.1c-3.3-0.5-5.5-3.5-5.1-6.8s3.5-5.5,6.8-5.1s5.5,3.5,5.1,6.8c0,0,0,0,0,0l0,0
			C25.8,24,23.3,26.2,20.3,26.2z M20.3,14.6c-3.1,0-5.6,2.5-5.6,5.6c0,3.1,2.5,5.6,5.6,5.6c2.8,0,5.1-2,5.5-4.8l0,0
			c0.4-3.1-1.7-5.9-4.7-6.4C20.9,14.6,20.6,14.6,20.3,14.6L20.3,14.6z"/>
	</g>
</g>
</svg>
