<svg xmlns="http://www.w3.org/2000/svg" xmlns:xlink="http://www.w3.org/1999/xlink" viewBox="0 0 41.07 40.93"><defs><style>.cls-1{fill:url(#radial-gradient);}.cls-2{fill:url(#linear-gradient);}.cls-3{fill:url(#radial-gradient-2);}.cls-4{fill:url(#linear-gradient-2);}.cls-5{fill:url(#radial-gradient-3);}.cls-6{fill:url(#linear-gradient-3);}.cls-7{fill:url(#radial-gradient-4);}.cls-8{fill:url(#linear-gradient-4);}.cls-9{fill:url(#radial-gradient-5);}.cls-10{fill:url(#linear-gradient-5);}.cls-11{fill:url(#radial-gradient-6);}.cls-12{fill:url(#radial-gradient-7);}.cls-13{fill:url(#radial-gradient-8);}.cls-14{fill:url(#radial-gradient-9);}.cls-15{fill:url(#radial-gradient-10);}.cls-16{fill:url(#radial-gradient-11);}.cls-17{fill:url(#radial-gradient-12);}.cls-18{fill:url(#radial-gradient-13);}.cls-19{fill:url(#radial-gradient-14);}.cls-20{fill:url(#radial-gradient-15);}.cls-21{fill:url(#radial-gradient-16);}.cls-22{fill:url(#radial-gradient-17);}.cls-23{fill:url(#radial-gradient-18);}.cls-24{fill:url(#radial-gradient-19);}.cls-25{fill:url(#radial-gradient-20);}.cls-26{fill:url(#radial-gradient-21);}.cls-27{fill:url(#radial-gradient-22);}.cls-28{fill:url(#radial-gradient-23);}.cls-29{fill:url(#radial-gradient-24);}.cls-30{fill:url(#linear-gradient-6);}</style><radialGradient id="radial-gradient" cx="165.31" cy="-273.28" r="20.95" gradientTransform="translate(-175.59 257.61) rotate(8.36)" gradientUnits="userSpaceOnUse"><stop offset="0.14" stop-color="#f11616"/><stop offset="0.63" stop-color="#ff9b79"/><stop offset="0.71" stop-color="#ffb79f"/><stop offset="0.85" stop-color="#ffded3"/><stop offset="0.95" stop-color="#fff6f3"/><stop offset="1" stop-color="#fff"/></radialGradient><linearGradient id="linear-gradient" x1="150.43" y1="-272.9" x2="168.4" y2="-272.9" gradientTransform="translate(-175.59 257.61) rotate(8.36)" gradientUnits="userSpaceOnUse"><stop offset="0" stop-color="#e9c156"/><stop offset="0.03" stop-color="#ca9e44"/><stop offset="0.06" stop-color="#ac7d32"/><stop offset="0.09" stop-color="#976525"/><stop offset="0.12" stop-color="#89571e"/><stop offset="0.15" stop-color="#85521b"/><stop offset="0.24" stop-color="#b07b29"/><stop offset="0.33" stop-color="#e1ab39"/><stop offset="0.34" stop-color="#e3b141"/><stop offset="0.38" stop-color="#edcd66"/><stop offset="0.41" stop-color="#f5e384"/><stop offset="0.45" stop-color="#fbf299"/><stop offset="0.49" stop-color="#fefca6"/><stop offset="0.52" stop-color="#ffa"/><stop offset="0.54" stop-color="#fdfaa3"/><stop offset="0.57" stop-color="#f8ec90"/><stop offset="0.61" stop-color="#f0d470"/><stop offset="0.65" stop-color="#e4b445"/><stop offset="0.66" stop-color="#e1ab39"/><stop offset="0.7" stop-color="#c69130"/><stop offset="0.8" stop-color="#915d1f"/><stop offset="0.85" stop-color="#7c4918"/><stop offset="0.87" stop-color="#8e5d22"/><stop offset="0.93" stop-color="#bf933e"/><stop offset="0.98" stop-color="#ddb44f"/><stop offset="1" stop-color="#e9c156"/></linearGradient><radialGradient id="radial-gradient-2" cx="152.17" cy="-273.67" r="22.52" xlink:href="#radial-gradient"/><linearGradient id="linear-gradient-2" x1="138.64" y1="-267.17" x2="159.62" y2="-267.17" xlink:href="#linear-gradient"/><radialGradient id="radial-gradient-3" cx="146.84" cy="-258.58" r="21.37" xlink:href="#radial-gradient"/><linearGradient id="linear-gradient-3" x1="142.52" y1="-253.19" x2="160.07" y2="-253.19" xlink:href="#linear-gradient"/><radialGradient id="radial-gradient-4" cx="158.81" cy="-250.25" r="24.17" xlink:href="#radial-gradient"/><linearGradient id="linear-gradient-4" x1="158.39" y1="-253.21" x2="176.14" y2="-253.21" xlink:href="#linear-gradient"/><radialGradient id="radial-gradient-5" cx="166.49" cy="-258.91" r="19.86" xlink:href="#radial-gradient"/><linearGradient id="linear-gradient-5" x1="159.03" y1="-267.01" x2="179.99" y2="-267.01" xlink:href="#linear-gradient"/><radialGradient id="radial-gradient-6" cx="159.32" cy="-268.69" r="3.99" xlink:href="#radial-gradient"/><radialGradient id="radial-gradient-7" cx="157.58" cy="-268.37" r="4.02" xlink:href="#radial-gradient"/><radialGradient id="radial-gradient-8" cx="155.93" cy="-267.42" r="4.04" xlink:href="#radial-gradient"/><radialGradient id="radial-gradient-9" cx="154.72" cy="-265.97" r="4.03" xlink:href="#radial-gradient"/><radialGradient id="radial-gradient-10" cx="154.07" cy="-264.19" r="4.01" xlink:href="#radial-gradient"/><radialGradient id="radial-gradient-11" cx="154.07" cy="-262.54" r="4.01" xlink:href="#radial-gradient"/><radialGradient id="radial-gradient-12" cx="154.72" cy="-260.76" r="4.03" xlink:href="#radial-gradient"/><radialGradient id="radial-gradient-13" cx="155.93" cy="-259.31" r="4.04" xlink:href="#radial-gradient"/><radialGradient id="radial-gradient-14" cx="157.58" cy="-258.36" r="4.02" xlink:href="#radial-gradient"/><radialGradient id="radial-gradient-15" cx="159.32" cy="-258.03" r="3.99" xlink:href="#radial-gradient"/><radialGradient id="radial-gradient-16" cx="161.06" cy="-258.36" r="4.02" xlink:href="#radial-gradient"/><radialGradient id="radial-gradient-17" cx="162.7" cy="-259.31" r="4.04" xlink:href="#radial-gradient"/><radialGradient id="radial-gradient-18" cx="163.92" cy="-260.76" r="4.03" xlink:href="#radial-gradient"/><radialGradient id="radial-gradient-19" cx="164.56" cy="-262.54" r="4.01" xlink:href="#radial-gradient"/><radialGradient id="radial-gradient-20" cx="164.56" cy="-264.19" r="4.01" xlink:href="#radial-gradient"/><radialGradient id="radial-gradient-21" cx="163.92" cy="-265.97" r="4.03" xlink:href="#radial-gradient"/><radialGradient id="radial-gradient-22" cx="162.7" cy="-267.42" r="4.04" xlink:href="#radial-gradient"/><radialGradient id="radial-gradient-23" cx="161.06" cy="-268.37" r="4.02" xlink:href="#radial-gradient"/><radialGradient id="radial-gradient-24" cx="159.32" cy="-263.36" r="11.46" xlink:href="#radial-gradient"/><linearGradient id="linear-gradient-6" x1="153.31" y1="-263.36" x2="165.32" y2="-263.36" xlink:href="#linear-gradient"/></defs><g id="Layer_2" data-name="Layer 2"><g id="Layer_1-2" data-name="Layer 1"><path class="cls-1" d="M20.26,20.81c-2-3.2-3.21-4.19-5.8-10.55-3.39-8.32,4.79-12.19,8.48-8.87,4.73-2.24,11.65,4.27,6.2,11C24.84,17.76,22.67,18.76,20.26,20.81Z"/><path class="cls-2" d="M20.21,21.11l-.12-.19c-.45-.7-.85-1.29-1.24-1.86a39.34,39.34,0,0,1-4.58-8.72c-1.56-3.84-.87-7.28,1.86-9.2a5.65,5.65,0,0,1,6.84,0,6,6,0,0,1,7,2.12c1.64,2.08,2.34,5.6-.62,9.27a36,36,0,0,1-7.19,7.05c-.59.45-1.15.87-1.72,1.36ZM19.68.41a5.77,5.77,0,0,0-3.31,1.07c-2.57,1.8-3.21,5.05-1.72,8.71a38.62,38.62,0,0,0,4.54,8.64c.35.52.72,1.05,1.11,1.67.52-.43,1-.82,1.56-1.22a36,36,0,0,0,7.12-7c2.39-2.95,2.62-6.23.62-8.76A5.57,5.57,0,0,0,23,1.58l-.12.06-.1-.1A4.64,4.64,0,0,0,19.68.41Z"/><path class="cls-3" d="M20.26,20.81c-3.67,1-5,1.75-11.82,2.25-9,.65-10.12-8.33-5.82-10.8C2,7.06,10.28,2.49,15,9.76,18.77,15.51,19.06,17.87,20.26,20.81Z"/><path class="cls-4" d="M7.54,23.29c-3.68,0-6.35-1.69-7.26-4.64a5.65,5.65,0,0,1,2.13-6.5A6,6,0,0,1,6.57,6.2c2.49-.91,6.06-.49,8.63,3.45a36.24,36.24,0,0,1,4.48,9c.25.7.48,1.36.76,2.06l.09.21-.22.06c-.8.21-1.49.41-2.15.6a38.65,38.65,0,0,1-9.71,1.66ZM8.9,6.18a6.35,6.35,0,0,0-2.19.4,5.58,5.58,0,0,0-3.89,5.65l0,.14-.12.06a5.23,5.23,0,0,0-2.05,6.1c.92,3,3.82,4.62,7.75,4.33a38.13,38.13,0,0,0,9.63-1.65L20,20.67c-.25-.63-.46-1.23-.68-1.86a35.78,35.78,0,0,0-4.44-8.93C13.29,7.47,11.16,6.18,8.9,6.18Z"/><path class="cls-5" d="M20.26,20.81c-.23,3.78.13,5.27-1.51,11.93-2.15,8.73-11,7-12.07,2.2C1.53,34-.25,24.63,8.14,22.37,14.76,20.58,17.1,21,20.26,20.81Z"/><path class="cls-6" d="M12.15,39.14H12a5.66,5.66,0,0,1-5.53-4,6,6,0,0,1-4.38-5.8c-.1-2.65,1.41-5.91,6-7.14a36.81,36.81,0,0,1,10-1.48c.75,0,1.45,0,2.2-.09h.23v.23c-.05.82-.07,1.54-.09,2.23a39,39,0,0,1-1.43,9.74C18,36.77,15.43,39.14,12.15,39.14ZM20,21c-.68.05-1.31.06-2,.08a35.83,35.83,0,0,0-9.86,1.46c-3.66,1-5.78,3.51-5.65,6.73a5.58,5.58,0,0,0,4.18,5.45l.13,0,0,.13A5.21,5.21,0,0,0,12,38.73h.11c3.08,0,5.47-2.25,6.4-6A38.49,38.49,0,0,0,20,23C20,22.41,20,21.76,20,21Z"/><path class="cls-7" d="M20.26,20.81c3.52,1.38,5,1.5,10.88,5.12,7.64,4.74,3.29,12.68-1.64,12.16C27,42.68,17.56,41.49,18,32.81,18.34,26,19.5,23.89,20.26,20.81Z"/><path class="cls-8" d="M24.62,40.93a6.87,6.87,0,0,1-1.88-.26c-2.55-.72-5.18-3.17-4.95-7.87a36.37,36.37,0,0,1,1.68-9.93c.21-.71.41-1.38.59-2.11l.05-.23.22.09c.77.3,1.45.54,2.09.77a38.63,38.63,0,0,1,8.83,4.37c3.52,2.19,5,5.37,3.9,8.53a5.65,5.65,0,0,1-5.54,4A5.69,5.69,0,0,1,24.62,40.93ZM20.4,21.08c-.17.66-.35,1.26-.54,1.91a35.49,35.49,0,0,0-1.66,9.83c-.19,3.79,1.55,6.58,4.65,7.46A5.58,5.58,0,0,0,29.32,38l.07-.12.13,0a5.23,5.23,0,0,0,5.24-3.73c1-3-.37-6-3.73-8.06a38.38,38.38,0,0,0-8.74-4.32C21.7,21.57,21.08,21.35,20.4,21.08Z"/><path class="cls-9" d="M20.26,20.81c2.4-2.93,3-4.35,8.23-8.77,6.87-5.8,13.08.79,11.06,5.32,3.59,3.8-.46,12.4-8.57,9.31C24.57,24.22,23,22.47,20.26,20.81Z"/><path class="cls-10" d="M34.27,27.52a9.51,9.51,0,0,1-3.36-.66A36.19,36.19,0,0,1,22,22.19c-.61-.42-1.18-.81-1.82-1.21l-.2-.12.15-.18c.53-.64,1-1.21,1.39-1.75a38.42,38.42,0,0,1,6.87-7C31.53,9.21,35,8.8,37.68,10.81a5.65,5.65,0,0,1,2.11,6.51,6,6,0,0,1,.12,7.26A6.65,6.65,0,0,1,34.27,27.52ZM20.56,20.76c.57.36,1.09.72,1.64,1.1a35.88,35.88,0,0,0,8.85,4.62c3.55,1.35,6.73.56,8.53-2.13a5.57,5.57,0,0,0-.18-6.85l-.09-.1,0-.13a5.23,5.23,0,0,0-1.92-6.14c-2.51-1.88-5.8-1.48-8.82,1.06a38.44,38.44,0,0,0-6.81,7C21.42,19.67,21,20.18,20.56,20.76Z"/><path class="cls-11" d="M20,20.14,21.85,9.41a.06.06,0,0,1,.08-.05.05.05,0,0,1,.05.07l-1.33,10.8a.32.32,0,1,1-.63-.07Z"/><path class="cls-12" d="M20,20.25,18.07,9.54a.06.06,0,0,1,.05-.07.06.06,0,0,1,.08,0l2.44,10.61a.32.32,0,0,1-.62.15Z"/><path class="cls-13" d="M20.06,20.36,14.56,11a.07.07,0,1,1,.11-.07L20.59,20a.31.31,0,0,1-.09.43.33.33,0,0,1-.44-.09Z"/><path class="cls-14" d="M20.12,20.44l-8.38-7a.07.07,0,0,1,0-.09.06.06,0,0,1,.09,0L20.51,20a.31.31,0,0,1,.06.44.32.32,0,0,1-.44.06Z"/><path class="cls-15" d="M20.22,20.5,10,16.83a.06.06,0,0,1,0-.08.06.06,0,0,1,.08,0l10.4,3.19a.31.31,0,0,1,.21.39.31.31,0,0,1-.39.21Z"/><path class="cls-16" d="M20.32,20.52l-10.88.06a.07.07,0,1,1,0-.13l10.88-.56a.32.32,0,1,1,0,.63Z"/><path class="cls-17" d="M20.43,20.5,10.22,24.29a.07.07,0,0,1-.08,0,.06.06,0,0,1,0-.08l10-4.25a.31.31,0,0,1,.41.17.31.31,0,0,1-.16.41Z"/><path class="cls-18" d="M20.53,20.45l-8.3,7.05a.07.07,0,0,1-.09-.1l8-7.42a.31.31,0,0,1,.43.46Z"/><path class="cls-19" d="M20.6,20.37l-5.39,9.46a.07.07,0,0,1-.09,0,.05.05,0,0,1,0-.08l5-9.7a.32.32,0,1,1,.56.29Z"/><path class="cls-20" d="M20.64,20.27,18.81,31a.05.05,0,0,1-.07.05s-.06,0-.06-.07L20,20.18a.31.31,0,0,1,.35-.28.32.32,0,0,1,.27.35Z"/><path class="cls-21" d="M20.64,20.16l2,10.71a.08.08,0,0,1-.06.08.08.08,0,0,1-.07-.05L20,20.29a.31.31,0,0,1,.23-.38.32.32,0,0,1,.38.23Z"/><path class="cls-22" d="M20.61,20.06l5.5,9.39a.06.06,0,0,1,0,.09.05.05,0,0,1-.08,0l-5.93-9.14a.31.31,0,0,1,.1-.43.32.32,0,0,1,.43.09Z"/><path class="cls-23" d="M20.54,20l8.38,7a.06.06,0,1,1-.08.1l-8.69-6.56a.31.31,0,1,1,.38-.5Z"/><path class="cls-24" d="M20.45,19.91,30.7,23.58a.06.06,0,0,1,0,.12L20.25,20.51a.31.31,0,1,1,.18-.6Z"/><path class="cls-25" d="M20.34,19.89l10.89-.06a.06.06,0,0,1,.06.06s0,.07-.06.07l-10.87.56a.32.32,0,0,1-.33-.3.31.31,0,0,1,.3-.33Z"/><path class="cls-26" d="M20.23,19.91l10.21-3.79a.08.08,0,0,1,.09,0,.06.06,0,0,1,0,.08l-10,4.25a.31.31,0,0,1-.24-.58Z"/><path class="cls-27" d="M20.14,20l8.3-7a.06.06,0,0,1,.09,0,.06.06,0,0,1,0,.09l-8,7.42a.31.31,0,0,1-.42-.46Z"/><path class="cls-28" d="M20.06,20l5.39-9.46a.07.07,0,0,1,.09,0,.06.06,0,0,1,0,.08l-4.95,9.7a.33.33,0,0,1-.43.14.32.32,0,0,1-.13-.43Z"/><path class="cls-29" d="M26.07,21.05a5.8,5.8,0,1,1-4.89-6.58A5.79,5.79,0,0,1,26.07,21.05Z"/><path class="cls-30" d="M20.34,26.21a5.22,5.22,0,0,1-.88-.07,6,6,0,1,1,6.81-5.06h0A6,6,0,0,1,20.34,26.21Zm0-11.6A5.59,5.59,0,1,0,25.87,21h0a5.6,5.6,0,0,0-4.72-6.35A5.76,5.76,0,0,0,20.33,14.61Z"/></g></g></svg>