<svg xmlns="http://www.w3.org/2000/svg" xmlns:xlink="http://www.w3.org/1999/xlink" viewBox="0 0 71.11 182.4"><defs><style>.cls-1{fill:url(#linear-gradient);}.cls-2{fill:#de0523;}.cls-3{fill:url(#linear-gradient-2);}.cls-4{fill:url(#linear-gradient-3);}.cls-5{fill:#870415;}.cls-6{fill:#ba041d;}.cls-7{fill:#ff0a2c;}.cls-8{fill:url(#linear-gradient-4);}</style><linearGradient id="linear-gradient" x1="35.44" y1="-409.71" x2="35.44" y2="52.88" gradientUnits="userSpaceOnUse"><stop offset="0" stop-color="#e9c156"/><stop offset="0.03" stop-color="#ca9e44"/><stop offset="0.06" stop-color="#ac7d32"/><stop offset="0.09" stop-color="#976525"/><stop offset="0.12" stop-color="#89571e"/><stop offset="0.15" stop-color="#85521b"/><stop offset="0.24" stop-color="#b07b29"/><stop offset="0.33" stop-color="#e1ab39"/><stop offset="0.34" stop-color="#e3b141"/><stop offset="0.38" stop-color="#edcd66"/><stop offset="0.41" stop-color="#f5e384"/><stop offset="0.45" stop-color="#fbf299"/><stop offset="0.49" stop-color="#fefca6"/><stop offset="0.52" stop-color="#ffa"/><stop offset="0.54" stop-color="#fdfaa3"/><stop offset="0.57" stop-color="#f8ec90"/><stop offset="0.61" stop-color="#f0d470"/><stop offset="0.65" stop-color="#e4b445"/><stop offset="0.66" stop-color="#e1ab39"/><stop offset="0.7" stop-color="#c69130"/><stop offset="0.8" stop-color="#915d1f"/><stop offset="0.85" stop-color="#7c4918"/><stop offset="0.87" stop-color="#8e5d22"/><stop offset="0.93" stop-color="#bf933e"/><stop offset="0.98" stop-color="#ddb44f"/><stop offset="1" stop-color="#e9c156"/></linearGradient><linearGradient id="linear-gradient-2" x1="24.59" y1="157.45" x2="46.52" y2="157.45" xlink:href="#linear-gradient"/><linearGradient id="linear-gradient-3" x1="35.56" y1="72.07" x2="35.56" y2="94.04" xlink:href="#linear-gradient"/><linearGradient id="linear-gradient-4" x1="25.84" y1="94.16" x2="45.27" y2="94.16" xlink:href="#linear-gradient"/></defs><g id="Layer_2" data-name="Layer 2"><g id="Layer_1-2" data-name="Layer 1"><rect class="cls-1" x="34.97" width="0.93" height="82.47"/><path class="cls-2" d="M22.71,179.34l-.54-.08q1.44-10.14,2.89-20.27l.42,0Q24.09,169.2,22.71,179.34Z"/><path class="cls-2" d="M23.6,181.4l-.54-.07Q24.5,170.21,26,159.11l.42,0Q25,170.27,23.6,181.4Z"/><path class="cls-2" d="M24.68,182.33l-.55-.07q1.35-11.52,2.71-23l.42.05Z"/><path class="cls-2" d="M26,181.12l-.54-.06q1.14-10.87,2.29-21.74l.42,0Q27.07,170.24,26,181.12Z"/><path class="cls-2" d="M27.05,182.22l-.55-.05q1.07-11.38,2.12-22.76l.43,0Q28,170.83,27.05,182.22Z"/><path class="cls-2" d="M28.43,179.49l-.53-.05,1.62-20,.42,0Q29.19,169.49,28.43,179.49Z"/><path class="cls-2" d="M29.43,181.71l-.55,0,1.53-22.12.43,0Z"/><path class="cls-2" d="M30.68,180.1l-.54,0,1.17-20.46.42,0Z"/><path class="cls-2" d="M31.89,178.36l-.53,0q.42-9.34.85-18.69l.42,0Q32.26,169,31.89,178.36Z"/><path class="cls-2" d="M33,180.2l-.53,0q.33-10.25.67-20.49h.42Q33.25,169.95,33,180.2Z"/><path class="cls-2" d="M34.12,179.29h-.53q.19-9.78.41-19.57h.42Z"/><path class="cls-2" d="M35.25,181.66H34.7q.09-11,.19-21.93h.43Q35.28,170.7,35.25,181.66Z"/><path class="cls-2" d="M36.4,180.51h-.54q0-10.39-.07-20.78h.42Q36.3,170.11,36.4,180.51Z"/><path class="cls-2" d="M37.58,182.28H37q-.16-11.28-.34-22.57h.42Q37.35,171,37.58,182.28Z"/><path class="cls-2" d="M38.73,181.71l-.55,0-.6-22H38Q38.38,170.7,38.73,181.71Z"/><path class="cls-2" d="M39.88,181.41l-.54,0q-.44-10.87-.86-21.76l.42,0Q39.39,170.54,39.88,181.41Z"/><path class="cls-2" d="M40.89,178.76l-.53,0q-.49-9.57-1-19.16l.42,0Q40.34,169.18,40.89,178.76Z"/><path class="cls-2" d="M42.19,181.25l-.54,0-1.38-21.71.42,0Z"/><path class="cls-2" d="M43.19,179.24l-.53,0q-.75-9.89-1.49-19.76l.42,0Q42.38,169.37,43.19,179.24Z"/><path class="cls-2" d="M44.19,177.69l-.53.05q-.79-9.15-1.6-18.3l.42,0Z"/><path class="cls-2" d="M45.38,178.3l-.53.06q-.95-9.51-1.9-19l.42,0Z"/><path class="cls-2" d="M47,182.34l-.55.06q-1.3-11.57-2.59-23.13l.42-.05Q45.62,170.77,47,182.34Z"/><path class="cls-2" d="M48,180.68l-.54.07Q46.09,170,44.74,159.16l.42,0Q46.56,169.9,48,180.68Z"/><path class="cls-2" d="M48.91,179.09l-.53.07Q47,169.11,45.63,159l.42,0Q47.48,169,48.91,179.09Z"/><path class="cls-3" d="M46.52,159.63c0,1.69-21.91,1.69-21.93,0V154H46.52Z"/><path class="cls-4" d="M35.56,95.44c-3.08,0-5.59-3-5.59-6.74S32.48,82,35.56,82s5.58,3,5.58,6.73S38.63,95.44,35.56,95.44Zm0-12.65c-2.63,0-4.76,2.65-4.76,5.91s2.13,5.92,4.76,5.92S40.31,92,40.31,88.7,38.18,82.79,35.56,82.79Z"/><path class="cls-5" d="M71.11,126.21c0,.45,0,.9,0,1.34,0,.15,0,.29,0,.43a26.7,26.7,0,0,1-.33,2.69l-.09.43a25.44,25.44,0,0,1-.69,2.7c-.05.14-.1.29-.14.43a26,26,0,0,1-1.08,2.69l-.21.43A25.34,25.34,0,0,1,67,140c-.09.15-.18.3-.28.44a28.69,28.69,0,0,1-2,2.68c-.13.15-.25.3-.38.44a32,32,0,0,1-2.65,2.69l-.5.44a35.18,35.18,0,0,1-3.53,2.68l-.69.44a36.9,36.9,0,0,1-5.11,2.68l-1.06.44a42.15,42.15,0,0,1-30.47,0l-1.06-.44a37.47,37.47,0,0,1-5.11-2.68l-.68-.44a35.46,35.46,0,0,1-3.55-2.68l-.49-.44a32,32,0,0,1-2.65-2.69c-.13-.14-.26-.29-.38-.44a28.69,28.69,0,0,1-2-2.68c-.1-.14-.19-.29-.29-.44a27.15,27.15,0,0,1-1.5-2.69c-.07-.14-.15-.29-.21-.43a26,26,0,0,1-1.08-2.69c-.05-.14-.1-.29-.14-.43a25.49,25.49,0,0,1-.7-2.7c0-.14,0-.28-.08-.43A26.71,26.71,0,0,1,.06,128l0-.43c0-.44,0-.89,0-1.34s0-.9,0-1.34l0-.43a26.71,26.71,0,0,1,.34-2.69c0-.14.06-.28.08-.43a24.7,24.7,0,0,1,.7-2.69c0-.15.09-.3.14-.44a25,25,0,0,1,1.08-2.68c.06-.15.14-.3.21-.44a27.15,27.15,0,0,1,1.5-2.69c.1-.15.19-.3.29-.44a28.69,28.69,0,0,1,2-2.68c.12-.15.25-.3.38-.44a32,32,0,0,1,2.65-2.69l.49-.44A35.46,35.46,0,0,1,13.47,103l.68-.44a38.24,38.24,0,0,1,5.12-2.69l1.07-.44a42.18,42.18,0,0,1,30.43,0l1.07.44A37.64,37.64,0,0,1,57,102.57l.69.44a35.18,35.18,0,0,1,3.53,2.68l.5.44a32,32,0,0,1,2.65,2.69c.13.14.25.29.38.44a28.69,28.69,0,0,1,2,2.68c.1.14.19.29.28.44a25.34,25.34,0,0,1,1.51,2.69l.21.44a25,25,0,0,1,1.08,2.68c0,.14.09.29.14.44a24.66,24.66,0,0,1,.69,2.69l.09.43a26.7,26.7,0,0,1,.33,2.69c0,.14,0,.29,0,.43C71.09,125.31,71.11,125.76,71.11,126.21Z"/><path class="cls-6" d="M62.65,126.21c0,.45,0,.9,0,1.34l0,.43c-.05.91-.13,1.8-.25,2.69,0,.15-.05.29-.07.43a27.4,27.4,0,0,1-.53,2.7c0,.14-.07.29-.1.43-.24.92-.51,1.81-.83,2.69l-.15.43c-.35.93-.73,1.82-1.15,2.69-.07.15-.15.3-.22.44a28.15,28.15,0,0,1-1.53,2.68l-.28.44a32,32,0,0,1-2,2.69l-.38.44a28.46,28.46,0,0,1-2.7,2.68c-.17.15-.34.3-.52.44A27.15,27.15,0,0,1,48,152.53l-.81.44a25.09,25.09,0,0,1-23.23,0l-.81-.44a27.15,27.15,0,0,1-3.89-2.68l-.52-.44a28.46,28.46,0,0,1-2.7-2.68c-.13-.14-.25-.29-.38-.44a30,30,0,0,1-2-2.69c-.1-.14-.2-.29-.29-.44a28.07,28.07,0,0,1-1.52-2.68c-.08-.14-.15-.29-.22-.44a26.85,26.85,0,0,1-1.15-2.69l-.16-.43c-.31-.88-.59-1.77-.82-2.69,0-.14-.08-.29-.11-.43-.21-.89-.39-1.79-.53-2.7l-.06-.43c-.12-.89-.21-1.78-.26-2.69,0-.14,0-.28,0-.43,0-.44,0-.89,0-1.34s0-.9,0-1.34c0-.14,0-.29,0-.43.05-.91.14-1.8.26-2.69l.06-.43c.14-.91.32-1.81.53-2.69,0-.15.07-.3.11-.44.23-.92.51-1.81.82-2.68.05-.15.11-.3.16-.44a26.85,26.85,0,0,1,1.15-2.69c.07-.15.14-.3.22-.44a28.07,28.07,0,0,1,1.52-2.68c.09-.15.19-.3.29-.44a30,30,0,0,1,2-2.69c.13-.15.25-.3.38-.44a28.46,28.46,0,0,1,2.7-2.68l.52-.44a27.31,27.31,0,0,1,3.9-2.69l.82-.44a25.09,25.09,0,0,1,23.19,0l.82.44a27.31,27.31,0,0,1,3.9,2.69c.18.14.35.29.52.44a28.46,28.46,0,0,1,2.7,2.68l.38.44a32,32,0,0,1,2,2.69l.28.44a28.15,28.15,0,0,1,1.53,2.68l.22.44c.42.87.8,1.76,1.15,2.69l.15.44c.32.87.59,1.76.83,2.68,0,.14.07.29.1.44a26.64,26.64,0,0,1,.53,2.69c0,.15,0,.29.07.43.12.89.2,1.78.25,2.69l0,.43C62.64,125.31,62.65,125.76,62.65,126.21Z"/><path class="cls-2" d="M51.44,126.21c0,.45,0,.9,0,1.34,0,.15,0,.29,0,.43,0,.91-.08,1.8-.15,2.69,0,.15,0,.29,0,.43-.08.91-.18,1.81-.31,2.7l-.06.43c-.14.92-.3,1.81-.48,2.69,0,.14-.06.29-.1.43-.2.93-.42,1.82-.67,2.69l-.12.44c-.28.93-.58,1.82-.9,2.68-.06.15-.11.3-.17.44-.37.94-.76,1.84-1.18,2.69l-.22.44a31,31,0,0,1-1.58,2.68l-.31.44a19.68,19.68,0,0,1-2.28,2.68l-.48.44a10.28,10.28,0,0,1-6.81,2.85,10.28,10.28,0,0,1-6.8-2.85l-.48-.44A19.68,19.68,0,0,1,26,149.85l-.31-.44a31,31,0,0,1-1.58-2.68c-.07-.14-.15-.29-.22-.44-.42-.85-.82-1.75-1.18-2.69-.06-.14-.12-.29-.17-.44-.33-.86-.63-1.75-.9-2.68l-.12-.44c-.25-.87-.48-1.76-.68-2.69l-.09-.43c-.19-.88-.35-1.77-.48-2.69,0-.14-.05-.29-.07-.43-.12-.89-.23-1.79-.31-2.7l0-.43c-.07-.89-.13-1.78-.15-2.69,0-.14,0-.28,0-.43,0-.44,0-.89,0-1.34s0-.9,0-1.34c0-.14,0-.29,0-.43,0-.91.08-1.8.15-2.69l0-.43c.08-.91.19-1.81.31-2.69,0-.15,0-.3.07-.44.13-.92.29-1.81.48-2.68l.09-.44c.2-.93.43-1.82.68-2.69l.12-.44c.27-.93.57-1.82.9-2.68,0-.15.11-.3.17-.44.36-.94.76-1.84,1.18-2.69l.22-.44A31,31,0,0,1,25.68,103l.31-.44a19.15,19.15,0,0,1,2.29-2.69l.48-.44a10.29,10.29,0,0,1,6.79-2.84,10.29,10.29,0,0,1,6.8,2.84l.48.44a19.84,19.84,0,0,1,2.29,2.69l.31.44A31,31,0,0,1,47,105.69c.07.14.14.29.22.44.42.85.81,1.75,1.18,2.69.06.14.11.29.17.44.32.86.62,1.75.9,2.68l.12.44c.25.87.47,1.76.67,2.69,0,.14.07.29.1.44.18.87.34,1.76.48,2.68l.06.44c.13.88.23,1.78.31,2.69,0,.15,0,.29,0,.43.07.89.12,1.78.15,2.69,0,.14,0,.29,0,.43C51.43,125.31,51.44,125.76,51.44,126.21Z"/><path class="cls-7" d="M41.16,126.21c0,.45,0,.9,0,1.34V128c0,.91,0,1.8,0,2.69,0,.15,0,.29,0,.43,0,.91-.06,1.81-.11,2.7,0,.14,0,.29,0,.43-.05.92-.1,1.81-.17,2.69l0,.43c-.07.93-.15,1.82-.24,2.69,0,.15,0,.3,0,.44-.1.93-.21,1.82-.32,2.68l-.06.44c-.13.94-.27,1.84-.42,2.69,0,.15-.05.3-.07.44-.18,1-.37,1.85-.56,2.68,0,.15-.07.3-.11.44a24.87,24.87,0,0,1-.81,2.68c0,.15-.11.3-.16.44-.73,1.82-1.55,2.85-2.41,2.85s-1.67-1-2.4-2.85c0-.14-.11-.29-.17-.44a27.51,27.51,0,0,1-.8-2.68c0-.14-.07-.29-.11-.44-.2-.83-.38-1.73-.56-2.68,0-.14-.05-.29-.08-.44-.15-.85-.28-1.75-.41-2.69,0-.14-.05-.29-.06-.44-.12-.86-.22-1.75-.32-2.68,0-.14,0-.29,0-.44-.09-.87-.17-1.76-.24-2.69,0-.14,0-.29,0-.43-.06-.88-.12-1.77-.17-2.69,0-.14,0-.29,0-.43,0-.89-.08-1.79-.11-2.7,0-.14,0-.28,0-.43,0-.89,0-1.78-.05-2.69,0-.14,0-.28,0-.43v-2.68c0-.14,0-.29,0-.43,0-.91,0-1.8.05-2.69,0-.14,0-.28,0-.43,0-.91.07-1.81.11-2.69,0-.15,0-.3,0-.44.05-.92.11-1.81.17-2.68,0-.15,0-.3,0-.44.07-.93.15-1.82.24-2.69,0-.15,0-.3,0-.44.1-.93.2-1.82.32-2.68,0-.15,0-.3.06-.44.13-.94.26-1.84.41-2.69,0-.15.06-.3.08-.44.18-1,.36-1.85.56-2.68,0-.15.07-.3.11-.44A25.09,25.09,0,0,1,33,99.88c0-.15.11-.29.16-.44.73-1.81,1.54-2.84,2.4-2.84s1.68,1,2.4,2.84c.06.15.12.29.17.44a25.09,25.09,0,0,1,.81,2.69c0,.14.07.29.11.44.19.83.38,1.73.56,2.68,0,.14,0,.29.07.44.15.85.29,1.75.42,2.69l.06.44c.11.86.22,1.75.32,2.68,0,.14,0,.29,0,.44.09.87.17,1.76.24,2.69l0,.44c.07.87.12,1.76.17,2.68,0,.14,0,.29,0,.44.05.88.09,1.78.11,2.69,0,.15,0,.29,0,.43,0,.89,0,1.78,0,2.69v.43C41.16,125.31,41.16,125.76,41.16,126.21Z"/><path class="cls-8" d="M45.27,97.09c0,.7-19.43.7-19.43,0V91.7c0-1.33,19.43-1.33,19.43,0Z"/></g></g></svg>