<svg xmlns="http://www.w3.org/2000/svg" viewBox="0 0 752.41 710"><defs><style>.cls-1{fill:#7f0e0e;}</style></defs><g id="Layer_2" data-name="Layer 2"><g id="Layer_1-2" data-name="Layer 1"><path class="cls-1" d="M0,0V710H752.41V0ZM745.41,700H7V10H745.41Z"/><path class="cls-1" d="M60.24,632.89h9.34v52.6h43.84v-26.3H131v26.3H621.2v-26.3h17.6v26.3h43.84v-52.6H692v52.6h43.83v-62.6H699V609.54h36.83V546.93H717.4V521.8h18.42V187.12H717.4V162h18.42V99.38H699V86h36.83V23.42H692V76h-9.35V23.42H638.8V49.73H621.2V23.42H131V49.73h-17.6V23.42H69.58V76H60.24V23.42H16.4V86H53.23V99.38H16.4V162H34.82v25.14H16.4V521.8H34.82v25.13H16.4v62.61H53.23v13.35H16.4v62.6H60.24Zm46.18,42.6H76.58v-42.6H88v26.3h18.42ZM88,622.89H76.58V609.54H88Zm18.42,26.3H95v-16.3h11.42Zm569.22,26.3H645.8v-16.3h18.42v-26.3h11.42Zm-29.84-26.3v-16.3h11.42v16.3Zm18.42-26.3V609.54h11.42v13.35H664.22Zm64.6,10v42.6H699v-42.6Zm-36.83-10h-9.35V609.54H692Zm0-23.35h-9.35V583.23H692v16.31Zm36.83-42.61v42.61H699V583.23H717.4v-26.3ZM699,573.23v-16.3H710.4v16.3ZM715.7,109.38h13.12V152H717.4v-26.3H699v-16.3ZM699,135.68H710.4V152H699Zm-16.35-26.3H692v16.3h-9.35Zm16.35-76h29.83V76H699ZM692,86V99.38h-9.35V86Zm-27.77,0h11.42V99.38H664.22ZM645.8,33.42h29.84V76H664.22V49.73H645.8Zm0,26.31h11.42V76H645.8ZM76.58,33.42h29.84V49.73H88V76H76.58Zm29.84,26.31V76H95V59.73ZM88,86V99.38H76.58V86H88ZM23.4,76V33.42H53.23V76ZM60.24,86h9.34V99.38H60.24Zm0,23.35h9.34v16.3H60.24v-16.3ZM23.4,152v-42.6H53.23v16.3H34.82V152Zm29.83-16.3V152H41.82v-16.3ZM23.4,511.8V197.12H41.82V162H60.24v-26.3H76.58v-26.3H95V86h18.42V59.73H138V33.42H614.2V59.73h24.6V86h18.42v23.35h18.42v26.3H692V162H710.4v35.14h18.42V511.8H710.4v35.13H692v26.3H675.64v26.31H657.22v23.35H638.8v26.3H614.2v26.3H138v-26.3h-24.6v-26.3H95V599.54H76.58V573.23H60.24v-26.3H41.82V511.8Zm36.84,71.43h9.34v16.31H60.24V583.23Zm-18.42-26.3H53.23v16.3H41.82Zm-5.3,42.61H23.4V556.93H34.82v26.3H53.23v16.31Zm23.72,10h9.34v13.35H60.24Zm-7,66H23.4v-42.6H53.23Z"/></g></g></svg>